<?xml version="1.0" standalone="no"?>
<!DOCTYPE svg PUBLIC "-//W3C//DTD SVG 1.1//EN" "http://www.w3.org/Graphics/SVG/1.1/DTD/svg11.dtd" >
<svg>
<metadata>
Created by FontForge 20120731 at Thu Jan 23 08:57:28 2020
 By www
Copyright (C) 1986 Emigre Graphics. Copyright (C) 2007 Emigre Inc.; Designed by Zuzana Licko. All rights reserved. Release Version 1
</metadata>
<defs>
<font id="MatrixIIOT-Reg" horiz-adv-x="820" >
  <font-face 
    font-family="MatrixIIOT-Reg"
    font-weight="400"
    font-stretch="normal"
    units-per-em="1000"
    panose-1="2 0 6 3 6 0 0 2 0 4"
    ascent="792"
    descent="-208"
    x-height="508"
    cap-height="708"
    bbox="-113 -215 934 937"
    underline-thickness="30"
    underline-position="-70"
    unicode-range="U+0020-FB04"
  />
<missing-glyph horiz-adv-x="500" 
 />
    <glyph glyph-name="ff" unicode="ff" horiz-adv-x="671" 
d="M208 460v-404l56 -56h-220l56 56v404h-65v48h65v58q0 81 47 132.5t103 51.5h162l-83 -110l-67 67q-24 -8 -39 -28.5t-15 -45.5v-125h215v58q0 81 47 132.5t103 51.5h162l-83 -110l-67 67q-24 -8 -39 -28.5t-15 -45.5v-125h125v-48h-125v-404l56 -56h-220l56 56v404h-215z
" />
    <glyph glyph-name="fi" unicode="fi" horiz-adv-x="607" 
d="M518 508v-452l56 -56h-220l56 56v356l-48 48h-154v-404l56 -56h-220l56 56v404h-65v48h65v58q0 81 47 132.5t103 51.5h162l-83 -110l-67 67q-24 -8 -39 -28.5t-15 -45.5v-125h310z" />
    <glyph glyph-name="fl" unicode="fl" horiz-adv-x="614" 
d="M523 750v-694l56 -56h-220l56 56v596l-55 55h-85q-28 0 -47.5 -23.5t-19.5 -50.5v-125h125v-48h-125v-404l56 -56h-220l56 56v404h-65v48h65v58q0 81 47 132.5t103 51.5h273z" />
    <glyph glyph-name="ffi" unicode="ffi" horiz-adv-x="930" 
d="M423 508v58q0 81 47 132.5t103 51.5h162l-83 -110l-67 67q-24 -8 -39 -28.5t-15 -45.5v-125h310v-452l56 -56h-220l56 56v356l-48 48h-154v-404l56 -56h-220l56 56v404h-215v-404l56 -56h-220l56 56v404h-65v48h65v58q0 81 47 132.5t103 51.5h162l-83 -110l-67 67
q-24 -8 -39 -28.5t-15 -45.5v-125h215z" />
    <glyph glyph-name="ffl" unicode="ffl" horiz-adv-x="937" 
d="M208 460v-404l56 -56h-220l56 56v404h-65v48h65v58q0 81 47 132.5t103 51.5h162l-83 -110l-67 67q-24 -8 -39 -28.5t-15 -45.5v-125h215v58q0 81 47 132.5t103 51.5h273v-694l56 -56h-220l56 56v596l-55 55h-85q-28 0 -47.5 -23.5t-19.5 -50.5v-125h125v-48h-125v-404
l56 -56h-220l56 56v404h-215z" />
    <glyph glyph-name=".notdef" horiz-adv-x="500" 
 />
    <glyph glyph-name=".null" horiz-adv-x="0" 
 />
    <glyph glyph-name="nonmarkingreturn" horiz-adv-x="333" 
 />
    <glyph glyph-name="space" unicode=" " horiz-adv-x="243" 
 />
    <glyph glyph-name="exclam" unicode="!" horiz-adv-x="290" 
d="M209 708l-35 -530h-58l-35 530h128zM200 45q0 -23 -16 -39t-39 -16q-22 0 -38 16t-16 39t16 39t38 16q23 0 39 -16t16 -39z" />
    <glyph glyph-name="quotedbl" unicode="&#x22;" horiz-adv-x="407" 
d="M347 686l-54 -208l-53 208q-5 25 11.5 46t41.5 21t42 -21t12 -46zM177 688l-54 -208l-53 208q-5 24 11.5 44.5t41.5 20.5t42 -20.5t12 -44.5z" />
    <glyph glyph-name="numbersign" unicode="#" horiz-adv-x="468" 
d="M435 509l-9 -68h-80l-22 -175h80l-9 -68h-80l-26 -205h-53l26 205h-103l-26 -205h-53l26 205h-73l9 68h73l22 175h-73l9 68h73l26 205h53l-26 -205h103l26 205h53l-26 -205h80zM293 441h-103l-22 -175h103z" />
    <glyph glyph-name="dollar" unicode="$" horiz-adv-x="449" 
d="M196 -12q-11 1 -26 5l-146 36l77 99l73 -88q18 -13 48 -13q36 0 60.5 22t24.5 57q0 45 -48 72l-106 60q-50 28 -74 57.5t-24 71.5q0 56 37.5 99.5t103.5 52.5v164h53v-164q14 -2 22 -4l135 -36l-71 -94l-62 76q-21 19 -50 19q-30 0 -51 -19.5t-21 -49.5q0 -36 55 -70
l101 -61q47 -28 70 -57.5t23 -74.5q0 -56 -41 -103t-110 -56v-164h-53v163z" />
    <glyph glyph-name="percent" unicode="%" horiz-adv-x="550" 
d="M479 594l-350 -540v-54h-43v129l348 536h-192q37 -40 37 -96t-37.5 -97.5t-91.5 -41.5t-91.5 41.5t-37.5 97.5q0 55 38.5 97t90.5 42h329v-114zM529 134q0 -56 -37.5 -97.5t-91.5 -41.5t-91.5 41.5t-37.5 97.5t37.5 97.5t91.5 41.5t91.5 -41.5t37.5 -97.5zM211 569
q0 45 -14.5 78t-46.5 33t-46.5 -33t-14.5 -78t14.5 -78t46.5 -33t46.5 33t14.5 78zM461 134q0 45 -14.5 78t-46.5 33t-46.5 -33t-14.5 -78t14.5 -78t46.5 -33t46.5 33t14.5 78z" />
    <glyph glyph-name="ampersand" unicode="&#x26;" horiz-adv-x="650" 
d="M462 201q14 56 14 130v6l-56 56h171l-56 -56v-7q0 -108 -31 -183l67 -86l61 -61h-148l-41 53q-68 -65 -180 -65q-97 0 -160.5 54.5t-63.5 146.5q0 71 42 121.5t106 74.5q-70 94 -70 169q0 78 59 121.5t130 43.5q76 0 161 -42v-132l-91 91q-35 35 -69 35
q-36 0 -59.5 -27.5t-23.5 -73.5q0 -39 16.5 -72.5t52.5 -79.5zM217 346q-66 -60 -66 -151q0 -71 37.5 -112.5t98.5 -41.5q73 0 123 55z" />
    <glyph glyph-name="quotesingle" unicode="'" horiz-adv-x="237" 
d="M177 688l-54 -208l-53 208q-5 24 11.5 44.5t41.5 20.5t42 -20.5t12 -44.5z" />
    <glyph glyph-name="parenleft" unicode="(" horiz-adv-x="310" 
d="M303 -81l-18 -31q-118 99 -176.5 207t-58.5 249t58.5 249t176.5 207l18 -31q-77 -106 -108.5 -201t-31.5 -224t31.5 -224t108.5 -201z" />
    <glyph glyph-name="parenright" unicode=")" horiz-adv-x="310" 
d="M266 344q0 -141 -58.5 -249t-176.5 -207l-18 31q77 106 108.5 201t31.5 224t-31.5 224t-108.5 201l18 31q118 -99 176.5 -207t58.5 -249z" />
    <glyph glyph-name="asterisk" unicode="*" horiz-adv-x="424" 
d="M193 560l-28 155h94l-29 -154l120 102l47 -82l-148 -52l148 -52l-47 -82l-119 102l28 -154h-94l28 154l-119 -102l-47 82l148 52l-148 52l47 82z" />
    <glyph glyph-name="plus" unicode="+" horiz-adv-x="398" 
d="M347 265h-115v-115h-68v115h-115v68h115v115h68v-115h115v-68z" />
    <glyph glyph-name="comma" unicode="," horiz-adv-x="249" 
d="M175 25l-105 -198v218q0 23 15.5 39t38.5 16q29 0 46 -25.5t5 -49.5z" />
    <glyph glyph-name="hyphen" unicode="-" horiz-adv-x="350" 
d="M304 265h-258v68h258v-68z" />
    <glyph glyph-name="period" unicode="." horiz-adv-x="249" 
d="M184 50q0 -25 -17.5 -42.5t-42.5 -17.5t-42 17.5t-17 42.5t17 42.5t42 17.5t42.5 -17.5t17.5 -42.5z" />
    <glyph glyph-name="slash" unicode="/" horiz-adv-x="395" 
d="M379 708l-303 -708h-60l303 708h60z" />
    <glyph glyph-name="zero" unicode="0" horiz-adv-x="618" 
d="M570 254q0 -114 -76 -190.5t-185 -76.5t-185 76.5t-76 190.5t76 190.5t185 76.5t185 -76.5t76 -190.5zM445 254q0 93 -34 158.5t-102 65.5t-102 -65.5t-34 -158.5t34 -158.5t102 -65.5t102 65.5t34 158.5z" />
    <glyph glyph-name="one" unicode="1" horiz-adv-x="320" 
d="M270 0h-220l56 56v396l-56 56h220l-56 -56v-396z" />
    <glyph glyph-name="two" unicode="2" horiz-adv-x="470" 
d="M422 0h-396v56l213 201q52 50 52 104q0 35 -23 61t-69 26q-28 0 -66.5 -15.5t-70.5 -38.5l-23 37q46 35 105 62.5t107 27.5q62 0 108.5 -33.5t46.5 -102.5q0 -44 -21 -75.5t-57 -60.5l-217 -166h255l56 56v-139z" />
    <glyph glyph-name="three" unicode="3" horiz-adv-x="451" 
d="M97 148v45q90 24 132 70t42 97q0 43 -22 70.5t-67 27.5q-11 0 -22.5 -2.5t-23.5 -8t-22 -10.5t-22 -13t-18 -12.5t-16 -11.5l-10 -8l-29 34q99 95 200 95q75 0 120 -38.5t45 -103.5q0 -63 -42.5 -116.5t-104.5 -70.5q73 -13 121 -51.5t48 -108.5q0 -71 -54 -125.5
t-134.5 -80.5t-171.5 -26h-26v49h26q106 0 173.5 54.5t67.5 128.5q0 61 -52.5 91t-137.5 25z" />
    <glyph glyph-name="four" unicode="4" horiz-adv-x="505" 
d="M459 0h-75v-200h-108v200h-270v29l347 489h31v-460h75v-58zM276 58v265l-189 -265h189z" />
    <glyph glyph-name="five" unicode="5" horiz-adv-x="465" 
d="M119 202q57 18 100 18q97 0 155.5 -44.5t58.5 -120.5q0 -81 -60 -140.5t-147 -87t-185 -27.5v50q112 0 192 51t80 138q0 44 -33 73t-87 29q-35 0 -68.5 -5.5t-48.5 -11.5l-16 -5v389h366l-52 -108h-255v-198z" />
    <glyph glyph-name="six" unicode="6" horiz-adv-x="560" 
d="M325 435q82 0 138.5 -59.5t56.5 -151.5q0 -110 -70 -173.5t-160 -63.5q-117 0 -181 78t-64 205q0 76 26.5 154t73.5 144t120 108.5t158 44.5l12 -45q-204 -13 -257 -303q56 62 147 62zM402 211q0 33 -3.5 58t-14 53t-35 43.5t-61.5 15.5q-46 0 -84 -38t-38 -110
q0 -91 30 -147t94 -56q52 0 82 48.5t30 132.5z" />
    <glyph glyph-name="seven" unicode="7" horiz-adv-x="440" 
d="M426 508l-227 -655v-53h-136l276 600h-267l-56 -56v164h410z" />
    <glyph glyph-name="eight" unicode="8" horiz-adv-x="570" 
d="M181 373q-50 24 -80 67.5t-30 95.5q0 77 62.5 131t151.5 54t151.5 -54t62.5 -131q0 -51 -30 -95.5t-80 -67.5q61 -25 98 -75t37 -109q0 -83 -70 -142.5t-169 -59.5t-169 59.5t-70 142.5q0 59 37 109t98 75zM285 678q-41 0 -68 -41t-27 -101t27 -101.5t68 -41.5t67.5 41.5
t26.5 101.5t-26.5 101t-67.5 41zM285 350q-52 0 -86 -47.5t-34 -113.5t34 -112.5t86 -46.5t85.5 46.5t33.5 112.5q0 67 -33.5 114t-85.5 47z" />
    <glyph glyph-name="nine" unicode="9" horiz-adv-x="560" 
d="M235 73q-82 0 -138.5 59.5t-56.5 151.5q0 110 70 173.5t160 63.5q117 0 181 -78t64 -205q0 -76 -26.5 -153t-73.5 -142t-120 -107t-158 -44l-12 45q205 13 257 298q-56 -62 -147 -62zM158 297q0 -33 3.5 -58t14 -53t35 -43.5t61.5 -15.5q46 0 84 38t38 110q0 91 -30 147
t-94 56q-52 0 -82 -48.5t-30 -132.5z" />
    <glyph glyph-name="colon" unicode=":" horiz-adv-x="249" 
d="M184 430q0 -25 -17.5 -42.5t-42.5 -17.5t-42 17.5t-17 42.5t17 42.5t42 17.5t42.5 -17.5t17.5 -42.5zM184 50q0 -25 -17.5 -42.5t-42.5 -17.5t-42 17.5t-17 42.5t17 42.5t42 17.5t42.5 -17.5t17.5 -42.5z" />
    <glyph glyph-name="semicolon" unicode=";" horiz-adv-x="249" 
d="M175 25l-105 -198v218q0 23 15.5 39t38.5 16q29 0 46 -25.5t5 -49.5zM184 430q0 -25 -17.5 -42.5t-42.5 -17.5t-42 17.5t-17 42.5t17 42.5t42 17.5t42.5 -17.5t17.5 -42.5z" />
    <glyph glyph-name="less" unicode="&#x3c;" horiz-adv-x="350" 
d="M277 123l-205 211l205 211v-65l-107 -146l107 -146v-65z" />
    <glyph glyph-name="equal" unicode="=" horiz-adv-x="350" 
d="M304 344h-258v68h258v-68zM304 187h-258v68h258v-68z" />
    <glyph glyph-name="greater" unicode="&#x3e;" horiz-adv-x="350" 
d="M278 334l-205 -211v65l107 146l-107 146v65z" />
    <glyph glyph-name="question" unicode="?" horiz-adv-x="480" 
d="M451 530q0 -78 -72 -146l-161 -152v-54h-43v136l83 79q40 38 57.5 71t17.5 78q0 58 -39 89t-91 31q-35 0 -56 -8l-73 -88l-71 120l140 26q52 9 86 9q116 0 169 -56t53 -135zM259 45q0 -23 -16.5 -39t-38.5 -16t-38 16t-16 39t16 39t38 16t38.5 -16t16.5 -39z" />
    <glyph glyph-name="at" unicode="@" horiz-adv-x="826" 
d="M765 316q0 -107 -67.5 -191.5t-140.5 -84.5q-29 0 -48.5 16t-26.5 38q-18 -24 -50 -41t-57 -17q-69 0 -101 59.5t-17 147.5q14 85 75 145t132 60q35 0 71 -18l69 19l-54 -302q-11 -62 32 -62q46 0 93.5 69t47.5 160q0 113 -74 179.5t-178 66.5q-137 0 -232.5 -101.5
t-95.5 -236.5q0 -136 80.5 -219t206.5 -83q119 0 236 72l14 -23q-127 -91 -259 -91q-150 0 -254 98t-104 242q0 161 115 276t276 115q133 0 222 -81.5t89 -211.5zM517 384q-21 21 -57 21q-43 0 -76 -48.5t-44 -115.5q-13 -60 0 -106t54 -46q29 0 55.5 27.5t32.5 66.5z" />
    <glyph glyph-name="A" unicode="A" horiz-adv-x="605" 
d="M615 0h-240l60 60l-45 140h-233l-47 -140l60 -60h-190l62 62l225 646h66l220 -646zM370 258l-94 288l-99 -288h193z" />
    <glyph glyph-name="B" unicode="B" horiz-adv-x="581" 
d="M544 189q0 -68 -38 -112.5t-90 -60.5t-116 -16h-265l61 61v586l-61 61h240q104 0 169 -47.5t65 -126.5q0 -56 -35.5 -103t-88.5 -65q66 -18 112.5 -67.5t46.5 -109.5zM396 514q0 65 -33.5 100.5t-87.5 35.5h-71v-267h71q54 0 87.5 34.5t33.5 96.5zM431 188q0 63 -37 100
t-94 37h-96v-267h96q56 0 93.5 34t37.5 96z" />
    <glyph glyph-name="C" unicode="C" horiz-adv-x="559" 
d="M524 31q-68 -41 -179 -41q-132 0 -216.5 109.5t-84.5 254.5q0 146 85 255t216 109q95 0 179 -42v-145l-97 97q-33 34 -82 34q-48 0 -83 -28t-53.5 -75t-26.5 -98t-8 -107t9 -107t27.5 -98t53.5 -75t81 -28q49 0 82 34l97 97v-146z" />
    <glyph glyph-name="D" unicode="D" horiz-adv-x="668" 
d="M624 354q0 -69 -20.5 -131.5t-59 -113t-102 -80t-142.5 -29.5h-265l61 61v586l-61 61h265q79 0 142.5 -29.5t102 -80t59 -113t20.5 -131.5zM496 354q0 128 -49.5 212t-146.5 84h-96v-592h96q97 0 146.5 84t49.5 212z" />
    <glyph glyph-name="E" unicode="E" horiz-adv-x="514" 
d="M479 0h-444l61 61v586l-61 61h444v-139l-81 81h-194v-242h139l61 61v-180l-61 61h-139v-292h194l81 81v-139z" />
    <glyph glyph-name="F" unicode="F" horiz-adv-x="495" 
d="M479 569l-81 81h-194v-242h139l61 61v-180l-61 61h-139v-289l61 -61h-230l61 61v586l-61 61h444v-139z" />
    <glyph glyph-name="G" unicode="G" horiz-adv-x="670" 
d="M660 383l-61 -61v-280q-45 -26 -89 -39t-124 -13q-143 0 -242.5 107.5t-99.5 256.5t102 256.5t245 107.5q96 0 178 -41v-146l-97 97q-34 34 -81 34q-65 0 -115.5 -47t-75.5 -116t-25 -145t25 -145t75.5 -116t115.5 -47t100 35v241l-61 61h230z" />
    <glyph glyph-name="H" unicode="H" horiz-adv-x="675" 
d="M640 0h-230l61 61v289h-267v-289l61 -61h-230l61 61v586l-61 61h230l-61 -61v-239h267v239l-61 61h230l-61 -61v-586z" />
    <glyph glyph-name="I" unicode="I" horiz-adv-x="320" 
d="M275 0h-230l61 61v586l-61 61h230l-61 -61v-586z" />
    <glyph glyph-name="J" unicode="J" horiz-adv-x="320" 
d="M275 708l-61 -61v-663q0 -81 -46.5 -132.5t-103.5 -51.5h-172l88 115l72 -72q54 21 54 74v730l-61 61h230z" />
    <glyph glyph-name="K" unicode="K" horiz-adv-x="620" 
d="M631 0h-182v58l-245 311v-308l61 -61h-230l61 61v586l-61 61h230l-61 -61v-263l270 270l-54 54h185l-298 -298z" />
    <glyph glyph-name="L" unicode="L" horiz-adv-x="470" 
d="M454 0h-419l61 61v586l-61 61h230l-61 -61v-589h169l81 81v-139z" />
    <glyph glyph-name="M" unicode="M" horiz-adv-x="810" 
d="M775 0h-230l61 61v529l-221 -393l-221 393v-529l61 -61h-190l61 61v586l-61 61h188l193 -344l192 344h167l-61 -61v-586z" />
    <glyph glyph-name="N" unicode="N" horiz-adv-x="665" 
d="M635 708l-61 -61v-705l-410 637v-518l61 -61h-190l61 61v586l-61 61h177l294 -461v400l-61 61h190z" />
    <glyph glyph-name="O" unicode="O" horiz-adv-x="696" 
d="M652 354q0 -146 -85 -257.5t-219 -111.5t-219 111.5t-85 257.5t85 257.5t219 111.5t219 -111.5t85 -257.5zM522 354q0 57 -8.5 108.5t-27.5 99t-54.5 75.5t-83.5 28t-83.5 -28t-54.5 -75.5t-27.5 -99t-8.5 -108.5t8.5 -108.5t27.5 -99t54.5 -75.5t83.5 -28t83.5 28
t54.5 75.5t27.5 99t8.5 108.5z" />
    <glyph glyph-name="P" unicode="P" horiz-adv-x="585" 
d="M559 504q0 -99 -80.5 -151.5t-188.5 -52.5h-86v-239l61 -61h-230l61 61v586l-61 61h255q108 0 188.5 -52.5t80.5 -151.5zM436 504q0 67 -41.5 106.5t-104.5 39.5h-86v-292h86q63 0 104.5 39.5t41.5 106.5z" />
    <glyph glyph-name="Q" unicode="Q" horiz-adv-x="696" 
d="M658 43l-109 -109l-202 51q-89 0 -159.5 54t-107 137.5t-36.5 177.5q0 146 85 257.5t219 111.5q90 0 161 -54.5t107 -138t36 -176.5q0 -196 -140 -311h146zM522 354q0 57 -8.5 108.5t-27.5 99t-54.5 75.5t-83.5 28t-83.5 -28t-54.5 -75.5t-27.5 -99t-8.5 -108.5
t8.5 -108.5t27.5 -99t54.5 -75.5t83.5 -28t83.5 28t54.5 75.5t27.5 99t8.5 108.5z" />
    <glyph glyph-name="R" unicode="R" horiz-adv-x="605" 
d="M620 0h-153l-169 325h-94v-264l61 -61h-230l61 61v586l-61 61h255q99 0 171.5 -50.5t72.5 -143.5q0 -56 -37 -102.5t-95 -65.5l157 -285zM411 514q0 60 -34 98t-87 38h-86v-267h86q52 0 86.5 36.5t34.5 94.5z" />
    <glyph glyph-name="S" unicode="S" horiz-adv-x="491" 
d="M452 212q0 -93 -58 -156.5t-171 -63.5q-34 0 -62 5l-147 26l71 130l78 -98q24 -15 68 -15q43 0 72.5 23t39.5 49.5t10 52.5q0 62 -64 104l-145 95q-95 62 -95 162q0 90 61 140t141 50q29 0 88 -11l108 -20l-71 -120l-64 78q-23 21 -55 21q-48 0 -77.5 -30.5t-29.5 -67.5
q0 -62 73 -111l125 -83q104 -70 104 -160z" />
    <glyph glyph-name="T" unicode="T" horiz-adv-x="548" 
d="M528 569l-81 81h-119v-589l61 -61h-230l61 61v589h-119l-81 -81v139h508v-139z" />
    <glyph glyph-name="U" unicode="U" horiz-adv-x="650" 
d="M620 708l-61 -61v-448q0 -99 -69 -156.5t-165 -57.5t-165 58t-69 156v448l-61 61h230l-61 -61v-448q0 -68 42.5 -109.5t103.5 -41.5t103.5 41.5t42.5 109.5v448l-61 61h190z" />
    <glyph glyph-name="V" unicode="V" horiz-adv-x="565" 
d="M579 708l-62 -62l-205 -646h-66l-200 646l-62 62h237l-60 -60l142 -474l146 474l-60 60h190z" />
    <glyph glyph-name="W" unicode="W" horiz-adv-x="920" 
d="M934 708l-62 -62l-205 -646h-66l-143 460l-146 -460h-66l-200 646l-62 62h237l-60 -60l141 -477l123 397l-24 78l-62 62h237l-60 -60l141 -477l147 477l-60 60h190z" />
    <glyph glyph-name="X" unicode="X" horiz-adv-x="600" 
d="M595 0h-188v59l-128 230l-137 -229l60 -60h-197l62 62l179 283l-174 301l-62 62h189v-59l123 -220l131 219l-60 60h197l-62 -62l-173 -273l178 -311z" />
    <glyph glyph-name="Y" unicode="Y" horiz-adv-x="555" 
d="M572 708l-61 -61l-175 -320v-266l61 -61h-230l61 61v268l-179 317l-62 62h245l-60 -60l137 -249l131 249l-60 60h192z" />
    <glyph glyph-name="Z" unicode="Z" horiz-adv-x="503" 
d="M478 708l-317 -650h228l81 81v-139h-455l319 650h-211l-81 -81v139h436z" />
    <glyph glyph-name="bracketleft" unicode="[" horiz-adv-x="280" 
d="M228 -95h-168v878h168v-33h-75v-812h75v-33z" />
    <glyph glyph-name="backslash" unicode="\" horiz-adv-x="395" 
d="M378 0h-60l-303 708h60z" />
    <glyph glyph-name="bracketright" unicode="]" horiz-adv-x="280" 
d="M220 -95h-168v33h75v812h-75v33h168v-878z" />
    <glyph glyph-name="asciicircum" unicode="^" horiz-adv-x="502" 
d="M442 536h-27l-164 88l-165 -88h-26l191 191z" />
    <glyph glyph-name="underscore" unicode="_" horiz-adv-x="500" 
d="M504 -50h-508v58h508v-58z" />
    <glyph glyph-name="grave" unicode="`" horiz-adv-x="262" 
d="M239 665l-167 75q-17 8 -22 29.5t12 33.5q27 12 65 -26z" />
    <glyph glyph-name="a" unicode="a" horiz-adv-x="518" 
d="M497 0h-164v85l-81 -61q-46 -34 -96 -34q-51 0 -87 38.5t-36 98.5q0 77 61 127.5t143 50.5h96v77q0 41 -24 66t-62 25q-28 0 -46.5 -8.5t-40.5 -30.5l-82 -82v128q27 15 76.5 28t102.5 13q101 0 142.5 -41t41.5 -98v-326zM333 134v128h-71q-52 0 -86.5 -35.5t-34.5 -89.5
q0 -36 18.5 -56.5t45.5 -20.5q31 0 70 30z" />
    <glyph glyph-name="b" unicode="b" horiz-adv-x="568" 
d="M527 254q0 -115 -59.5 -191t-143.5 -76q-106 0 -159 77l-91 -77v665l-54 54l162 54v-318q55 79 152 79q84 0 138.5 -72.5t54.5 -194.5zM406 254q0 206 -113 206q-33 0 -63 -22t-48 -60v-248q18 -38 48 -60t63 -22q113 0 113 206z" />
    <glyph glyph-name="c" unicode="c" horiz-adv-x="482" 
d="M448 57q-38 -36 -75.5 -53t-88.5 -17q-116 0 -181 77.5t-65 189.5q0 107 67 187t172 80q89 0 169 -42v-127l-82 82q-39 39 -93 39q-32 0 -53.5 -18t-32.5 -51t-15 -68.5t-4 -81.5q0 -106 33.5 -159.5t107.5 -53.5q65 0 110 47z" />
    <glyph glyph-name="d" unicode="d" horiz-adv-x="571" 
d="M162 254q0 -206 113 -206q33 0 63 22t48 60v248q-18 38 -48 60t-63 22q-113 0 -113 -206zM386 652l-54 54l162 54v-704l56 -56h-164v67q-58 -80 -152 -80q-83 0 -138 75.5t-55 191.5q0 122 54.5 194.5t138.5 72.5q97 0 152 -79v210z" />
    <glyph glyph-name="e" unicode="e" horiz-adv-x="532" 
d="M481 263h-315q0 -39 2.5 -68t11.5 -59.5t24 -50.5t41.5 -32.5t63.5 -12.5q40 0 78 22t60 50l30 -30q-22 -25 -41 -41.5t-63 -35t-96 -18.5q-108 0 -173.5 80t-65.5 185q0 109 68 189t169 80q85 0 149.5 -55.5t64.5 -142.5q0 -36 -8 -60zM275 478q-57 0 -83 -48.5
t-26 -118.5h203q12 33 8 70t-32.5 67t-69.5 30z" />
    <glyph glyph-name="f" unicode="f" horiz-adv-x="348" 
d="M412 750l-83 -110l-67 67q-24 -8 -39 -28.5t-15 -45.5v-125h125v-48h-125v-404l56 -56h-220l56 56v404h-65v48h65v58q0 81 47 132.5t103 51.5h162z" />
    <glyph glyph-name="g" unicode="g" horiz-adv-x="497" 
d="M494 508l-79 -80q23 -42 23 -74q0 -72 -62 -113t-142 -41q-14 0 -36 2v-93q24 3 46 3q41 0 78 -7.5t69.5 -23.5t52 -45.5t19.5 -68.5q0 -52 -35.5 -91t-87 -57.5t-106.5 -18.5q-62 0 -111 11l-119 26l94 94l53 -66q49 -12 83 -12q56 0 101 21.5t45 62.5q0 73 -136 73
q-24 0 -55 -2.5t-49 -5.5l-19 -2v224q-41 20 -66 53.5t-25 76.5q0 71 61 112.5t143 41.5h260zM330 354q0 47 -27 81.5t-69 34.5t-69 -34.5t-27 -81.5t27 -81.5t69 -34.5t69 34.5t27 81.5z" />
    <glyph glyph-name="h" unicode="h" horiz-adv-x="575" 
d="M554 0h-164v374q0 29 -15 50t-45 21q-43 0 -96 -54l-49 -49v-286l56 -56h-220l56 56v596l-54 54l162 54v-356l43 43q76 74 148 74q48 0 85 -31.5t37 -90.5v-343z" />
    <glyph glyph-name="i" unicode="i" horiz-adv-x="288" 
d="M255 0h-220l56 56v352l-54 54l162 59v-465zM145 595q-23 0 -39.5 16.5t-16.5 39.5t16.5 40t39.5 17t39.5 -17t16.5 -40t-16.5 -39.5t-39.5 -16.5z" />
    <glyph glyph-name="j" unicode="j" horiz-adv-x="288" 
d="M199 -16q0 -80 -47 -132t-102 -52h-163l83 110l67 -67q54 21 54 74v491l-54 54l162 59v-537zM145 595q-23 0 -39.5 16.5t-16.5 39.5t16.5 40t39.5 17t39.5 -17t16.5 -40t-16.5 -39.5t-39.5 -16.5z" />
    <glyph glyph-name="k" unicode="k" horiz-adv-x="548" 
d="M560 0h-188v52l-187 187v-183l56 -56h-220l56 56v596l-54 54l162 54v-508l202 202l-54 54h185l-233 -233z" />
    <glyph glyph-name="l" unicode="l" horiz-adv-x="291" 
d="M256 0h-220l56 56v596l-54 54l162 54v-704z" />
    <glyph glyph-name="m" unicode="m" horiz-adv-x="815" 
d="M794 0h-164v384q0 63 -42 63q-4 0 -7.5 -1t-8 -3t-8 -4t-8 -6t-8 -6.5t-9 -8l-8.5 -8.5l-9.5 -9.5l-9.5 -9.5l-49 -49v-286l56 -56h-164v384q0 34 -10 48.5t-32 14.5q-4 0 -7.5 -1t-8 -3t-8 -4t-8 -6t-8 -6.5t-9 -8l-8.5 -8.5l-9.5 -9.5l-9.5 -9.5l-49 -49v-286l56 -56
h-220l56 56v352l-54 54l162 59v-117l43 43q74 74 132 74q91 0 100 -117l43 43q74 74 133 74q45 0 72 -33t27 -104v-328z" />
    <glyph glyph-name="n" unicode="n" horiz-adv-x="578" 
d="M557 0h-164v374q0 29 -15 50t-45 21q-43 0 -96 -54l-49 -49v-286l56 -56h-220l56 56v352l-54 54l162 59v-117l43 43q76 74 148 74q48 0 85 -31.5t37 -90.5v-343z" />
    <glyph glyph-name="o" unicode="o" horiz-adv-x="584" 
d="M543 254q0 -110 -72 -188.5t-179 -78.5t-179 78.5t-72 188.5t72 188.5t179 78.5t179 -78.5t72 -188.5zM418 254q0 57 -10.5 104.5t-40 83.5t-75.5 36t-75.5 -36t-40 -83.5t-10.5 -104.5t10.5 -104.5t40 -83.5t75.5 -36t75.5 36t40 83.5t10.5 104.5z" />
    <glyph glyph-name="p" unicode="p" horiz-adv-x="568" 
d="M407 254q0 206 -113 206q-33 0 -63 -22t-48 -60v-248q18 -38 48 -60t63 -22q113 0 113 206zM75 402l-54 54l162 59v-74q58 80 152 80q83 0 138 -75.5t55 -191.5q0 -122 -54.5 -194.5t-138.5 -72.5q-97 0 -152 79v-210l56 -56h-220l56 56v546z" />
    <glyph glyph-name="q" unicode="q" horiz-adv-x="568" 
d="M161 254q0 -206 113 -206q33 0 63 22t48 60v248q-18 38 -48 60t-63 22q-113 0 -113 -206zM493 -144l56 -56h-220l56 56v210q-55 -79 -152 -79q-84 0 -138.5 72.5t-54.5 194.5q0 115 59.5 191t143.5 76q106 0 159 -77l91 77v-665z" />
    <glyph glyph-name="r" unicode="r" horiz-adv-x="417" 
d="M388 346l-108 108l-92 -99v-299l56 -56h-220l56 56v352l-54 54l162 59v-104l43 47q50 57 113 57l44 -6v-169z" />
    <glyph glyph-name="s" unicode="s" horiz-adv-x="425" 
d="M390 148q0 -63 -49.5 -112t-131.5 -49q-25 0 -49 6l-146 36l77 99l73 -88q18 -13 48 -13q36 0 60.5 22t24.5 57q0 45 -48 72l-106 60q-50 28 -74 57.5t-24 71.5q0 62 46 108t123 46q24 0 47 -6l135 -36l-71 -94l-62 76q-21 19 -50 19q-30 0 -51 -19.5t-21 -49.5
q0 -36 55 -70l101 -61q47 -28 70 -57.5t23 -74.5z" />
    <glyph glyph-name="t" unicode="t" horiz-adv-x="350" 
d="M324 460h-125v-405q31 -10 57.5 4.5t38.5 36.5l25 -25q-12 -31 -39.5 -56t-72.5 -25q-56 0 -86.5 35t-30.5 85v330h-91l199 199v-131h125v-48z" />
    <glyph glyph-name="u" unicode="u" horiz-adv-x="560" 
d="M21 462l162 59v-389q0 -29 13.5 -49t41.5 -20q36 0 88 52l49 49v244l-54 54l162 59v-465l56 -56h-164v102l-43 -43q-72 -72 -142 -72q-42 0 -78.5 31t-36.5 89v301z" />
    <glyph glyph-name="v" unicode="v" horiz-adv-x="504" 
d="M522 508l-57 -57l-179 -451h-61l-179 451l-57 57h225l-55 -55l124 -313l124 313l-55 55h170z" />
    <glyph glyph-name="w" unicode="w" horiz-adv-x="760" 
d="M776 508l-57 -57l-153 -451h-61l-122 358l-122 -358h-61l-153 451l-57 57h225l-56 -55l99 -310l98 310l-55 55h219l-56 -55l99 -310l98 310l-55 55h170z" />
    <glyph glyph-name="x" unicode="x" horiz-adv-x="500" 
d="M499 0h-235l55 55l-90 140l-103 -140l55 -55h-180l57 57l140 186l-135 208l-57 57h235l-55 -55l85 -133l98 133l-55 55h180l-57 -57l-135 -179l140 -215z" />
    <glyph glyph-name="y" unicode="y" horiz-adv-x="504" 
d="M522 508l-57 -57l-232 -596l55 -55h-202l83 56l57 148l-181 448l-56 56h225l-55 -55l122 -309l121 309l-55 55h175z" />
    <glyph glyph-name="z" unicode="z" horiz-adv-x="430" 
d="M408 508l-253 -460h154l81 81v-129h-376l253 460h-144l-81 -81v129h366z" />
    <glyph glyph-name="braceleft" unicode="{" horiz-adv-x="340" 
d="M320 -86l-19 -27q-53 44 -85 81t-46 74.5t-18 66t-4 75.5q0 4 2 31t2 30l-137 99l137 99q0 3 -2 30t-2 31q0 47 4 75.5t18 66t46 74.5t85 81l19 -27q-45 -51 -58 -103.5t-13 -163.5l2 -58l-95 -105l95 -105q-2 -51 -2 -58q0 -111 13 -163.5t58 -103.5z" />
    <glyph glyph-name="bar" unicode="|" horiz-adv-x="324" 
d="M197 -95h-65v879h65v-879z" />
    <glyph glyph-name="braceright" unicode="}" horiz-adv-x="340" 
d="M325 344l-137 -99q0 -3 2 -30t2 -31q0 -47 -4 -75.5t-18 -66t-46 -74.5t-85 -81l-19 27q45 51 58 103.5t13 163.5l-2 58l95 105l-95 105q2 51 2 58q0 111 -13 163.5t-58 103.5l19 27q53 -44 85 -81t46 -74.5t18 -66t4 -75.5q0 -4 -2 -31t-2 -30z" />
    <glyph glyph-name="asciitilde" unicode="~" horiz-adv-x="457" 
d="M390 358q-9 -51 -37.5 -85t-71.5 -34q-33 0 -75 30.5t-59 30.5t-29 -17t-16 -39h-35q9 51 38 85t72 34q31 0 56 -15.5t43.5 -30.5t33.5 -15q17 0 29.5 17.5t15.5 38.5h35z" />
    <glyph glyph-name="nbspace" unicode="&#xa0;" horiz-adv-x="243" 
 />
    <glyph glyph-name="exclamdown" unicode="&#xa1;" horiz-adv-x="290" 
d="M90 476q0 22 16 38.5t39 16.5q22 0 38 -16t16 -39t-16 -39t-38 -16q-23 0 -39 16.5t-16 38.5zM81 -200l35 543h58l35 -543h-128z" />
    <glyph glyph-name="cent" unicode="&#xa2;" horiz-adv-x="494" 
d="M261 520v160h53v-160q68 -5 135 -41v-127l-82 82q-39 39 -93 39q-100 0 -100 -194q0 -128 32 -183t104 -55q65 0 110 47l31 -31q-66 -62 -137 -69v-166h-53v166q-98 10 -159 87t-61 179q0 101 61.5 179.5t158.5 86.5z" />
    <glyph glyph-name="sterling" unicode="&#xa3;" horiz-adv-x="475" 
d="M454 0h-419l61 61v283h-66v54h66v126q0 80 47.5 132t102.5 52h162l-83 -110l-67 67q-24 -8 -39 -28.5t-15 -45.5v-193h140v-54h-140v-286h169l81 81v-139z" />
    <glyph glyph-name="currency" unicode="&#xa4;" horiz-adv-x="547" 
d="M208 297q-1 -10 -1 -30q0 -19 1 -29h214v-52h-207q13 -63 45 -103.5t85 -40.5q43 0 80 33l76 76v-126q-55 -33 -156 -33q-92 0 -157 55t-89 139h-66v52h56q-1 10 -1 29q0 5 0.5 15t0.5 15h-56v52h66q24 84 90 138.5t156 54.5q93 0 156 -34v-125l-78 78q-35 31 -78 31
q-105 0 -131 -143h208v-52h-214z" />
    <glyph glyph-name="yen" unicode="&#xa5;" horiz-adv-x="534" 
d="M220 250h-164v52h131l-110 171l-61 61h228l-56 -56l106 -171l103 170l-57 57h188l-60 -60l-108 -172h131v-52h-163l-3 -5v-54h166v-52h-166v-80l59 -59h-220l59 59v80h-167v52h167v55z" />
    <glyph glyph-name="brokenbar" unicode="&#xa6;" horiz-adv-x="324" 
d="M197 424h-65v360h65v-360zM197 -95h-65v360h65v-360z" />
    <glyph glyph-name="section" unicode="&#xa7;" horiz-adv-x="463" 
d="M425 272q0 -56 -29 -102t-78 -70l12 -8q76 -51 76 -130q0 -68 -51 -114t-129 -46q-29 0 -56 7l-133 30l71 102l63 -71q29 -20 54 -20q37 0 60.5 23t23.5 61q0 49 -52 85l-151 97q-69 44 -69 125q0 56 29 102t78 69l-12 9q-76 57 -76 130q0 68 51 114t129 46q23 0 56 -7
l133 -30l-71 -101l-63 70q-30 20 -54 20q-37 0 -60.5 -23t-23.5 -61q0 -49 52 -85l151 -97q69 -42 69 -125zM343 236q0 50 -43 78l-95 61q-37 -4 -61.5 -32t-24.5 -66q0 -50 43 -78l95 -61q37 4 61.5 32t24.5 66z" />
    <glyph glyph-name="dieresis" unicode="&#xa8;" horiz-adv-x="362" 
d="M321 751q0 -19 -14 -33t-33 -14t-33 14t-14 33t14 33t33 14t33 -14t14 -33zM155 752q0 -19 -14 -33t-33 -14t-33 14t-14 33t14 33t33 14t33 -14t14 -33z" />
    <glyph glyph-name="copyright" unicode="&#xa9;" horiz-adv-x="788" 
d="M759 354q0 -150 -107.5 -257t-257.5 -107q-151 0 -258 106.5t-107 257.5t107 257.5t258 106.5q150 0 257.5 -107t107.5 -257zM394 671q-132 0 -224.5 -93t-92.5 -224t92.5 -224t224.5 -93q131 0 224 93t93 224t-93 224t-224 93zM524 167q-43 -28 -118 -28q-88 0 -143 65
t-55 151t56 150.5t150 64.5q66 0 110 -28v-98l-60 59q-23 22 -58 22q-59 0 -85.5 -50.5t-26.5 -119.5t27.5 -121t84.5 -52q35 0 58 22l60 58v-95z" />
    <glyph glyph-name="ordfeminine" unicode="&#xaa;" horiz-adv-x="415" 
d="M387 338h-131v58l-65 -43q-34 -24 -64 -24q-39 0 -63 28t-24 74q0 57 44.5 94.5t105.5 37.5h66v62q0 22 -16.5 36t-39.5 14q-22 0 -42 -20l-75 -74v108q51 30 121 30q61 0 98.5 -28t37.5 -72v-233zM256 440v86h-48q-37 0 -60.5 -24.5t-23.5 -65.5q0 -50 31 -50q16 0 29 8
z" />
    <glyph glyph-name="guillemotleft" unicode="&#xab;" horiz-adv-x="459" 
d="M404 140l-169 164l169 164v-20l-75 -144l75 -144v-20zM248 128l-180 176l180 176v-22l-81 -154l81 -154v-22z" />
    <glyph glyph-name="registered" unicode="&#xae;" horiz-adv-x="554" 
d="M525 460q0 -103 -73 -175.5t-175 -72.5q-103 0 -175.5 72.5t-72.5 175.5q0 102 72.5 175t175.5 73q102 0 175 -73t73 -175zM491 460q0 88 -62.5 151t-151.5 63t-151.5 -62.5t-62.5 -151.5t62.5 -151.5t151.5 -62.5t151.5 62.5t62.5 151.5zM422 322h-75l-74 125h-30v-94
l30 -31h-114l31 31v217l-31 31h112q43 0 76 -21t34 -57q1 -21 -15 -39.5t-42 -27.5l63 -100zM243 475h28q21 0 35.5 14.5t14.5 33.5q0 20 -14.5 34.5t-35.5 14.5h-28v-97z" />
    <glyph glyph-name="macron" unicode="&#xaf;" horiz-adv-x="300" 
d="M264 745h-208v58h208v-58z" />
    <glyph glyph-name="degree" unicode="&#xb0;" horiz-adv-x="296" 
d="M262 603q0 -46 -34 -80t-80 -34t-80 33.5t-34 80.5t34 80.5t80 33.5t80 -34t34 -80zM207 603q0 24 -17.5 41.5t-41.5 17.5q-25 0 -42 -17.5t-17 -41.5t17 -41.5t42 -17.5q24 0 41.5 17.5t17.5 41.5z" />
    <glyph glyph-name="twosuperior" unicode="&#xb2;" horiz-adv-x="350" 
d="M309 481h-280v38l153 174q47 53 47 89q0 24 -16 39.5t-43 15.5q-49 0 -109 -67l-25 22q31 42 72 68t80 26q49 0 81.5 -24.5t32.5 -67.5q0 -52 -59 -109l-147 -142h173l40 40v-102z" />
    <glyph glyph-name="threesuperior" unicode="&#xb3;" horiz-adv-x="330" 
d="M289 607q0 -58 -64 -99.5t-180 -41.5h-18v38h18q78 0 122.5 24.5t44.5 68.5q0 28 -26 44.5t-67 18.5q-2 0 -20.5 0.5t-21.5 0.5v28q59 9 92.5 39t33.5 63q0 21 -15 35.5t-42 14.5q-45 0 -97 -42l-23 25q62 60 136 60q49 0 81.5 -23t32.5 -65q0 -30 -24.5 -57.5
t-57.5 -42.5q43 -10 69 -34t26 -55z" />
    <glyph glyph-name="acute" unicode="&#xb4;" horiz-adv-x="262" 
d="M215 803q17 -12 12 -33.5t-22 -29.5l-167 -75l112 112q38 38 65 26z" />
    <glyph glyph-name="mu" unicode="&#xb5;" horiz-adv-x="560" 
d="M183 -13v-131l56 -56h-164v608l-54 54l162 59v-389q0 -29 13.5 -49t41.5 -20q36 0 88 52l49 49v244l-54 54l162 59v-465l56 -56h-164v102l-43 -43q-72 -72 -142 -72h-7z" />
    <glyph glyph-name="mu" unicode="&#x3bc;" horiz-adv-x="560" 
d="M183 -13v-131l56 -56h-164v608l-54 54l162 59v-389q0 -29 13.5 -49t41.5 -20q36 0 88 52l49 49v244l-54 54l162 59v-465l56 -56h-164v102l-43 -43q-72 -72 -142 -72h-7z" />
    <glyph glyph-name="paragraph" unicode="&#xb6;" horiz-adv-x="556" 
d="M514 -200h-135v856h-75v-856h-134l65 65v434q-84 0 -144 60.5t-60 144.5t61.5 144t146.5 60h275l-66 -65v-778z" />
    <glyph glyph-name="periodcentered" unicode="&#xb7;" horiz-adv-x="249" 
d="M184 308q0 -25 -17.5 -42.5t-42.5 -17.5t-42 17.5t-17 42.5t17 42.5t42 17.5t42.5 -17.5t17.5 -42.5z" />
    <glyph glyph-name="cedilla" unicode="&#xb8;" horiz-adv-x="252" 
d="M204 -2l-56 -55q31 -3 53 -22t22 -47q0 -41 -41 -65t-92 -24h-19v28h26q21 0 35 11t14 30q0 18 -14.5 29.5t-33.5 11.5h-43l112 112z" />
    <glyph glyph-name="onesuperior" unicode="&#xb9;" horiz-adv-x="270" 
d="M209 481h-151l40 40v299l-36 35l107 31v-365z" />
    <glyph glyph-name="ordmasculine" unicode="&#xba;" horiz-adv-x="450" 
d="M408 524q0 -80 -52.5 -137.5t-130.5 -57.5t-130.5 57.5t-52.5 137.5q0 81 52.5 138t130.5 57t130.5 -57t52.5 -138zM312 524q0 64 -20 109t-67 45t-67 -45t-20 -109t20 -109t67 -45t67 45t20 109z" />
    <glyph glyph-name="guillemotright" unicode="&#xbb;" horiz-adv-x="459" 
d="M391 304l-180 -176v22l81 154l-81 154v22zM224 304l-169 -164v20l75 144l-75 144v20z" />
    <glyph glyph-name="onequarter" unicode="&#xbc;" horiz-adv-x="789" 
d="M219 311h-151l40 40v299l-36 35l107 31v-365zM547 708l-303 -708h-50l303 708h50zM563 0l40 40v70h-177v21l225 272h23v-253h46v-40h-46v-70l40 -40h-151zM603 290l-116 -140h116v140z" />
    <glyph glyph-name="onehalf" unicode="&#xbd;" horiz-adv-x="785" 
d="M209 311h-151l40 40v299l-36 35l107 31v-365zM529 708l-303 -708h-50l303 708h50zM724 0h-280v38l153 174q47 53 47 89q0 24 -16 39.5t-43 15.5q-49 0 -109 -67l-25 22q31 42 72 68t80 26q49 0 81.5 -24.5t32.5 -67.5q0 -52 -59 -109l-147 -142h173l40 40v-102z" />
    <glyph glyph-name="threequarters" unicode="&#xbe;" horiz-adv-x="849" 
d="M299 437q0 -58 -64 -99.5t-180 -41.5h-18v38h18q78 0 122.5 24.5t44.5 68.5q0 28 -26 44.5t-67 18.5q-2 0 -20.5 0.5t-21.5 0.5v28q59 9 92.5 39t33.5 63q0 21 -15 35.5t-42 14.5q-45 0 -97 -42l-23 25q62 60 136 60q49 0 81.5 -23t32.5 -65q0 -30 -24.5 -57.5
t-57.5 -42.5q43 -10 69 -34t26 -55zM599 708l-303 -708h-50l303 708h50zM613 0l40 40v70h-177v21l225 272h23v-253h46v-40h-46v-70l40 -40h-151zM653 290l-116 -140h116v140z" />
    <glyph glyph-name="questiondown" unicode="&#xbf;" horiz-adv-x="480" 
d="M330 476q0 -23 -16 -39t-38 -16t-38.5 16.5t-16.5 38.5t16.5 38.5t38.5 16.5t38 -16t16 -39zM29 -9q0 78 72 146l161 152v54h43v-136l-83 -79q-40 -38 -57.5 -71t-17.5 -78q0 -58 39 -89t91 -31q35 0 56 8l73 88l71 -120l-140 -26q-52 -9 -86 -9q-116 0 -169 56t-53 135z
" />
    <glyph glyph-name="Agrave" unicode="&#xc0;" horiz-adv-x="605" 
d="M364 765l-167 75q-17 8 -22 29.5t12 33.5q27 12 65 -26zM615 0h-240l60 60l-45 140h-233l-47 -140l60 -60h-190l62 62l225 646h66l220 -646zM370 258l-94 288l-99 -288h193z" />
    <glyph glyph-name="Aacute" unicode="&#xc1;" horiz-adv-x="605" 
d="M395 903q17 -12 12 -33.5t-22 -29.5l-167 -75l112 112q38 38 65 26zM615 0h-240l60 60l-45 140h-233l-47 -140l60 -60h-190l62 62l225 646h66l220 -646zM370 258l-94 288l-99 -288h193z" />
    <glyph glyph-name="Acircumflex" unicode="&#xc2;" horiz-adv-x="605" 
d="M463 776h-22l-137 78l-137 -78h-22l159 159zM615 0h-240l60 60l-45 140h-233l-47 -140l60 -60h-190l62 62l225 646h66l220 -646zM370 258l-94 288l-99 -288h193z" />
    <glyph glyph-name="Atilde" unicode="&#xc3;" horiz-adv-x="605" 
d="M437 865q-10 -40 -35.5 -67t-61.5 -27q-28 0 -62 25.5t-48 25.5q-29 0 -43 -47h-28q11 40 36.5 67t61.5 27q35 0 66 -25.5t44 -25.5q15 0 27 14.5t16 32.5h27zM615 0h-240l60 60l-45 140h-233l-47 -140l60 -60h-190l62 62l225 646h66l220 -646zM370 258l-94 288l-99 -288
h193z" />
    <glyph glyph-name="Adieresis" unicode="&#xc4;" horiz-adv-x="605" 
d="M430 826q0 -19 -14 -33t-33 -14t-33 14t-14 33t14 33t33 14t33 -14t14 -33zM264 827q0 -19 -14 -33t-33 -14t-33 14t-14 33t14 33t33 14t33 -14t14 -33zM615 0h-240l60 60l-45 140h-233l-47 -140l60 -60h-190l62 62l225 646h66l220 -646zM370 258l-94 288l-99 -288h193z
" />
    <glyph glyph-name="Aring" unicode="&#xc5;" horiz-adv-x="605" 
d="M383 854q0 -34 -24.5 -58.5t-58.5 -24.5t-58.5 24.5t-24.5 58.5t24.5 58.5t58.5 24.5t58.5 -24.5t24.5 -58.5zM346 854q0 19 -13.5 32.5t-32.5 13.5t-32.5 -13.5t-13.5 -32.5t13.5 -32.5t32.5 -13.5t32.5 13.5t13.5 32.5zM615 0h-240l60 60l-45 140h-233l-47 -140l60 -60
h-190l62 62l225 646h66l220 -646zM370 258l-94 288l-99 -288h193z" />
    <glyph glyph-name="AE" unicode="&#xc6;" horiz-adv-x="734" 
d="M699 0h-324l60 60l-45 140h-233l-47 -140l60 -60h-190l62 62l225 646h432v-124l-66 66h-280l82 -242h128l61 61v-180l-61 61h-108l100 -292h78l66 66v-124zM370 258l-94 288l-99 -288h193z" />
    <glyph glyph-name="Ccedilla" unicode="&#xc7;" horiz-adv-x="559" 
d="M363 -10l-48 -47q31 -3 53 -22t22 -47q0 -41 -41 -65t-92 -24h-19v28h26q21 0 35 11t14 30q0 18 -14.5 29.5t-33.5 11.5h-43l96 96q-121 12 -197.5 119t-76.5 244q0 146 85 255t216 109q95 0 179 -42v-145l-97 97q-33 34 -82 34q-48 0 -83 -28t-53.5 -75t-26.5 -98
t-8 -107t9 -107t27.5 -98t53.5 -75t81 -28q49 0 82 34l97 97v-146q-62 -38 -161 -41z" />
    <glyph glyph-name="Egrave" unicode="&#xc8;" horiz-adv-x="514" 
d="M479 0h-444l61 61v586l-61 61h444v-139l-81 81h-194v-242h139l61 61v-180l-61 61h-139v-292h194l81 81v-139zM374 765l-167 75q-17 8 -22 29.5t12 33.5q27 12 65 -26z" />
    <glyph glyph-name="Eacute" unicode="&#xc9;" horiz-adv-x="514" 
d="M479 0h-444l61 61v586l-61 61h444v-139l-81 81h-194v-242h139l61 61v-180l-61 61h-139v-292h194l81 81v-139zM395 903q17 -12 12 -33.5t-22 -29.5l-167 -75l112 112q38 38 65 26z" />
    <glyph glyph-name="Ecircumflex" unicode="&#xca;" horiz-adv-x="514" 
d="M479 0h-444l61 61v586l-61 61h444v-139l-81 81h-194v-242h139l61 61v-180l-61 61h-139v-292h194l81 81v-139zM443 776h-22l-137 78l-137 -78h-22l159 159z" />
    <glyph glyph-name="Edieresis" unicode="&#xcb;" horiz-adv-x="514" 
d="M479 0h-444l61 61v586l-61 61h444v-139l-81 81h-194v-242h139l61 61v-180l-61 61h-139v-292h194l81 81v-139zM411 826q0 -19 -14 -33t-33 -14t-33 14t-14 33t14 33t33 14t33 -14t14 -33zM245 827q0 -19 -14 -33t-33 -14t-33 14t-14 33t14 33t33 14t33 -14t14 -33z" />
    <glyph glyph-name="Igrave" unicode="&#xcc;" horiz-adv-x="320" 
d="M275 0h-230l61 61v586l-61 61h230l-61 -61v-586zM239 765l-167 75q-17 8 -22 29.5t12 33.5q27 12 65 -26z" />
    <glyph glyph-name="Iacute" unicode="&#xcd;" horiz-adv-x="320" 
d="M275 0h-230l61 61v586l-61 61h230l-61 -61v-586zM270 903q17 -12 12 -33.5t-22 -29.5l-167 -75l112 112q38 38 65 26z" />
    <glyph glyph-name="Icircumflex" unicode="&#xce;" horiz-adv-x="320" 
d="M275 0h-230l61 61v586l-61 61h230l-61 -61v-586zM318 776h-22l-137 78l-137 -78h-22l159 159z" />
    <glyph glyph-name="Idieresis" unicode="&#xcf;" horiz-adv-x="320" 
d="M275 0h-230l61 61v586l-61 61h230l-61 -61v-586zM292 826q0 -19 -14 -33t-33 -14t-33 14t-14 33t14 33t33 14t33 -14t14 -33zM126 827q0 -19 -14 -33t-33 -14t-33 14t-14 33t14 33t33 14t33 -14t14 -33z" />
    <glyph glyph-name="Eth" unicode="&#xd0;" horiz-adv-x="668" 
d="M204 409h102v-68h-102v-283h96q97 0 146.5 84t49.5 212t-49.5 212t-146.5 84h-96v-241zM96 341h-68v68h68v238l-61 61h265q79 0 142.5 -29.5t102 -80t59 -113t20.5 -131.5t-20.5 -131.5t-59 -113t-102 -80t-142.5 -29.5h-265l61 61v280z" />
    <glyph glyph-name="Ntilde" unicode="&#xd1;" horiz-adv-x="665" 
d="M474 865q-10 -40 -35.5 -67t-61.5 -27q-28 0 -62 25.5t-48 25.5q-29 0 -43 -47h-28q11 40 36.5 67t61.5 27q35 0 66 -25.5t44 -25.5q15 0 27 14.5t16 32.5h27zM635 708l-61 -61v-705l-410 637v-518l61 -61h-190l61 61v586l-61 61h177l294 -461v400l-61 61h190z" />
    <glyph glyph-name="Ograve" unicode="&#xd2;" horiz-adv-x="696" 
d="M652 354q0 -146 -85 -257.5t-219 -111.5t-219 111.5t-85 257.5t85 257.5t219 111.5t219 -111.5t85 -257.5zM424 765l-167 75q-17 8 -22 29.5t12 33.5q27 12 65 -26zM522 354q0 57 -8.5 108.5t-27.5 99t-54.5 75.5t-83.5 28t-83.5 -28t-54.5 -75.5t-27.5 -99t-8.5 -108.5
t8.5 -108.5t27.5 -99t54.5 -75.5t83.5 -28t83.5 28t54.5 75.5t27.5 99t8.5 108.5z" />
    <glyph glyph-name="Oacute" unicode="&#xd3;" horiz-adv-x="696" 
d="M652 354q0 -146 -85 -257.5t-219 -111.5t-219 111.5t-85 257.5t85 257.5t219 111.5t219 -111.5t85 -257.5zM440 903q17 -12 12 -33.5t-22 -29.5l-167 -75l112 112q38 38 65 26zM522 354q0 57 -8.5 108.5t-27.5 99t-54.5 75.5t-83.5 28t-83.5 -28t-54.5 -75.5t-27.5 -99
t-8.5 -108.5t8.5 -108.5t27.5 -99t54.5 -75.5t83.5 -28t83.5 28t54.5 75.5t27.5 99t8.5 108.5z" />
    <glyph glyph-name="Ocircumflex" unicode="&#xd4;" horiz-adv-x="696" 
d="M652 354q0 -146 -85 -257.5t-219 -111.5t-219 111.5t-85 257.5t85 257.5t219 111.5t219 -111.5t85 -257.5zM510 771h-22l-137 78l-137 -78h-22l159 159zM522 354q0 57 -8.5 108.5t-27.5 99t-54.5 75.5t-83.5 28t-83.5 -28t-54.5 -75.5t-27.5 -99t-8.5 -108.5t8.5 -108.5
t27.5 -99t54.5 -75.5t83.5 -28t83.5 28t54.5 75.5t27.5 99t8.5 108.5z" />
    <glyph glyph-name="Otilde" unicode="&#xd5;" horiz-adv-x="696" 
d="M652 354q0 -146 -85 -257.5t-219 -111.5t-219 111.5t-85 257.5t85 257.5t219 111.5t219 -111.5t85 -257.5zM480 865q-10 -40 -35.5 -67t-61.5 -27q-28 0 -62 25.5t-48 25.5q-29 0 -43 -47h-28q11 40 36.5 67t61.5 27q35 0 66 -25.5t44 -25.5q15 0 27 14.5t16 32.5h27z
M522 354q0 57 -8.5 108.5t-27.5 99t-54.5 75.5t-83.5 28t-83.5 -28t-54.5 -75.5t-27.5 -99t-8.5 -108.5t8.5 -108.5t27.5 -99t54.5 -75.5t83.5 -28t83.5 28t54.5 75.5t27.5 99t8.5 108.5z" />
    <glyph glyph-name="Odieresis" unicode="&#xd6;" horiz-adv-x="696" 
d="M652 354q0 -146 -85 -257.5t-219 -111.5t-219 111.5t-85 257.5t85 257.5t219 111.5t219 -111.5t85 -257.5zM477 826q0 -19 -14 -33t-33 -14t-33 14t-14 33t14 33t33 14t33 -14t14 -33zM311 827q0 -19 -14 -33t-33 -14t-33 14t-14 33t14 33t33 14t33 -14t14 -33zM522 354
q0 57 -8.5 108.5t-27.5 99t-54.5 75.5t-83.5 28t-83.5 -28t-54.5 -75.5t-27.5 -99t-8.5 -108.5t8.5 -108.5t27.5 -99t54.5 -75.5t83.5 -28t83.5 28t54.5 75.5t27.5 99t8.5 108.5z" />
    <glyph glyph-name="multiply" unicode="&#xd7;" horiz-adv-x="417" 
d="M353 202l-46 -46l-99 98l-98 -98l-47 46l98 98l-97 98l46 47l98 -98l98 98l46 -47l-97 -98z" />
    <glyph glyph-name="Oslash" unicode="&#xd8;" horiz-adv-x="696" 
d="M652 354q0 -146 -85 -257.5t-219 -111.5q-84 0 -154 49l-47 -84h-55l63 116q-52 52 -81.5 128.5t-29.5 159.5q0 146 85 257.5t219 111.5q85 0 152 -48l46 83h55l-62 -115q54 -51 83.5 -128t29.5 -161zM461 606q-50 59 -113 59q-48 0 -83.5 -28t-54.5 -75.5t-27.5 -99
t-8.5 -108.5q0 -114 33 -199zM522 354q0 117 -34 201l-255 -451q52 -61 115 -61q48 0 83.5 28t54.5 75.5t27.5 99t8.5 108.5z" />
    <glyph glyph-name="Ugrave" unicode="&#xd9;" horiz-adv-x="650" 
d="M620 708l-61 -61v-448q0 -99 -69 -156.5t-165 -57.5t-165 58t-69 156v448l-61 61h230l-61 -61v-448q0 -68 42.5 -109.5t103.5 -41.5t103.5 41.5t42.5 109.5v448l-61 61h190zM394 765l-167 75q-17 8 -22 29.5t12 33.5q27 12 65 -26z" />
    <glyph glyph-name="Uacute" unicode="&#xda;" horiz-adv-x="650" 
d="M620 708l-61 -61v-448q0 -99 -69 -156.5t-165 -57.5t-165 58t-69 156v448l-61 61h230l-61 -61v-448q0 -68 42.5 -109.5t103.5 -41.5t103.5 41.5t42.5 109.5v448l-61 61h190zM440 903q17 -12 12 -33.5t-22 -29.5l-167 -75l112 112q38 38 65 26z" />
    <glyph glyph-name="Ucircumflex" unicode="&#xdb;" horiz-adv-x="650" 
d="M620 708l-61 -61v-448q0 -99 -69 -156.5t-165 -57.5t-165 58t-69 156v448l-61 61h230l-61 -61v-448q0 -68 42.5 -109.5t103.5 -41.5t103.5 41.5t42.5 109.5v448l-61 61h190zM498 776h-22l-137 78l-137 -78h-22l159 159z" />
    <glyph glyph-name="Udieresis" unicode="&#xdc;" horiz-adv-x="650" 
d="M620 708l-61 -61v-448q0 -99 -69 -156.5t-165 -57.5t-165 58t-69 156v448l-61 61h230l-61 -61v-448q0 -68 42.5 -109.5t103.5 -41.5t103.5 41.5t42.5 109.5v448l-61 61h190zM478 831q0 -19 -14 -33t-33 -14t-33 14t-14 33t14 33t33 14t33 -14t14 -33zM312 832
q0 -19 -14 -33t-33 -14t-33 14t-14 33t14 33t33 14t33 -14t14 -33z" />
    <glyph glyph-name="Yacute" unicode="&#xdd;" horiz-adv-x="555" 
d="M418 888q17 -12 12 -34t-22 -29l-167 -75l112 112q38 38 65 26zM572 708l-61 -61l-175 -320v-266l61 -61h-230l61 61v268l-179 317l-62 62h245l-60 -60l137 -249l131 249l-60 60h192z" />
    <glyph glyph-name="Thorn" unicode="&#xde;" horiz-adv-x="615" 
d="M450 359q0 67 -41.5 106.5t-104.5 39.5h-96v-292h96q63 0 104.5 39.5t41.5 106.5zM100 647l-61 61h230l-61 -61v-84h96q108 0 188.5 -52.5t80.5 -151.5t-80.5 -151.5t-188.5 -52.5h-96v-94l61 -61h-230l61 61v586z" />
    <glyph glyph-name="germandbls" unicode="&#xdf;" horiz-adv-x="563" 
d="M523 191q0 -68 -33 -115t-77.5 -65t-95.5 -18q-32 0 -62 8v37q66 0 113 42t47 111q0 66 -46 112t-114 46v33q58 8 91.5 48t33.5 110q0 53 -28 89t-69 36q-54 0 -74.5 -41t-20.5 -114v-510h-174l66 66v394q0 109 52.5 183t156.5 74q81 0 140 -46.5t59 -130.5
q0 -53 -35.5 -103t-87.5 -67q67 -12 112.5 -63.5t45.5 -115.5z" />
    <glyph glyph-name="agrave" unicode="&#xe0;" horiz-adv-x="518" 
d="M349 580l-167 75q-17 8 -22 29.5t12 33.5q27 12 65 -26zM497 0h-164v85l-81 -61q-46 -34 -96 -34q-51 0 -87 38.5t-36 98.5q0 77 61 127.5t143 50.5h96v77q0 41 -24 66t-62 25q-28 0 -46.5 -8.5t-40.5 -30.5l-82 -82v128q27 15 76.5 28t102.5 13q101 0 142.5 -41
t41.5 -98v-326zM333 134v128h-71q-52 0 -86.5 -35.5t-34.5 -89.5q0 -36 18.5 -56.5t45.5 -20.5q31 0 70 30z" />
    <glyph glyph-name="aacute" unicode="&#xe1;" horiz-adv-x="518" 
d="M350 718q17 -12 12 -33.5t-22 -29.5l-167 -75l112 112q38 38 65 26zM497 0h-164v85l-81 -61q-46 -34 -96 -34q-51 0 -87 38.5t-36 98.5q0 77 61 127.5t143 50.5h96v77q0 41 -24 66t-62 25q-28 0 -46.5 -8.5t-40.5 -30.5l-82 -82v128q27 15 76.5 28t102.5 13
q101 0 142.5 -41t41.5 -98v-326zM333 134v128h-71q-52 0 -86.5 -35.5t-34.5 -89.5q0 -36 18.5 -56.5t45.5 -20.5q31 0 70 30z" />
    <glyph glyph-name="acircumflex" unicode="&#xe2;" horiz-adv-x="518" 
d="M428 586h-22l-137 78l-137 -78h-22l159 159zM497 0h-164v85l-81 -61q-46 -34 -96 -34q-51 0 -87 38.5t-36 98.5q0 77 61 127.5t143 50.5h96v77q0 41 -24 66t-62 25q-28 0 -46.5 -8.5t-40.5 -30.5l-82 -82v128q27 15 76.5 28t102.5 13q101 0 142.5 -41t41.5 -98v-326z
M333 134v128h-71q-52 0 -86.5 -35.5t-34.5 -89.5q0 -36 18.5 -56.5t45.5 -20.5q31 0 70 30z" />
    <glyph glyph-name="atilde" unicode="&#xe3;" horiz-adv-x="518" 
d="M409 680q-10 -40 -35.5 -67t-61.5 -27q-28 0 -62 25.5t-48 25.5q-29 0 -43 -47h-28q11 40 36.5 67t61.5 27q35 0 66 -25.5t44 -25.5q15 0 27 14.5t16 32.5h27zM497 0h-164v85l-81 -61q-46 -34 -96 -34q-51 0 -87 38.5t-36 98.5q0 77 61 127.5t143 50.5h96v77q0 41 -24 66
t-62 25q-28 0 -46.5 -8.5t-40.5 -30.5l-82 -82v128q27 15 76.5 28t102.5 13q101 0 142.5 -41t41.5 -98v-326zM333 134v128h-71q-52 0 -86.5 -35.5t-34.5 -89.5q0 -36 18.5 -56.5t45.5 -20.5q31 0 70 30z" />
    <glyph glyph-name="adieresis" unicode="&#xe4;" horiz-adv-x="518" 
d="M391 641q0 -19 -14 -33t-33 -14t-33 14t-14 33t14 33t33 14t33 -14t14 -33zM225 642q0 -19 -14 -33t-33 -14t-33 14t-14 33t14 33t33 14t33 -14t14 -33zM497 0h-164v85l-81 -61q-46 -34 -96 -34q-51 0 -87 38.5t-36 98.5q0 77 61 127.5t143 50.5h96v77q0 41 -24 66
t-62 25q-28 0 -46.5 -8.5t-40.5 -30.5l-82 -82v128q27 15 76.5 28t102.5 13q101 0 142.5 -41t41.5 -98v-326zM333 134v128h-71q-52 0 -86.5 -35.5t-34.5 -89.5q0 -36 18.5 -56.5t45.5 -20.5q31 0 70 30z" />
    <glyph glyph-name="aring" unicode="&#xe5;" horiz-adv-x="518" 
d="M357 670q0 -34 -24.5 -58.5t-58.5 -24.5t-58.5 24.5t-24.5 58.5t24.5 58.5t58.5 24.5t58.5 -24.5t24.5 -58.5zM320 670q0 19 -13.5 32.5t-32.5 13.5t-32.5 -13.5t-13.5 -32.5t13.5 -32.5t32.5 -13.5t32.5 13.5t13.5 32.5zM497 0h-164v85l-81 -61q-46 -34 -96 -34
q-51 0 -87 38.5t-36 98.5q0 77 61 127.5t143 50.5h96v77q0 41 -24 66t-62 25q-28 0 -46.5 -8.5t-40.5 -30.5l-82 -82v128q27 15 76.5 28t102.5 13q101 0 142.5 -41t41.5 -98v-326zM333 134v128h-71q-52 0 -86.5 -35.5t-34.5 -89.5q0 -36 18.5 -56.5t45.5 -20.5q31 0 70 30z
" />
    <glyph glyph-name="ae" unicode="&#xe6;" horiz-adv-x="819" 
d="M561 478q-57 0 -83 -48.5t-26 -118.5h203q12 33 8 70t-32.5 67t-69.5 30zM333 262h-71q-52 0 -86.5 -35.5t-34.5 -89.5q0 -38 19.5 -57.5t44.5 -19.5q31 0 70 30l70 53q-12 37 -12 119zM414 464q65 57 147 57q104 0 170 -76.5t36 -181.5h-315q0 -39 2.5 -68t11.5 -59.5
t24 -50.5t41.5 -32.5t63.5 -12.5q40 0 78 22t60 50l30 -30q-22 -25 -41 -41.5t-63 -35t-96 -18.5q-67 0 -119 32.5t-82 87.5l-110 -83q-44 -34 -96 -34q-51 0 -87 38.5t-36 98.5q0 77 61 127.5t143 50.5h96v77q0 41 -24 66t-62 25q-28 0 -46.5 -8.5t-40.5 -30.5l-82 -82v128
q29 16 79 28.5t100 12.5q112 0 157 -57z" />
    <glyph glyph-name="ccedilla" unicode="&#xe7;" horiz-adv-x="482" 
d="M265 -12q-107 6 -167 82.5t-60 183.5t67 187t172 80q89 0 169 -42v-127l-82 82q-39 39 -93 39q-32 0 -53.5 -18t-32.5 -51t-15 -68.5t-4 -81.5q0 -106 33.5 -159.5t107.5 -53.5q65 0 110 47l31 -31q-66 -62 -137 -69l-46 -45q31 -3 53 -22t22 -47q0 -41 -41 -65t-92 -24
h-19v28h26q21 0 35 11t14 30q0 18 -14.5 29.5t-33.5 11.5h-43z" />
    <glyph glyph-name="egrave" unicode="&#xe8;" horiz-adv-x="532" 
d="M349 580l-167 75q-17 8 -22 29.5t12 33.5q27 12 65 -26zM481 263h-315q0 -39 2.5 -68t11.5 -59.5t24 -50.5t41.5 -32.5t63.5 -12.5q40 0 78 22t60 50l30 -30q-22 -25 -41 -41.5t-63 -35t-96 -18.5q-108 0 -173.5 80t-65.5 185q0 109 68 189t169 80q85 0 149.5 -55.5
t64.5 -142.5q0 -36 -8 -60zM275 478q-57 0 -83 -48.5t-26 -118.5h203q12 33 8 70t-32.5 67t-69.5 30z" />
    <glyph glyph-name="eacute" unicode="&#xe9;" horiz-adv-x="532" 
d="M380 718q17 -12 12 -33.5t-22 -29.5l-167 -75l112 112q38 38 65 26zM481 263h-315q0 -39 2.5 -68t11.5 -59.5t24 -50.5t41.5 -32.5t63.5 -12.5q40 0 78 22t60 50l30 -30q-22 -25 -41 -41.5t-63 -35t-96 -18.5q-108 0 -173.5 80t-65.5 185q0 109 68 189t169 80
q85 0 149.5 -55.5t64.5 -142.5q0 -36 -8 -60zM275 478q-57 0 -83 -48.5t-26 -118.5h203q12 33 8 70t-32.5 67t-69.5 30z" />
    <glyph glyph-name="ecircumflex" unicode="&#xea;" horiz-adv-x="532" 
d="M438 586h-22l-137 78l-137 -78h-22l159 159zM481 263h-315q0 -39 2.5 -68t11.5 -59.5t24 -50.5t41.5 -32.5t63.5 -12.5q40 0 78 22t60 50l30 -30q-22 -25 -41 -41.5t-63 -35t-96 -18.5q-108 0 -173.5 80t-65.5 185q0 109 68 189t169 80q85 0 149.5 -55.5t64.5 -142.5
q0 -36 -8 -60zM275 478q-57 0 -83 -48.5t-26 -118.5h203q12 33 8 70t-32.5 67t-69.5 30z" />
    <glyph glyph-name="edieresis" unicode="&#xeb;" horiz-adv-x="532" 
d="M411 641q0 -19 -14 -33t-33 -14t-33 14t-14 33t14 33t33 14t33 -14t14 -33zM245 642q0 -19 -14 -33t-33 -14t-33 14t-14 33t14 33t33 14t33 -14t14 -33zM481 263h-315q0 -39 2.5 -68t11.5 -59.5t24 -50.5t41.5 -32.5t63.5 -12.5q40 0 78 22t60 50l30 -30
q-22 -25 -41 -41.5t-63 -35t-96 -18.5q-108 0 -173.5 80t-65.5 185q0 109 68 189t169 80q85 0 149.5 -55.5t64.5 -142.5q0 -36 -8 -60zM275 478q-57 0 -83 -48.5t-26 -118.5h203q12 33 8 70t-32.5 67t-69.5 30z" />
    <glyph glyph-name="igrave" unicode="&#xec;" horiz-adv-x="288" 
d="M260 0h-220l56 56v352l-54 54l162 59v-465zM225 580l-167 75q-17 8 -22 29.5t12 33.5q27 12 65 -26z" />
    <glyph glyph-name="iacute" unicode="&#xed;" horiz-adv-x="288" 
d="M255 0h-220l56 56v352l-54 54l162 59v-465zM252 718q17 -12 12 -33.5t-22 -29.5l-167 -75l112 112q38 38 65 26z" />
    <glyph glyph-name="icircumflex" unicode="&#xee;" horiz-adv-x="288" 
d="M255 0h-220l56 56v352l-54 54l162 59v-465zM305 586h-22l-137 78l-137 -78h-22l159 159z" />
    <glyph glyph-name="idieresis" unicode="&#xef;" horiz-adv-x="288" 
d="M255 0h-220l56 56v352l-54 54l162 59v-465zM276 641q0 -19 -14 -33t-33 -14t-33 14t-14 33t14 33t33 14t33 -14t14 -33zM110 642q0 -19 -14 -33t-33 -14t-33 14t-14 33t14 33t33 14t33 -14t14 -33z" />
    <glyph glyph-name="eth" unicode="&#xf0;" horiz-adv-x="584" 
d="M319 614l-151 -58l-12 43l128 49q-42 37 -92 58l13 33q80 -23 144 -65l127 49l12 -43l-98 -38q153 -132 153 -368q0 -125 -71.5 -206t-179.5 -81q-107 0 -179 78.5t-72 188.5t72 188.5t179 78.5q32 0 63.5 -13.5t50.5 -32.5q-32 78 -87 139zM418 254q0 57 -10.5 104.5
t-40 83.5t-75.5 36t-75.5 -36t-40 -83.5t-10.5 -104.5t10.5 -104.5t40 -83.5t75.5 -36t75.5 36t40 83.5t10.5 104.5z" />
    <glyph glyph-name="ntilde" unicode="&#xf1;" horiz-adv-x="578" 
d="M436 680q-10 -40 -35.5 -67t-61.5 -27q-28 0 -62 25.5t-48 25.5q-29 0 -43 -47h-28q11 40 36.5 67t61.5 27q35 0 66 -25.5t44 -25.5q15 0 27 14.5t16 32.5h27zM557 0h-164v374q0 29 -15 50t-45 21q-43 0 -96 -54l-49 -49v-286l56 -56h-220l56 56v352l-54 54l162 59v-117
l43 43q76 74 148 74q48 0 85 -31.5t37 -90.5v-343z" />
    <glyph glyph-name="ograve" unicode="&#xf2;" horiz-adv-x="584" 
d="M369 580l-167 75q-17 8 -22 29.5t12 33.5q27 12 65 -26zM543 254q0 -110 -72 -188.5t-179 -78.5t-179 78.5t-72 188.5t72 188.5t179 78.5t179 -78.5t72 -188.5zM418 254q0 57 -10.5 104.5t-40 83.5t-75.5 36t-75.5 -36t-40 -83.5t-10.5 -104.5t10.5 -104.5t40 -83.5
t75.5 -36t75.5 36t40 83.5t10.5 104.5z" />
    <glyph glyph-name="oacute" unicode="&#xf3;" horiz-adv-x="584" 
d="M390 718q17 -12 12 -33.5t-22 -29.5l-167 -75l112 112q38 38 65 26zM543 254q0 -110 -72 -188.5t-179 -78.5t-179 78.5t-72 188.5t72 188.5t179 78.5t179 -78.5t72 -188.5zM418 254q0 57 -10.5 104.5t-40 83.5t-75.5 36t-75.5 -36t-40 -83.5t-10.5 -104.5t10.5 -104.5
t40 -83.5t75.5 -36t75.5 36t40 83.5t10.5 104.5z" />
    <glyph glyph-name="ocircumflex" unicode="&#xf4;" horiz-adv-x="584" 
d="M450 586h-22l-137 78l-137 -78h-22l159 159zM543 254q0 -110 -72 -188.5t-179 -78.5t-179 78.5t-72 188.5t72 188.5t179 78.5t179 -78.5t72 -188.5zM418 254q0 57 -10.5 104.5t-40 83.5t-75.5 36t-75.5 -36t-40 -83.5t-10.5 -104.5t10.5 -104.5t40 -83.5t75.5 -36
t75.5 36t40 83.5t10.5 104.5z" />
    <glyph glyph-name="otilde" unicode="&#xf5;" horiz-adv-x="584" 
d="M429 680q-10 -40 -35.5 -67t-61.5 -27q-28 0 -62 25.5t-48 25.5q-29 0 -43 -47h-28q11 40 36.5 67t61.5 27q35 0 66 -25.5t44 -25.5q15 0 27 14.5t16 32.5h27zM543 254q0 -110 -72 -188.5t-179 -78.5t-179 78.5t-72 188.5t72 188.5t179 78.5t179 -78.5t72 -188.5z
M418 254q0 57 -10.5 104.5t-40 83.5t-75.5 36t-75.5 -36t-40 -83.5t-10.5 -104.5t10.5 -104.5t40 -83.5t75.5 -36t75.5 36t40 83.5t10.5 104.5z" />
    <glyph glyph-name="odieresis" unicode="&#xf6;" horiz-adv-x="584" 
d="M427 641q0 -19 -14 -33t-33 -14t-33 14t-14 33t14 33t33 14t33 -14t14 -33zM261 642q0 -19 -14 -33t-33 -14t-33 14t-14 33t14 33t33 14t33 -14t14 -33zM543 254q0 -110 -72 -188.5t-179 -78.5t-179 78.5t-72 188.5t72 188.5t179 78.5t179 -78.5t72 -188.5zM418 254
q0 57 -10.5 104.5t-40 83.5t-75.5 36t-75.5 -36t-40 -83.5t-10.5 -104.5t10.5 -104.5t40 -83.5t75.5 -36t75.5 36t40 83.5t10.5 104.5z" />
    <glyph glyph-name="divide" unicode="&#xf7;" horiz-adv-x="398" 
d="M347 265h-298v68h298v-68zM247 424q0 -20 -14.5 -34.5t-34.5 -14.5t-34 14.5t-14 34.5t14 34.5t34 14.5t34.5 -14.5t14.5 -34.5zM247 174q0 -20 -14.5 -34.5t-34.5 -14.5t-34 14.5t-14 34.5t14 34.5t34 14.5t34.5 -14.5t14.5 -34.5z" />
    <glyph glyph-name="oslash" unicode="&#xf8;" horiz-adv-x="584" 
d="M395 394l-183 -324q32 -40 80 -40q46 0 75.5 36t40 83.5t10.5 104.5q0 85 -23 140zM186 120l181 324q-31 34 -75 34q-46 0 -75.5 -36t-40 -83.5t-10.5 -104.5q0 -75 20 -134zM141 39q-47 38 -73.5 94.5t-26.5 120.5q0 110 72 188.5t179 78.5q56 0 105 -23l33 60h58
l-49 -86q49 -37 76.5 -94.5t27.5 -123.5q0 -110 -72 -188.5t-179 -78.5q-58 0 -112 27l-36 -64h-53z" />
    <glyph glyph-name="ugrave" unicode="&#xf9;" horiz-adv-x="560" 
d="M361 575l-167 75q-17 8 -22 29.5t12 33.5q27 12 65 -26zM21 462l162 59v-389q0 -29 13.5 -49t41.5 -20q36 0 88 52l49 49v244l-54 54l162 59v-465l56 -56h-164v102l-43 -43q-72 -72 -142 -72q-42 0 -78.5 31t-36.5 89v301z" />
    <glyph glyph-name="uacute" unicode="&#xfa;" horiz-adv-x="560" 
d="M392 713q17 -12 12 -33.5t-22 -29.5l-167 -75l112 112q38 38 65 26zM21 462l162 59v-389q0 -29 13.5 -49t41.5 -20q36 0 88 52l49 49v244l-54 54l162 59v-465l56 -56h-164v102l-43 -43q-72 -72 -142 -72q-42 0 -78.5 31t-36.5 89v301z" />
    <glyph glyph-name="ucircumflex" unicode="&#xfb;" horiz-adv-x="560" 
d="M449 586h-22l-137 78l-137 -78h-22l159 159zM21 462l162 59v-389q0 -29 13.5 -49t41.5 -20q36 0 88 52l49 49v244l-54 54l162 59v-465l56 -56h-164v102l-43 -43q-72 -72 -142 -72q-42 0 -78.5 31t-36.5 89v301z" />
    <glyph glyph-name="udieresis" unicode="&#xfc;" horiz-adv-x="560" 
d="M416 641q0 -19 -14 -33t-33 -14t-33 14t-14 33t14 33t33 14t33 -14t14 -33zM250 642q0 -19 -14 -33t-33 -14t-33 14t-14 33t14 33t33 14t33 -14t14 -33zM21 462l162 59v-389q0 -29 13.5 -49t41.5 -20q36 0 88 52l49 49v244l-54 54l162 59v-465l56 -56h-164v102l-43 -43
q-72 -72 -142 -72q-42 0 -78.5 31t-36.5 89v301z" />
    <glyph glyph-name="yacute" unicode="&#xfd;" horiz-adv-x="504" 
d="M522 508l-57 -57l-232 -596l55 -55h-202l83 56l57 148l-181 448l-56 56h225l-55 -55l122 -309l121 309l-55 55h175zM388 746q17 -12 12 -33.5t-22 -29.5l-167 -75l112 112q38 38 65 26z" />
    <glyph glyph-name="thorn" unicode="&#xfe;" horiz-adv-x="578" 
d="M80 647l-54 54l162 59v-319q58 80 152 80q83 0 138 -75.5t55 -191.5q0 -122 -54.5 -194.5t-138.5 -72.5q-97 0 -152 79v-210l56 -56h-220l56 56v791zM412 254q0 206 -113 206q-33 0 -63 -22t-48 -60v-248q18 -38 48 -60t63 -22q113 0 113 206z" />
    <glyph glyph-name="ydieresis" unicode="&#xff;" horiz-adv-x="504" 
d="M522 508l-57 -57l-232 -596l55 -55h-202l83 56l57 148l-181 448l-56 56h225l-55 -55l122 -309l121 309l-55 55h175zM411 641q0 -19 -14 -33t-33 -14t-33 14t-14 33t14 33t33 14t33 -14t14 -33zM245 642q0 -19 -14 -33t-33 -14t-33 14t-14 33t14 33t33 14t33 -14t14 -33z
" />
    <glyph glyph-name="dotlessi" unicode="&#x131;" horiz-adv-x="288" 
d="M255 0h-220l56 56v352l-54 54l162 59v-465z" />
    <glyph glyph-name="Lslash" unicode="&#x141;" horiz-adv-x="474" 
d="M208 401v-343h169l81 81v-139h-419l61 61v244l-70 -62v64l70 62v278l-61 61h230l-61 -61v-182l80 71v-64z" />
    <glyph glyph-name="lslash" unicode="&#x142;" horiz-adv-x="290" 
d="M203 430v-374l56 -56h-220l56 56v278l-79 -70v64l79 70v254l-54 54l162 54v-266l71 63v-64z" />
    <glyph glyph-name="OE" unicode="&#x152;" horiz-adv-x="937" 
d="M902 0h-383v62q-42 -39 -81 -58t-90 -19q-135 0 -219.5 110.5t-84.5 258.5t84.5 258.5t219.5 110.5q90 0 171 -75v60h383v-124l-66 66h-209v-242h139l61 61v-180l-61 61h-139v-292h209l66 66v-124zM522 354q0 57 -8.5 108.5t-27.5 99t-54.5 75.5t-83.5 28t-83.5 -28
t-54.5 -75.5t-27.5 -99t-8.5 -108.5t8.5 -108.5t27.5 -99t54.5 -75.5t83.5 -28t83.5 28t54.5 75.5t27.5 99t8.5 108.5z" />
    <glyph glyph-name="oe" unicode="&#x153;" horiz-adv-x="908" 
d="M650 478q-57 0 -83 -48.5t-26 -118.5h203q12 33 8 70t-32.5 67t-69.5 30zM476 70q-75 -83 -184 -83q-107 0 -179 78.5t-72 188.5t72 188.5t179 78.5q111 0 185 -84q69 84 173 84t170 -76.5t36 -181.5h-315q0 -39 2.5 -68t11.5 -59.5t24 -50.5t41.5 -32.5t63.5 -12.5
q40 0 78 22t60 50l30 -30q-22 -25 -41 -41.5t-63 -35t-96 -18.5q-108 0 -176 83zM418 254q0 57 -10.5 104.5t-40 83.5t-75.5 36t-75.5 -36t-40 -83.5t-10.5 -104.5t10.5 -104.5t40 -83.5t75.5 -36t75.5 36t40 83.5t10.5 104.5z" />
    <glyph glyph-name="Scaron" unicode="&#x160;" horiz-adv-x="491" 
d="M408 909l-159 -159l-159 159h22l137 -78l137 78h22zM452 212q0 -93 -58 -156.5t-171 -63.5q-34 0 -62 5l-147 26l71 130l78 -98q24 -15 68 -15q43 0 72.5 23t39.5 49.5t10 52.5q0 62 -64 104l-145 95q-95 62 -95 162q0 90 61 140t141 50q29 0 88 -11l108 -20l-71 -120
l-64 78q-23 21 -55 21q-48 0 -77.5 -30.5t-29.5 -67.5q0 -62 73 -111l125 -83q104 -70 104 -160z" />
    <glyph glyph-name="scaron" unicode="&#x161;" horiz-adv-x="425" 
d="M376 733l-159 -159l-159 159h22l137 -78l137 78h22zM390 148q0 -63 -49.5 -112t-131.5 -49q-25 0 -49 6l-146 36l77 99l73 -88q18 -13 48 -13q36 0 60.5 22t24.5 57q0 45 -48 72l-106 60q-50 28 -74 57.5t-24 71.5q0 62 46 108t123 46q24 0 47 -6l135 -36l-71 -94l-62 76
q-21 19 -50 19q-30 0 -51 -19.5t-21 -49.5q0 -36 55 -70l101 -61q47 -28 70 -57.5t23 -74.5z" />
    <glyph glyph-name="Ydieresis" unicode="&#x178;" horiz-adv-x="555" 
d="M435 824q0 -19 -14 -33t-33 -14t-33 14t-14 33t14 33t33 14t33 -14t14 -33zM269 825q0 -19 -14 -33t-33 -14t-33 14t-14 33t14 33t33 14t33 -14t14 -33zM572 708l-61 -61l-175 -320v-266l61 -61h-230l61 61v268l-179 317l-62 62h245l-60 -60l137 -249l131 249l-60 60h192
z" />
    <glyph glyph-name="Zcaron" unicode="&#x17d;" horiz-adv-x="503" 
d="M424 909l-159 -159l-159 159h22l137 -78l137 78h22zM478 708l-317 -650h228l81 81v-139h-455l319 650h-211l-81 -81v139h436z" />
    <glyph glyph-name="zcaron" unicode="&#x17e;" horiz-adv-x="430" 
d="M382 711l-159 -159l-159 159h22l137 -78l137 78h22zM408 508l-253 -460h154l81 81v-129h-376l253 460h-144l-81 -81v129h366z" />
    <glyph glyph-name="florin" unicode="&#x192;" horiz-adv-x="350" 
d="M214 460v-476q0 -80 -47 -132t-102 -52h-163l83 110l67 -67q54 21 54 74v543h-65v48h65v58q0 81 47 132.5t103 51.5h162l-83 -110l-67 67q-24 -8 -39 -28.5t-15 -45.5v-125h125v-48h-125z" />
    <glyph glyph-name="hsuperior" unicode="&#x2b0;" horiz-adv-x="356" 
d="M347 311h-113v204q0 42 -29 42q-24 0 -53 -26l-28 -26v-152l42 -42h-155l42 42v311l-38 38l109 37v-191l19 19q39 39 84 39q37 0 58 -22.5t21 -61.5v-169z" />
    <glyph glyph-name="jsuperior" unicode="&#x2b2;" horiz-adv-x="197" 
d="M107 712q15 0 25.5 -11t10.5 -26t-10.5 -25.5t-25.5 -10.5t-25.5 10.5t-10.5 25.5t10.5 26t25.5 11zM145 304q0 -43 -29.5 -73t-69.5 -30h-100l59 69l41 -35q27 9 27 36v260l-38 38l110 39v-304z" />
    <glyph glyph-name="wsuperior" unicode="&#x2b7;" horiz-adv-x="477" 
d="M485 598l-45 -42l-92 -245h-39l-69 183l-69 -183h-39l-93 245l-44 42h162l-40 -39l49 -152l55 152l-40 39h152l-40 -39l50 -152l53 152l-40 39h129z" />
    <glyph glyph-name="ysuperior" unicode="&#x2b8;" horiz-adv-x="326" 
d="M334 598l-43 -41l-137 -317l40 -39h-150l63 42l32 74l-100 239l-45 42h160l-40 -39l63 -157l67 157l-40 39h130z" />
    <glyph glyph-name="circumflex" unicode="&#x2c6;" horiz-adv-x="400" 
d="M368 646h-22l-137 78l-137 -78h-22l159 159z" />
    <glyph glyph-name="caron" unicode="&#x2c7;" horiz-adv-x="398" 
d="M368 803l-159 -159l-159 159h22l137 -78l137 78h22z" />
    <glyph glyph-name="breve" unicode="&#x2d8;" horiz-adv-x="360" 
d="M324 799q0 -57 -39 -98t-95 -41t-95 41t-39 98v4h17l1 -2q31 -78 116 -78t116 78l1 2h17v-4z" />
    <glyph glyph-name="dotaccent" unicode="&#x2d9;" horiz-adv-x="218" 
d="M172 750q0 -22 -15.5 -37.5t-37.5 -15.5t-37.5 15.5t-15.5 37.5t15.5 37.5t37.5 15.5t37.5 -15.5t15.5 -37.5z" />
    <glyph glyph-name="ring" unicode="&#x2da;" horiz-adv-x="258" 
d="M222 720q0 -34 -24.5 -58.5t-58.5 -24.5t-58.5 24.5t-24.5 58.5t24.5 58.5t58.5 24.5t58.5 -24.5t24.5 -58.5zM185 720q0 19 -13.5 32.5t-32.5 13.5t-32.5 -13.5t-13.5 -32.5t13.5 -32.5t32.5 -13.5t32.5 13.5t13.5 32.5z" />
    <glyph glyph-name="ogonek" unicode="&#x2db;" horiz-adv-x="256" 
d="M220 -86q-4 -32 -28 -50.5t-57 -18.5q-34 0 -56.5 24.5t-22.5 59.5q0 44 38.5 72.5t79.5 15.5l4 -1l-5 -16h-3q-21 0 -38.5 -17.5t-17.5 -37.5q0 -23 12.5 -35t33.5 -12q34 0 46 28l3 7l11 -18v-1z" />
    <glyph glyph-name="tilde" unicode="&#x2dc;" horiz-adv-x="350" 
d="M314 810q-9 -38 -39.5 -66t-67.5 -28q-28 0 -52 25.5t-38 25.5q-16 0 -32 -15.5t-21 -31.5h-28q10 38 40.5 66t67.5 28q27 0 42 -13t25 -25.5t23 -12.5q16 0 32.5 15.5t20.5 31.5h27z" />
    <glyph glyph-name="hungarumlaut" unicode="&#x2dd;" horiz-adv-x="384" 
d="M342 808q17 -12 12 -33.5t-22 -29.5l-167 -75l112 112q38 38 65 26zM217 808q17 -12 12 -33.5t-22 -29.5l-167 -75l112 112q38 38 65 26z" />
    <glyph glyph-name="xsuperior" unicode="&#x2e3;" horiz-adv-x="332" 
d="M331 311h-163l39 39l-53 66l-58 -67l37 -38h-131l43 42l85 97l-82 108l-44 40h164l-38 -38l49 -63l55 64l-37 37h132l-44 -41l-83 -94l86 -110z" />
    <glyph glyph-name="endash" unicode="&#x2013;" horiz-adv-x="659" 
d="M620 270h-581v58h581v-58z" />
    <glyph glyph-name="emdash" unicode="&#x2014;" horiz-adv-x="789" 
d="M790 270h-791v58h791v-58z" />
    <glyph glyph-name="quoteleft" unicode="&#x2018;" horiz-adv-x="237" 
d="M176 755v-218q0 -22 -15.5 -37t-38.5 -15q-30 0 -46.5 24.5t-4.5 47.5z" />
    <glyph glyph-name="quoteright" unicode="&#x2019;" horiz-adv-x="237" 
d="M178 678l-105 -198v218q0 23 15.5 39t38.5 16q29 0 46 -25.5t5 -49.5z" />
    <glyph glyph-name="quotesinglbase" unicode="&#x201a;" horiz-adv-x="237" 
d="M178 33l-105 -198v218q0 23 15.5 39t38.5 16q29 0 46 -25.5t5 -49.5z" />
    <glyph glyph-name="quotedblleft" unicode="&#x201c;" horiz-adv-x="407" 
d="M346 758v-218q0 -23 -15.5 -39t-38.5 -16q-29 0 -46 26t-5 49zM176 755v-218q0 -22 -15.5 -37t-38.5 -15q-30 0 -46.5 24.5t-4.5 47.5z" />
    <glyph glyph-name="quotedblright" unicode="&#x201d;" horiz-adv-x="407" 
d="M348 681l-105 -198v218q0 22 15.5 37t38.5 15q30 0 46 -24t5 -48zM178 678l-105 -198v218q0 23 15.5 39t38.5 16q29 0 46 -25.5t5 -49.5z" />
    <glyph glyph-name="quotedblbase" unicode="&#x201e;" horiz-adv-x="407" 
d="M345 33l-105 -198v218q0 23 15.5 39t38.5 16q29 0 46 -25.5t5 -49.5zM175 33l-105 -198v218q0 23 15.5 39t38.5 16q29 0 46 -25.5t5 -49.5z" />
    <glyph glyph-name="dagger" unicode="&#x2020;" horiz-adv-x="406" 
d="M384 309l-66 65h-77v-574h-76v574h-77l-66 -65v204l66 -66h77v196l-65 65h206l-65 -65v-196h77l66 66v-204z" />
    <glyph glyph-name="daggerdbl" unicode="&#x2021;" horiz-adv-x="406" 
d="M241 203h77l66 66v-204l-66 65h-77v-330h-76v330h-77l-66 -65v204l66 -66h77v171h-77l-66 -65v204l66 -66h77v196l-65 65h206l-65 -65v-196h77l66 66v-204l-66 65h-77v-171z" />
    <glyph glyph-name="bullet" unicode="&#x2022;" horiz-adv-x="348" 
d="M278 354q0 -43 -30.5 -73.5t-73.5 -30.5t-73.5 30.5t-30.5 73.5t30.5 73.5t73.5 30.5t73.5 -30.5t30.5 -73.5z" />
    <glyph glyph-name="ellipsis" unicode="&#x2026;" horiz-adv-x="747" 
d="M184 50q0 -25 -17.5 -42.5t-42.5 -17.5t-42 17.5t-17 42.5t17 42.5t42 17.5t42.5 -17.5t17.5 -42.5zM433 50q0 -25 -17.5 -42.5t-42.5 -17.5t-42 17.5t-17 42.5t17 42.5t42 17.5t42.5 -17.5t17.5 -42.5zM682 50q0 -25 -17.5 -42.5t-42.5 -17.5t-42 17.5t-17 42.5t17 42.5
t42 17.5t42.5 -17.5t17.5 -42.5z" />
    <glyph glyph-name="perthousand" unicode="&#x2030;" horiz-adv-x="850" 
d="M479 594l-350 -540v-54h-43v129l348 536h-192q37 -40 37 -96t-37.5 -97.5t-91.5 -41.5t-91.5 41.5t-37.5 97.5q0 55 38.5 97t90.5 42h329v-114zM829 134q0 -56 -37.5 -97.5t-91.5 -41.5t-91.5 41.5t-37.5 97.5t37.5 97.5t91.5 41.5t91.5 -41.5t37.5 -97.5zM529 134
q0 -56 -37.5 -97.5t-91.5 -41.5t-91.5 41.5t-37.5 97.5t37.5 97.5t91.5 41.5t91.5 -41.5t37.5 -97.5zM761 134q0 45 -14.5 78t-46.5 33t-46.5 -33t-14.5 -78t14.5 -78t46.5 -33t46.5 33t14.5 78zM211 569q0 45 -14.5 78t-46.5 33t-46.5 -33t-14.5 -78t14.5 -78t46.5 -33
t46.5 33t14.5 78zM461 134q0 45 -14.5 78t-46.5 33t-46.5 -33t-14.5 -78t14.5 -78t46.5 -33t46.5 33t14.5 78z" />
    <glyph glyph-name="guilsinglleft" unicode="&#x2039;" horiz-adv-x="303" 
d="M248 129l-180 175l180 176v-22l-80 -154l80 -153v-22z" />
    <glyph glyph-name="guilsinglright" unicode="&#x203a;" horiz-adv-x="303" 
d="M55 480l180 -176l-180 -175v22l80 153l-80 154v22z" />
    <glyph glyph-name="fraction" unicode="&#x2044;" horiz-adv-x="165" 
d="M259 708l-303 -708h-50l303 708h50z" />
    <glyph glyph-name="zerosuperior" unicode="&#x2070;" horiz-adv-x="374" 
d="M329 680q0 -84 -35.5 -145.5t-106.5 -61.5t-106.5 61.5t-35.5 145.5t35.5 145.5t106.5 61.5t106.5 -61.5t35.5 -145.5zM253 680q0 81 -14 125t-52 44t-52 -44t-14 -125q0 -82 14 -125.5t52 -43.5t52 43.5t14 125.5z" />
    <glyph glyph-name="foursuperior" unicode="&#x2074;" horiz-adv-x="354" 
d="M158 481l40 40v70h-177v21l225 272h23v-253h46v-40h-46v-70l40 -40h-151zM198 771l-116 -140h116v140z" />
    <glyph glyph-name="fivesuperior" unicode="&#x2075;" horiz-adv-x="348" 
d="M305 611q0 -65 -72 -105t-167 -40h-17v37h17q71 0 116 26.5t45 69.5q0 60 -81 60q-20 0 -42.5 -4t-35.5 -8l-13 -4v235h247l-31 -67h-178v-112q36 12 83 12q52 0 90.5 -25.5t38.5 -74.5z" />
    <glyph glyph-name="sixsuperior" unicode="&#x2076;" horiz-adv-x="358" 
d="M327 606q0 -56 -42.5 -93.5t-98.5 -37.5q-67 0 -109 42.5t-42 119.5q0 95 68 170t175 80l11 -28q-69 -7 -114 -53.5t-56 -105.5q35 32 83 32q55 0 90 -36.5t35 -89.5zM109 628q0 -54 19.5 -87t57.5 -33q29 0 46 27t17 66q0 92 -70 92q-19 0 -40 -11.5t-29 -30.5
q-1 -14 -1 -23z" />
    <glyph glyph-name="sevensuperior" unicode="&#x2077;" horiz-adv-x="314" 
d="M298 878l-138 -362v-35h-94l165 330h-152l-41 -41v108h260z" />
    <glyph glyph-name="eightsuperior" unicode="&#x2078;" horiz-adv-x="374" 
d="M334 591q0 -49 -43 -83t-104 -34t-103.5 34t-42.5 83q0 32 19.5 58.5t53.5 41.5q-59 33 -59 88q0 44 39 75.5t93 31.5q55 0 93.5 -31.5t38.5 -75.5q0 -56 -58 -88q33 -14 53 -41t20 -59zM245 779q0 31 -16.5 52.5t-40.5 21.5q-25 0 -41 -21t-16 -53q0 -30 16.5 -51
t40.5 -21t40.5 21.5t16.5 50.5zM258 591q0 35 -20.5 59t-50.5 24t-50.5 -24t-20.5 -59t20.5 -59.5t50.5 -24.5t50.5 24.5t20.5 59.5z" />
    <glyph glyph-name="ninesuperior" unicode="&#x2079;" horiz-adv-x="358" 
d="M323 722q0 -95 -67.5 -170.5t-174.5 -80.5l-11 28q68 6 113 53.5t57 106.5q-35 -32 -84 -32q-54 0 -89.5 36.5t-35.5 89.5q0 56 42.5 93.5t99.5 37.5q67 0 108.5 -42.5t41.5 -119.5zM249 731q0 54 -19.5 87t-56.5 33q-29 0 -46.5 -27t-17.5 -66q0 -21 4 -39t21 -35.5
t45 -17.5q20 0 40.5 11.5t28.5 30.5q1 14 1 23z" />
    <glyph glyph-name="nsuperior" unicode="&#x207f;" horiz-adv-x="371" 
d="M362 311h-114v201q0 45 -36 45q-29 0 -59 -28l-28 -26v-150l42 -42h-155l41 42v178l-38 38l110 39v-62l19 19q42 41 90 41q43 0 64.5 -24t21.5 -64v-165z" />
    <glyph glyph-name="zeroinferior" unicode="&#x2080;" horiz-adv-x="374" 
d="M329 29q0 -84 -35.5 -145.5t-106.5 -61.5t-106.5 61.5t-35.5 145.5t35.5 145.5t106.5 61.5t106.5 -61.5t35.5 -145.5zM253 29q0 81 -14 125t-52 44t-52 -44t-14 -125q0 -82 14 -125.5t52 -43.5t52 43.5t14 125.5z" />
    <glyph glyph-name="oneinferior" unicode="&#x2081;" horiz-adv-x="270" 
d="M209 -170h-151l40 40v299l-36 35l107 31v-365z" />
    <glyph glyph-name="twoinferior" unicode="&#x2082;" horiz-adv-x="350" 
d="M309 -170h-280v38l153 174q47 53 47 89q0 24 -16 39.5t-43 15.5q-49 0 -109 -67l-25 22q31 42 72 68t80 26q49 0 81.5 -24.5t32.5 -67.5q0 -52 -59 -109l-147 -142h173l40 40v-102z" />
    <glyph glyph-name="threeinferior" unicode="&#x2083;" horiz-adv-x="330" 
d="M289 -44q0 -58 -64 -99.5t-180 -41.5h-18v38h18q78 0 122.5 24.5t44.5 68.5q0 28 -26 44.5t-67 18.5q-2 0 -20.5 0.5t-21.5 0.5v28q59 9 92.5 39t33.5 63q0 21 -15 35.5t-42 14.5q-45 0 -97 -42l-23 25q62 60 136 60q49 0 81.5 -23t32.5 -65q0 -30 -24.5 -57.5
t-57.5 -42.5q43 -10 69 -34t26 -55z" />
    <glyph glyph-name="fourinferior" unicode="&#x2084;" horiz-adv-x="354" 
d="M158 -170l40 40v70h-177v21l225 272h23v-253h46v-40h-46v-70l40 -40h-151zM198 120l-116 -140h116v140z" />
    <glyph glyph-name="fiveinferior" unicode="&#x2085;" horiz-adv-x="348" 
d="M305 -40q0 -65 -72 -105t-167 -40h-17v37h17q71 0 116 26.5t45 69.5q0 60 -81 60q-20 0 -42.5 -4t-35.5 -8l-13 -4v235h247l-31 -67h-178v-112q36 12 83 12q52 0 90.5 -25.5t38.5 -74.5z" />
    <glyph glyph-name="sixinferior" unicode="&#x2086;" horiz-adv-x="358" 
d="M327 -45q0 -56 -42.5 -93.5t-98.5 -37.5q-67 0 -109 42.5t-42 119.5q0 95 68 170t175 80l11 -28q-69 -7 -114 -53.5t-56 -105.5q35 32 83 32q55 0 90 -36.5t35 -89.5zM109 -23q0 -54 19.5 -87t57.5 -33q29 0 46 27t17 66q0 92 -70 92q-19 0 -40 -11.5t-29 -30.5
q-1 -14 -1 -23z" />
    <glyph glyph-name="seveninferior" unicode="&#x2087;" horiz-adv-x="314" 
d="M298 227l-138 -362v-35h-94l165 330h-152l-41 -41v108h260z" />
    <glyph glyph-name="eightinferior" unicode="&#x2088;" horiz-adv-x="374" 
d="M334 -60q0 -49 -43 -83t-104 -34t-103.5 34t-42.5 83q0 32 19.5 58.5t53.5 41.5q-59 33 -59 88q0 44 39 75.5t93 31.5q55 0 93.5 -31.5t38.5 -75.5q0 -56 -58 -88q33 -14 53 -41t20 -59zM245 128q0 31 -16.5 52.5t-40.5 21.5q-25 0 -41 -21t-16 -53q0 -30 16.5 -51
t40.5 -21t40.5 21.5t16.5 50.5zM258 -60q0 35 -20.5 59t-50.5 24t-50.5 -24t-20.5 -59t20.5 -59.5t50.5 -24.5t50.5 24.5t20.5 59.5z" />
    <glyph glyph-name="nineinferior" unicode="&#x2089;" horiz-adv-x="358" 
d="M323 71q0 -95 -67.5 -170.5t-174.5 -80.5l-11 28q68 6 113 53.5t57 106.5q-35 -32 -84 -32q-54 0 -89.5 36.5t-35.5 89.5q0 56 42.5 93.5t99.5 37.5q67 0 108.5 -42.5t41.5 -119.5zM249 80q0 54 -19.5 87t-56.5 33q-29 0 -46.5 -27t-17.5 -66q0 -21 4 -39t21 -35.5
t45 -17.5q20 0 40.5 11.5t28.5 30.5q1 14 1 23z" />
    <glyph glyph-name="Euro" unicode="&#x20ac;" horiz-adv-x="547" 
d="M208 297q-1 -10 -1 -30q0 -19 1 -29h214v-52h-207q12 -61 44.5 -100t85.5 -39q43 0 80 33l76 76v-131q-55 -33 -156 -33q-92 0 -159 55t-91 139h-62v52h51q-1 10 -1 29q0 5 0.5 15t0.5 15h-51v52h62q25 83 92.5 138t157.5 55q93 0 156 -34v-130l-78 78q-35 31 -78 31
q-55 0 -87 -38t-44 -100h208v-52h-214z" />
    <glyph glyph-name="trademark" unicode="&#x2122;" horiz-adv-x="862" 
d="M828 313h-162l46 46v244l-112 -194l-116 196v-246l45 -46h-142l45 46v303l-45 46h122l103 -178l103 178h113l-45 -46v-303zM330 605l-57 56h-56v-302l46 -46h-163l46 46v302h-56l-57 -56v103h297v-103z" />
    <glyph glyph-name="onethird" unicode="&#x2153;" horiz-adv-x="765" 
d="M209 311h-151l40 40v299l-36 35l107 31v-365zM529 708l-303 -708h-50l303 708h50zM724 126q0 -58 -64 -99.5t-180 -41.5h-18v38h18q78 0 122.5 24.5t44.5 68.5q0 28 -26 44.5t-67 18.5q-2 0 -20.5 0.5t-21.5 0.5v28q59 9 92.5 39t33.5 63q0 21 -15 35.5t-42 14.5
q-45 0 -97 -42l-23 25q62 60 136 60q49 0 81.5 -23t32.5 -65q0 -30 -24.5 -57.5t-57.5 -42.5q43 -10 69 -34t26 -55z" />
    <glyph glyph-name="twothirds" unicode="&#x2154;" horiz-adv-x="845" 
d="M309 311h-280v38l153 174q47 53 47 89q0 24 -16 39.5t-43 15.5q-49 0 -109 -67l-25 22q31 42 72 68t80 26q49 0 81.5 -24.5t32.5 -67.5q0 -52 -59 -109l-147 -142h173l40 40v-102zM609 708l-303 -708h-50l303 708h50zM804 126q0 -58 -64 -99.5t-180 -41.5h-18v38h18
q78 0 122.5 24.5t44.5 68.5q0 28 -26 44.5t-67 18.5q-2 0 -20.5 0.5t-21.5 0.5v28q59 9 92.5 39t33.5 63q0 21 -15 35.5t-42 14.5q-45 0 -97 -42l-23 25q62 60 136 60q49 0 81.5 -23t32.5 -65q0 -30 -24.5 -57.5t-57.5 -42.5q43 -10 69 -34t26 -55z" />
    <glyph glyph-name="oneeighth" unicode="&#x215b;" horiz-adv-x="809" 
d="M209 311h-151l40 40v299l-36 35l107 31v-365zM529 708l-303 -708h-50l303 708h50zM759 110q0 -49 -43 -83t-104 -34t-103.5 34t-42.5 83q0 32 19.5 58.5t53.5 41.5q-59 33 -59 88q0 44 39 75.5t93 31.5q55 0 93.5 -31.5t38.5 -75.5q0 -56 -58 -88q33 -14 53 -41t20 -59z
M670 298q0 31 -16.5 52.5t-40.5 21.5q-25 0 -41 -21t-16 -53q0 -30 16.5 -51t40.5 -21t40.5 21.5t16.5 50.5zM683 110q0 35 -20.5 59t-50.5 24t-50.5 -24t-20.5 -59t20.5 -59.5t50.5 -24.5t50.5 24.5t20.5 59.5z" />
    <glyph glyph-name="threeeighths" unicode="&#x215c;" horiz-adv-x="869" 
d="M289 437q0 -58 -64 -99.5t-180 -41.5h-18v38h18q78 0 122.5 24.5t44.5 68.5q0 28 -26 44.5t-67 18.5q-2 0 -20.5 0.5t-21.5 0.5v28q59 9 92.5 39t33.5 63q0 21 -15 35.5t-42 14.5q-45 0 -97 -42l-23 25q62 60 136 60q49 0 81.5 -23t32.5 -65q0 -30 -24.5 -57.5
t-57.5 -42.5q43 -10 69 -34t26 -55zM589 708l-303 -708h-50l303 708h50zM819 110q0 -49 -43 -83t-104 -34t-103.5 34t-42.5 83q0 32 19.5 58.5t53.5 41.5q-59 33 -59 88q0 44 39 75.5t93 31.5q55 0 93.5 -31.5t38.5 -75.5q0 -56 -58 -88q33 -14 53 -41t20 -59zM730 298
q0 31 -16.5 52.5t-40.5 21.5q-25 0 -41 -21t-16 -53q0 -30 16.5 -51t40.5 -21t40.5 21.5t16.5 50.5zM743 110q0 35 -20.5 59t-50.5 24t-50.5 -24t-20.5 -59t20.5 -59.5t50.5 -24.5t50.5 24.5t20.5 59.5z" />
    <glyph glyph-name="fiveeighths" unicode="&#x215d;" horiz-adv-x="887" 
d="M305 441q0 -65 -72 -105t-167 -40h-17v37h17q71 0 116 26.5t45 69.5q0 60 -81 60q-20 0 -42.5 -4t-35.5 -8l-13 -4v235h247l-31 -67h-178v-112q36 12 83 12q52 0 90.5 -25.5t38.5 -74.5zM607 708l-303 -708h-50l303 708h50zM837 110q0 -49 -43 -83t-104 -34t-103.5 34
t-42.5 83q0 32 19.5 58.5t53.5 41.5q-59 33 -59 88q0 44 39 75.5t93 31.5q55 0 93.5 -31.5t38.5 -75.5q0 -56 -58 -88q33 -14 53 -41t20 -59zM748 298q0 31 -16.5 52.5t-40.5 21.5q-25 0 -41 -21t-16 -53q0 -30 16.5 -51t40.5 -21t40.5 21.5t16.5 50.5zM761 110
q0 35 -20.5 59t-50.5 24t-50.5 -24t-20.5 -59t20.5 -59.5t50.5 -24.5t50.5 24.5t20.5 59.5z" />
    <glyph glyph-name="seveneighths" unicode="&#x215e;" horiz-adv-x="853" 
d="M323 708l-138 -362v-35h-94l165 330h-152l-41 -41v108h260zM548 708l-303 -708h-50l303 708h50zM778 110q0 -49 -43 -83t-104 -34t-103.5 34t-42.5 83q0 32 19.5 58.5t53.5 41.5q-59 33 -59 88q0 44 39 75.5t93 31.5q55 0 93.5 -31.5t38.5 -75.5q0 -56 -58 -88
q33 -14 53 -41t20 -59zM689 298q0 31 -16.5 52.5t-40.5 21.5q-25 0 -41 -21t-16 -53q0 -30 16.5 -51t40.5 -21t40.5 21.5t16.5 50.5zM702 110q0 35 -20.5 59t-50.5 24t-50.5 -24t-20.5 -59t20.5 -59.5t50.5 -24.5t50.5 24.5t20.5 59.5z" />
    <glyph glyph-name="partialdiff" unicode="&#x2202;" horiz-adv-x="558" 
d="M242 438q91 0 147 -62q-14 75 -36.5 131.5t-44.5 87t-51 51t-47 26t-41.5 10t-26.5 5.5l12 32q85 -2 155 -44t113 -107t66.5 -141.5t23.5 -153.5q0 -127 -64 -205t-181 -78q-90 0 -160 63.5t-70 173.5q0 91 61 151t144 60zM155 214q0 -72 31 -126.5t81 -54.5
q68 0 101 60.5t33 152.5q0 72 -37 105t-85 33q-124 0 -124 -170z" />
    <glyph glyph-name="minus" unicode="&#x2212;" horiz-adv-x="398" 
d="M347 265h-298v68h298v-68z" />
    <glyph glyph-name="pcircle" unicode="&#x24df;" horiz-adv-x="768" 
d="M738 354q0 -146 -104 -250t-250 -104t-250 104t-104 250t104 250t250 104t250 -104t104 -250zM384 48q127 0 216.5 89.5t89.5 216.5t-89.5 216.5t-216.5 89.5t-216.5 -89.5t-89.5 -216.5t89.5 -216.5t216.5 -89.5zM387 307h-41v-126l39 -39h-146l39 39v350l-39 39h148
q77 0 127.5 -38.5t50.5 -94.5t-50.5 -93t-127.5 -37zM346 532v-187h41q47 0 74 28.5t27 63.5q0 36 -27 65.5t-74 29.5h-41z" />
    <glyph glyph-name="Asmall" horiz-adv-x="512" 
d="M156 0h-184l61 60l189 476h64l185 -476l60 -60h-230l57 57l-33 91h-190l-36 -91zM157 203h148l-72 197z" />
    <glyph glyph-name="Bsmall" horiz-adv-x="510" 
d="M28 0l59 59v418l-59 59h215q53 0 97 -13t75 -45.5t31 -81.5q0 -32 -25.5 -66.5t-63.5 -50.5q51 -14 84.5 -53t33.5 -84q-1 -74 -63 -108t-148 -34h-236zM189 295h54q42 0 69 28.5t27 67.5t-26.5 64.5t-69.5 25.5h-54v-186zM368 146q0 40 -29 67t-75 27h-75v-185h75
q46 0 75 25t29 66z" />
    <glyph glyph-name="Csmall" horiz-adv-x="494" 
d="M458 509v-130l-78 78q-31 31 -78 31q-51 0 -83.5 -35t-43.5 -81.5t-11 -103.5q0 -40 7.5 -77t22.5 -70t43 -53t65 -20q20 0 43 9.5t37 23.5l76 76v-131q-55 -33 -156 -33q-114 0 -188 82.5t-74 192.5t74.5 192.5t187.5 82.5q93 0 156 -34z" />
    <glyph glyph-name="Dsmall" horiz-adv-x="587" 
d="M28 0l59 59v418l-59 59h257q114 0 187.5 -80.5t73.5 -187.5t-73.5 -187.5t-187.5 -80.5h-257zM264 55q76 0 117.5 64t41.5 149t-41.5 149t-117.5 64h-75v-426h75z" />
    <glyph glyph-name="Esmall" horiz-adv-x="456" 
d="M420 0h-392l59 59v418l-59 59h392v-126l-71 71h-160v-167h114l54 54v-163l-54 54h-114v-204h160l71 71v-126z" />
    <glyph glyph-name="Fsmall" horiz-adv-x="439" 
d="M28 0l59 59v418l-59 59h392v-126l-71 71h-160v-167h114l54 54v-163l-54 54h-114v-200l59 -59h-220z" />
    <glyph glyph-name="Gsmall" horiz-adv-x="596" 
d="M360 295h220l-59 -59v-203q-3 -1 -17 -8.5t-18 -9t-17.5 -7t-23.5 -7t-26.5 -4t-35.5 -3.5t-43 -1q-124 0 -212 80t-88 195t88 195t212 80q86 0 156 -32v-133l-82 82q-28 28 -74 28q-78 0 -126.5 -67t-48.5 -153t48.5 -153t126.5 -67q48 0 79 22v166z" />
    <glyph glyph-name="Hsmall" horiz-adv-x="591" 
d="M189 59l59 -59h-220l59 59v418l-59 59h220l-59 -59v-163h213v163l-59 59h220l-59 -59v-418l59 -59h-220l59 59v200h-213v-200z" />
    <glyph glyph-name="Ismall" horiz-adv-x="292" 
d="M36 536h220l-59 -59v-418l59 -59h-220l59 59v418z" />
    <glyph glyph-name="Jsmall" horiz-adv-x="292" 
d="M36 536h220l-59 -59v-483q0 -62 -41 -102t-91 -40h-159l90 105l60 -60q39 14 39 48v532z" />
    <glyph glyph-name="Ksmall" horiz-adv-x="545" 
d="M248 0h-220l59 59v418l-59 59h220l-59 -59v-173l207 184l-48 48h185l-256 -225l280 -311h-177v52l-191 211v-204z" />
    <glyph glyph-name="Lsmall" horiz-adv-x="419" 
d="M399 126v-126h-371l59 59v418l-59 59h220l-59 -59v-422h139z" />
    <glyph glyph-name="Msmall" horiz-adv-x="701" 
d="M210 0h-182l59 59v418l-59 59h180l158 -248l157 248h151l-59 -59v-418l59 -59h-220l59 59v364l-180 -282l-179 282v-365z" />
    <glyph glyph-name="Nsmall" horiz-adv-x="577" 
d="M209 0h-181l59 59v418l-59 59h162l240 -333v275l-58 58h180l-58 -58v-536l-343 464v-348z" />
    <glyph glyph-name="Osmall" horiz-adv-x="604" 
d="M302 547q116 0 188.5 -84t72.5 -195t-72.5 -195t-188.5 -84t-189 84t-73 195t73 195t189 84zM302 44q38 0 66 20t43 53.5t21.5 71t6.5 79.5t-6.5 79.5t-21.5 71t-43 53.5t-66 20q-51 0 -83.5 -36t-43.5 -83t-11 -105t11 -105t43.5 -83t83.5 -36z" />
    <glyph glyph-name="Psmall" horiz-adv-x="514" 
d="M28 0l59 59v418l-59 59h226q96 0 163.5 -41.5t68.5 -115.5q-1 -74 -68.5 -115.5t-163.5 -41.5h-65v-163l59 -59h-220zM371 379q0 44 -31.5 73t-85.5 29h-65v-204h65q54 0 85.5 29t31.5 73z" />
    <glyph glyph-name="Qsmall" horiz-adv-x="604" 
d="M577 44l-105 -93l-172 38q-114 0 -187 84.5t-73 194.5q0 111 73 195t189 84t188.5 -84.5t72.5 -194.5q0 -139 -106 -224h120zM439 268q0 42 -6.5 79.5t-21.5 71t-43 53.5t-66 20q-51 0 -83.5 -36t-43.5 -83t-11 -105t11 -105t43.5 -83t83.5 -36q38 0 66 20t43 53.5
t21.5 71t6.5 79.5z" />
    <glyph glyph-name="Rsmall" horiz-adv-x="535" 
d="M548 0h-146l-142 240h-71v-181l59 -59h-220l59 59v418l-59 59h230q89 0 149.5 -40t61.5 -110q0 -42 -30 -76.5t-78 -51.5l121 -192zM189 295h69q46 0 71 26.5t25 64.5q0 40 -24.5 67.5t-71.5 27.5h-69v-186z" />
    <glyph glyph-name="Ssmall" horiz-adv-x="423" 
d="M190 -6q-28 0 -50 3l-132 21l71 116l67 -83q24 -10 51 -10q49 0 73.5 27t24.5 50q0 28 -13 46t-43 36l-117 68q-83 48 -83 126q0 70 53.5 109t122.5 39q31 0 53 -4l127 -20l-72 -108l-60 73q-21 8 -43 8q-38 0 -62 -21t-24 -46q0 -41 61 -77l106 -62q87 -51 87 -129
q0 -62 -51.5 -112t-146.5 -50z" />
    <glyph glyph-name="Tsmall" horiz-adv-x="478" 
d="M349 0h-220l59 59v422h-97l-71 -71v126h438v-126l-71 71h-97v-422z" />
    <glyph glyph-name="Usmall" horiz-adv-x="570" 
d="M82 478l-58 58h218l-58 -58v-314q0 -50 31.5 -83t86.5 -33q53 0 84.5 33t31.5 83v314l-58 58h186l-58 -58v-314q0 -78 -58 -126.5t-145 -48.5t-145 48.5t-58 126.5v314z" />
    <glyph glyph-name="Vsmall" horiz-adv-x="479" 
d="M208 536l-57 -57l109 -326l115 326l-57 57h184l-60 -60l-171 -476h-65l-167 477l-60 59h229z" />
    <glyph glyph-name="Wsmall" horiz-adv-x="773" 
d="M269 0h-63l-167 477l-60 59h225l-57 -57l109 -333l98 280l-17 51l-59 59h222l-57 -57l110 -333l115 333l-57 57h186l-60 -60l-172 -476h-63l-115 327z" />
    <glyph glyph-name="Xsmall" horiz-adv-x="528" 
d="M522 0h-182v54l-92 149l-105 -147l56 -56h-193l61 61l146 197l-142 217l-61 61h182v-54l88 -143l101 141l-56 56h193l-61 -61l-142 -190l146 -224z" />
    <glyph glyph-name="Ysmall" horiz-adv-x="470" 
d="M-21 536h228l-56 -56l107 -173l103 172l-57 57h187l-60 -60l-143 -229v-188l59 -59h-220l59 59v189l-146 227z" />
    <glyph glyph-name="Zsmall" horiz-adv-x="447" 
d="M45 410v126h378l-272 -481h189l71 71v-126h-396l271 481h-170z" />
    <glyph glyph-name="Oslashsmall" horiz-adv-x="604" 
d="M467 486q45 -40 70.5 -98t25.5 -120q0 -111 -72.5 -195t-188.5 -84q-73 0 -132 36l-40 -62h-54l57 90q-44 40 -68.5 97t-24.5 118q0 111 73 195t189 84q68 0 128 -34l39 60h55q-56 -87 -57 -87zM416 406q-205 -318 -206 -318q34 -44 92 -44q38 0 66 20t43 53.5t21.5 71
t6.5 79.5q0 83 -23 138zM185 133l205 318q-33 41 -88 41q-51 0 -83.5 -36t-43.5 -83t-11 -105q0 -79 21 -135z" />
    <glyph glyph-name="AEsmall" horiz-adv-x="631" 
d="M595 536v-126l-71 71h-217l65 -167h106l54 54v-163l-54 54h-84l79 -204h51l71 71v-126h-294l57 57l-33 91h-190l-36 -91l57 -57h-184l61 60l189 476h373zM157 203h148l-72 197z" />
    <glyph glyph-name="OEsmall" horiz-adv-x="808" 
d="M439 499v37h333v-126l-71 71h-160v-167h114l54 54v-163l-54 54h-114v-204h160l71 71v-126h-333v37q-54 -48 -137 -48q-116 0 -189 84t-73 195t73 195t189 84q83 0 137 -48zM302 44q38 0 66 20t43 53.5t21.5 71t6.5 79.5t-6.5 79.5t-21.5 71t-43 53.5t-66 20
q-51 0 -83.5 -36t-43.5 -83t-11 -105t11 -105t43.5 -83t83.5 -36z" />
    <glyph glyph-name="Ethsmall" horiz-adv-x="590" 
d="M21 252v63h68v162l-58 59h256q113 0 187.5 -80.5t74.5 -187.5t-74.5 -187.5t-187.5 -80.5h-256l58 59v193h-68zM248 315v-63h-57v-197h75q76 0 117.5 64t41.5 149t-41.5 149t-117.5 64h-75v-166h57z" />
    <glyph glyph-name="Aacutesmall" horiz-adv-x="512" 
d="M369 672l-167 -75l112 112q38 38 65 26q17 -12 12 -34t-22 -29zM156 0h-184l61 60l189 476h64l185 -476l60 -60h-230l57 57l-33 91h-190l-36 -91zM157 203h148l-72 197z" />
    <glyph glyph-name="Acircumflexsmall" horiz-adv-x="512" 
d="M408 598h-22l-137 73l-137 -73h-22l159 159zM156 0h-184l61 60l189 476h64l185 -476l60 -60h-230l57 57l-33 91h-190l-36 -91zM157 203h148l-72 197z" />
    <glyph glyph-name="Adieresissmall" horiz-adv-x="512" 
d="M381 649q0 -19 -14 -33t-33 -14t-33 14t-14 33t14 33t33 14t33 -14t14 -33zM215 650q0 -19 -14 -33t-33 -14t-33 14t-14 33t14 33t33 14t33 -14t14 -33zM156 0h-184l61 60l189 476h64l185 -476l60 -60h-230l57 57l-33 91h-190l-36 -91zM157 203h148l-72 197z" />
    <glyph glyph-name="Agravesmall" horiz-adv-x="512" 
d="M208 709l112 -112l-167 75q-17 7 -22 29t12 34q27 12 65 -26zM156 0h-184l61 60l189 476h64l185 -476l60 -60h-230l57 57l-33 91h-190l-36 -91zM157 203h148l-72 197z" />
    <glyph glyph-name="Aringsmall" horiz-adv-x="512" 
d="M249 753q34 0 58.5 -24.5t24.5 -58.5t-24.5 -58.5t-58.5 -24.5t-58.5 24.5t-24.5 58.5t24.5 58.5t58.5 24.5zM203 670q0 -19 13.5 -32.5t32.5 -13.5t32.5 13.5t13.5 32.5t-13.5 32.5t-32.5 13.5t-32.5 -13.5t-13.5 -32.5zM156 0h-184l61 60l189 476h64l185 -476l60 -60
h-230l57 57l-33 91h-190l-36 -91zM157 203h148l-72 197z" />
    <glyph glyph-name="Atildesmall" horiz-adv-x="512" 
d="M391 688q-10 -40 -35.5 -67t-61.5 -27q-28 0 -62 25.5t-48 25.5q-29 0 -43 -47h-28q11 40 36.5 67t61.5 27q35 0 66 -25.5t44 -25.5q15 0 27 14.5t16 32.5h27zM156 0h-184l61 60l189 476h64l185 -476l60 -60h-230l57 57l-33 91h-190l-36 -91zM157 203h148l-72 197z" />
    <glyph glyph-name="Ccedillasmall" horiz-adv-x="494" 
d="M328 -6l-51 -51q31 -3 53 -22t22 -47q0 -41 -41 -65t-92 -24h-19v28h26q21 0 35 11t14 30q0 18 -14.5 29.5t-33.5 11.5h-43l99 99q-107 7 -175 88.5t-68 185.5q0 110 74.5 192.5t187.5 82.5q93 0 156 -34v-130l-78 78q-31 31 -78 31q-51 0 -83.5 -35t-43.5 -81.5
t-11 -103.5q0 -40 7.5 -77t22.5 -70t43 -53t65 -20q20 0 43 9.5t37 23.5l76 76v-131q-48 -29 -130 -32z" />
    <glyph glyph-name="Eacutesmall" horiz-adv-x="456" 
d="M420 0h-392l59 59v418l-59 59h392v-126l-71 71h-160v-167h114l54 54v-163l-54 54h-114v-204h160l71 71v-126zM357 676l-167 -75l112 112q38 38 65 26q17 -12 12 -33.5t-22 -29.5z" />
    <glyph glyph-name="Ecircumflexsmall" horiz-adv-x="456" 
d="M420 0h-392l59 59v418l-59 59h392v-126l-71 71h-160v-167h114l54 54v-163l-54 54h-114v-204h160l71 71v-126zM408 598h-22l-137 73l-137 -73h-22l159 159z" />
    <glyph glyph-name="Edieresissmall" horiz-adv-x="456" 
d="M420 0h-392l59 59v418l-59 59h392v-126l-71 71h-160v-167h114l54 54v-163l-54 54h-114v-204h160l71 71v-126zM381 653q0 -19 -14 -33t-33 -14t-33 14t-14 33t14 33t33 14t33 -14t14 -33zM215 654q0 -19 -14 -33t-33 -14t-33 14t-14 33t14 33t33 14t33 -14t14 -33z" />
    <glyph glyph-name="Egravesmall" horiz-adv-x="456" 
d="M420 0h-392l59 59v418l-59 59h392v-126l-71 71h-160v-167h114l54 54v-163l-54 54h-114v-204h160l71 71v-126zM206 711l112 -112l-167 75q-17 8 -22 29.5t12 33.5q27 12 65 -26z" />
    <glyph glyph-name="Iacutesmall" horiz-adv-x="292" 
d="M253 676l-167 -75l112 112q38 38 65 26q17 -12 12 -33.5t-22 -29.5zM36 536h220l-59 -59v-418l59 -59h-220l59 59v418z" />
    <glyph glyph-name="Icircumflexsmall" horiz-adv-x="292" 
d="M36 536h220l-59 -59v-418l59 -59h-220l59 59v418zM302 600h-22l-137 73l-137 -73h-22l159 159z" />
    <glyph glyph-name="Idieresissmall" horiz-adv-x="292" 
d="M36 536h220l-59 -59v-418l59 -59h-220l59 59v418zM276 653q0 -19 -14 -33t-33 -14t-33 14t-14 33t14 33t33 14t33 -14t14 -33zM110 654q0 -19 -14 -33t-33 -14t-33 14t-14 33t14 33t33 14t33 -14t14 -33z" />
    <glyph glyph-name="Igravesmall" horiz-adv-x="292" 
d="M102 711l112 -112l-167 75q-17 8 -22 29.5t12 33.5q27 12 65 -26zM41 536h220l-59 -59v-418l59 -59h-220l59 59v418z" />
    <glyph glyph-name="Lslashsmall" horiz-adv-x="436" 
d="M91 477l-59 59h220l-59 -59v-137l71 64v-65l-71 -63v-221h139l71 71v-126h-371l59 59v127l-55 -49v64l55 49v227z" />
    <glyph glyph-name="Ntildesmall" horiz-adv-x="577" 
d="M447 690q-10 -40 -35.5 -67t-61.5 -27q-28 0 -62 25.5t-48 25.5q-29 0 -43 -47h-28q11 40 36.5 67t61.5 27q35 0 66 -25.5t44 -25.5q15 0 27 14.5t16 32.5h27zM209 0h-181l59 59v418l-59 59h162l240 -333v275l-58 58h180l-58 -58v-536l-343 464v-348z" />
    <glyph glyph-name="Oacutesmall" horiz-adv-x="604" 
d="M302 547q116 0 188.5 -84t72.5 -195t-72.5 -195t-188.5 -84t-189 84t-73 195t73 195t189 84zM302 44q38 0 66 20t43 53.5t21.5 71t6.5 79.5t-6.5 79.5t-21.5 71t-43 53.5t-66 20q-51 0 -83.5 -36t-43.5 -83t-11 -105t11 -105t43.5 -83t83.5 -36zM405 676l-167 -75
l112 112q38 38 65 26q17 -12 12 -34t-22 -29z" />
    <glyph glyph-name="Ocircumflexsmall" horiz-adv-x="604" 
d="M302 547q116 0 188.5 -84t72.5 -195t-72.5 -195t-188.5 -84t-189 84t-73 195t73 195t189 84zM302 44q38 0 66 20t43 53.5t21.5 71t6.5 79.5t-6.5 79.5t-21.5 71t-43 53.5t-66 20q-51 0 -83.5 -36t-43.5 -83t-11 -105t11 -105t43.5 -83t83.5 -36zM461 598h-22l-137 73
l-137 -73h-22l159 159z" />
    <glyph glyph-name="Odieresissmall" horiz-adv-x="604" 
d="M302 547q116 0 188.5 -84t72.5 -195t-72.5 -195t-188.5 -84t-189 84t-73 195t73 195t189 84zM302 44q38 0 66 20t43 53.5t21.5 71t6.5 79.5t-6.5 79.5t-21.5 71t-43 53.5t-66 20q-51 0 -83.5 -36t-43.5 -83t-11 -105t11 -105t43.5 -83t83.5 -36zM430 653q0 -19 -14 -33
t-33 -14t-33 14t-14 33t14 33t33 14t33 -14t14 -33zM264 654q0 -19 -14 -33t-33 -14t-33 14t-14 33t14 33t33 14t33 -14t14 -33z" />
    <glyph glyph-name="Ogravesmall" horiz-adv-x="604" 
d="M302 547q116 0 188.5 -84t72.5 -195t-72.5 -195t-188.5 -84t-189 84t-73 195t73 195t189 84zM302 44q38 0 66 20t43 53.5t21.5 71t6.5 79.5t-6.5 79.5t-21.5 71t-43 53.5t-66 20q-51 0 -83.5 -36t-43.5 -83t-11 -105t11 -105t43.5 -83t83.5 -36zM273 711l112 -112
l-167 75q-17 7 -22 29t12 34q27 12 65 -26z" />
    <glyph glyph-name="Otildesmall" horiz-adv-x="604" 
d="M302 547q116 0 188.5 -84t72.5 -195t-72.5 -195t-188.5 -84t-189 84t-73 195t73 195t189 84zM302 44q38 0 66 20t43 53.5t21.5 71t6.5 79.5t-6.5 79.5t-21.5 71t-43 53.5t-66 20q-51 0 -83.5 -36t-43.5 -83t-11 -105t11 -105t43.5 -83t83.5 -36zM438 690
q-10 -40 -35.5 -67t-61.5 -27q-28 0 -62 25.5t-48 25.5q-29 0 -43 -47h-28q11 40 36.5 67t61.5 27q35 0 66 -25.5t44 -25.5q15 0 27 14.5t16 32.5h27z" />
    <glyph glyph-name="Scaronsmall" horiz-adv-x="423" 
d="M62 759h22l137 -78l137 78h22l-159 -159zM190 -6q-28 0 -50 3l-132 21l71 116l67 -83q24 -10 51 -10q49 0 73.5 27t24.5 50q0 28 -13 46t-43 36l-117 68q-83 48 -83 126q0 70 53.5 109t122.5 39q31 0 53 -4l127 -20l-72 -108l-60 73q-21 8 -43 8q-38 0 -62 -21t-24 -46
q0 -41 61 -77l106 -62q87 -51 87 -129q0 -62 -51.5 -112t-146.5 -50z" />
    <glyph glyph-name="Thornsmall" horiz-adv-x="541" 
d="M28 536h220l-59 -59v-48h64q96 0 163.5 -41.5t68.5 -115.5q-1 -74 -68 -115.5t-164 -41.5h-64v-56l59 -59h-220l59 59v418zM370 272q0 44 -31 73t-86 29h-64v-204h64q55 0 86 29t31 73z" />
    <glyph glyph-name="Uacutesmall" horiz-adv-x="570" 
d="M405 676l-167 -75l112 112q38 38 65 26q17 -12 12 -33.5t-22 -29.5zM82 478l-58 58h218l-58 -58v-314q0 -50 31.5 -83t86.5 -33q53 0 84.5 33t31.5 83v314l-58 58h186l-58 -58v-314q0 -78 -58 -126.5t-145 -48.5t-145 48.5t-58 126.5v314z" />
    <glyph glyph-name="Ucircumflexsmall" horiz-adv-x="570" 
d="M448 598h-22l-137 73l-137 -73h-22l159 159zM82 478l-58 58h218l-58 -58v-314q0 -50 31.5 -83t86.5 -33q53 0 84.5 33t31.5 83v314l-58 58h186l-58 -58v-314q0 -78 -58 -126.5t-145 -48.5t-145 48.5t-58 126.5v314z" />
    <glyph glyph-name="Udieresissmall" horiz-adv-x="570" 
d="M423 653q0 -19 -14 -33t-33 -14t-33 14t-14 33t14 33t33 14t33 -14t14 -33zM257 654q0 -19 -14 -33t-33 -14t-33 14t-14 33t14 33t33 14t33 -14t14 -33zM82 478l-58 58h218l-58 -58v-314q0 -50 31.5 -83t86.5 -33q53 0 84.5 33t31.5 83v314l-58 58h186l-58 -58v-314
q0 -78 -58 -126.5t-145 -48.5t-145 48.5t-58 126.5v314z" />
    <glyph glyph-name="Ugravesmall" horiz-adv-x="570" 
d="M228 711l112 -112l-167 75q-17 8 -22 29.5t12 33.5q27 12 65 -26zM82 478l-58 58h218l-58 -58v-314q0 -50 31.5 -83t86.5 -33q53 0 84.5 33t31.5 83v314l-58 58h186l-58 -58v-314q0 -78 -58 -126.5t-145 -48.5t-145 48.5t-58 126.5v314z" />
    <glyph glyph-name="Yacutesmall" horiz-adv-x="470" 
d="M383 746q17 -12 12 -33.5t-22 -29.5l-167 -75l112 112q38 38 65 26zM-21 536h228l-56 -56l107 -173l103 172l-57 57h187l-60 -60l-143 -229v-188l59 -59h-220l59 59v189l-146 227z" />
    <glyph glyph-name="Ydieresissmall" horiz-adv-x="470" 
d="M382 653q0 -19 -14 -33t-33 -14t-33 14t-14 33t14 33t33 14t33 -14t14 -33zM216 654q0 -19 -14 -33t-33 -14t-33 14t-14 33t14 33t33 14t33 -14t14 -33zM-21 536h228l-56 -56l107 -173l103 172l-57 57h187l-60 -60l-143 -229v-188l59 -59h-220l59 59v189l-146 227z" />
    <glyph glyph-name="Zcaronsmall" horiz-adv-x="447" 
d="M64 759h22l137 -78l137 78h22l-159 -159zM45 410v126h378l-272 -481h189l71 71v-126h-396l271 481h-170z" />
    <glyph glyph-name="dollar.lprp" horiz-adv-x="482" 
d="M208 40q-9 1 -25 5l-147 31l74 114l76 -93q20 -14 53 -14q49 0 76 32.5t27 74.5q0 49 -38 72l-163 94q-87 49 -87 140q0 68 43.5 114.5t110.5 55.5v135h53v-134q18 -2 44 -8l122 -28l-71 -107l-63 77q-22 20 -53 20q-37 0 -63 -25t-26 -58q0 -52 54 -85l150 -89
q41 -24 61 -52.5t20 -74.5q0 -76 -45 -132t-130 -65v-135h-53v135z" />
    <glyph glyph-name="cent.lprp" horiz-adv-x="494" 
d="M261 620v160h53v-160q68 -5 135 -41v-127l-82 82q-39 39 -93 39q-100 0 -100 -194q0 -128 32 -183t104 -55q65 0 110 47l31 -31q-66 -62 -137 -69v-166h-53v166q-98 10 -159 87t-61 179q0 101 61.5 179.5t158.5 86.5z" />
    <glyph glyph-name="Euro.lprp" horiz-adv-x="587" 
d="M93 446q23 118 97.5 195t182.5 77q95 0 179 -42v-144l-97 97q-33 34 -82 34q-134 0 -156 -217h228v-51h-232q-1 -14 -1 -41t1 -40h232v-50h-228q26 -219 156 -219q49 0 82 34l97 97v-145q-68 -41 -179 -41q-110 0 -184 78t-97 196h-57v50h51q-2 26 -2 40q0 13 2 41h-51
v51h58z" />
    <glyph glyph-name="yen.lprp" horiz-adv-x="585" 
d="M585 708l-61 -62l-117 -213h142v-58h-174l-26 -48v-14h200v-58h-200v-194l61 -61h-230l61 61v194h-200v58h200v16l-26 46h-174v58h142l-121 213l-62 62h240l-60 -60l140 -254l135 254l-60 60h190z" />
    <glyph glyph-name="currency.lprp" horiz-adv-x="587" 
d="M93 446q23 118 97.5 195t182.5 77q95 0 179 -42v-144l-97 97q-33 34 -82 34q-134 0 -156 -217h228v-51h-232q-1 -14 -1 -41t1 -40h232v-50h-228q26 -219 156 -219q49 0 82 34l97 97v-145q-68 -41 -179 -41q-110 0 -184 78t-97 196h-57v50h51q-2 26 -2 40q0 13 2 41h-51
v51h58z" />
    <glyph glyph-name="zero.lprp" horiz-adv-x="578" 
d="M55 354q0 70 13 133t39.5 116.5t73.5 85.5t108 32t108 -32t73.5 -85.5t39.5 -116.5t13 -133t-13 -133t-39.5 -116.5t-73.5 -85.5t-108 -32t-108 32t-73.5 85.5t-39.5 116.5t-13 133zM289 30q56 0 83.5 72.5t27.5 251.5t-27.5 251.5t-83.5 72.5t-83.5 -72.5t-27.5 -251.5
t27.5 -251.5t83.5 -72.5z" />
    <glyph glyph-name="one.lprp" horiz-adv-x="320" 
d="M270 0h-220l56 56v556l-54 54l162 54v-664z" />
    <glyph glyph-name="two.lprp" horiz-adv-x="505" 
d="M31 0v54l221 290q82 109 82 199q0 106 -92 106q-38 0 -82 -32t-79 -75l-35 31q119 149 230 149q81 0 126 -43.5t45 -118.5q0 -89 -114 -220l-204 -237h269l56 56v-159h-423z" />
    <glyph glyph-name="three.lprp" horiz-adv-x="471" 
d="M107 352v38q89 28 136.5 71t47.5 98q0 48 -25.5 75t-73.5 27q-53 0 -144 -68l-30 30q105 98 205 98q85 0 133.5 -39.5t48.5 -107.5q0 -58 -44 -113t-107 -73q73 -13 123.5 -55.5t50.5 -114.5q0 -76 -58.5 -131t-143 -79t-180.5 -24h-26v53h26q113 0 187 51t74 130
q0 63 -56.5 98.5t-143.5 35.5z" />
    <glyph glyph-name="four.lprp" horiz-adv-x="515" 
d="M450 0h-220l56 56v140h-280v31l356 487h32v-460h75v-58h-75v-140zM286 254v274l-200 -274h200z" />
    <glyph glyph-name="five.lprp" horiz-adv-x="487" 
d="M119 400q57 18 110 18q102 0 162.5 -46.5t60.5 -125.5q0 -64 -37.5 -117t-95.5 -84.5t-121 -48t-119 -16.5h-29v53h29q43 0 86 12t81 35t62 62t24 87q0 46 -35.5 76t-95.5 30q-39 0 -74 -5.5t-51 -11.5l-16 -5v395h391l-54 -108h-278v-200z" />
    <glyph glyph-name="six.lprp" horiz-adv-x="560" 
d="M325 435q82 0 138.5 -59.5t56.5 -151.5q0 -110 -70 -173.5t-160 -63.5q-117 0 -181 78t-64 205q0 103 44 206t133 177.5t201 77.5l12 -45q-90 -6 -159 -79t-98 -234q56 62 147 62zM402 211q0 33 -3.5 58t-14 53t-35 43.5t-61.5 15.5q-46 0 -84 -38t-38 -110
q0 -91 30 -147t94 -56q52 0 82 48.5t30 132.5z" />
    <glyph glyph-name="seven.lprp" horiz-adv-x="440" 
d="M436 708l-227 -655v-53h-136l276 600h-267l-56 -56v164h410z" />
    <glyph glyph-name="eight.lprp" horiz-adv-x="570" 
d="M181 373q-50 24 -80 67.5t-30 95.5q0 77 62.5 131t151.5 54t151.5 -54t62.5 -131q0 -51 -30 -95.5t-80 -67.5q61 -25 98 -75t37 -109q0 -83 -70 -142.5t-169 -59.5t-169 59.5t-70 142.5q0 59 37 109t98 75zM285 678q-41 0 -68 -41t-27 -101t27 -101.5t68 -41.5t67.5 41.5
t26.5 101.5t-26.5 101t-67.5 41zM285 350q-52 0 -86 -47.5t-34 -113.5t34 -112.5t86 -46.5t85.5 46.5t33.5 112.5q0 67 -33.5 114t-85.5 47z" />
    <glyph glyph-name="nine.lprp" horiz-adv-x="560" 
d="M235 273q-82 0 -138.5 59.5t-56.5 151.5q0 110 70 173.5t160 63.5q117 0 181 -78t64 -205q0 -103 -44 -206t-133 -177.5t-201 -77.5l-12 45q90 6 159 79t98 234q-56 -62 -147 -62zM158 497q0 -33 3.5 -58t14 -53t35 -43.5t61.5 -15.5q46 0 84 38t38 110q0 91 -30 147
t-94 56q-52 0 -82 -48.5t-30 -132.5z" />
    <glyph glyph-name="zero.otab" horiz-adv-x="558" 
d="M515 254q0 -115 -67.5 -191t-168.5 -76t-168.5 76t-67.5 191t67.5 191t168.5 76t168.5 -76t67.5 -191zM393 254q0 47 -4.5 83t-16 70t-35 52.5t-58.5 18.5t-58.5 -18.5t-35 -52.5t-16 -70t-4.5 -83t4.5 -83t16 -70t35 -52.5t58.5 -18.5t58.5 18.5t35 52.5t16 70t4.5 83z
" />
    <glyph glyph-name="one.otab" horiz-adv-x="558" 
d="M389 0h-220l56 56v396l-56 56h220l-56 -56v-396z" />
    <glyph glyph-name="two.otab" horiz-adv-x="558" 
d="M466 0h-396v56l213 201q52 50 52 104q0 35 -23 61t-69 26q-28 0 -66.5 -15.5t-70.5 -38.5l-23 37q46 35 105 62.5t107 27.5q62 0 108.5 -33.5t46.5 -102.5q0 -44 -21 -75.5t-57 -60.5l-217 -166h255l56 56v-139z" />
    <glyph glyph-name="three.otab" horiz-adv-x="558" 
d="M150 152v38q89 28 136.5 71t47.5 98q0 48 -25.5 75t-73.5 27q-53 0 -144 -68l-30 30q105 98 205 98q85 0 133.5 -39.5t48.5 -107.5q0 -58 -44 -113t-107 -73q74 -13 124 -53t50 -112q0 -73 -58.5 -125.5t-142.5 -75t-181 -22.5h-26v53h26q113 0 187 48.5t74 121.5
q0 62 -58 95.5t-142 33.5z" />
    <glyph glyph-name="four.otab" horiz-adv-x="558" 
d="M505 0h-95v-200h-108v200h-270v29l347 489h31v-460h95v-58zM302 58v265l-189 -265h189z" />
    <glyph glyph-name="five.otab" horiz-adv-x="558" 
d="M165 202q57 18 100 18q97 0 155.5 -44.5t58.5 -120.5q0 -81 -60 -140.5t-147 -87t-185 -27.5v50q112 0 192 51t80 138q0 44 -33 73t-87 29q-35 0 -68.5 -5.5t-48.5 -11.5l-16 -5v389h366l-52 -108h-255v-198z" />
    <glyph glyph-name="six.otab" horiz-adv-x="558" 
d="M324 435q82 0 138.5 -59.5t56.5 -151.5q0 -110 -70 -173.5t-160 -63.5q-117 0 -181 78t-64 205q0 76 26.5 154t73.5 144t120 108.5t158 44.5l12 -45q-204 -13 -257 -303q56 62 147 62zM401 211q0 33 -3.5 58t-14 53t-35 43.5t-61.5 15.5q-46 0 -84 -38t-38 -110
q0 -91 30 -147t94 -56q52 0 82 48.5t30 132.5z" />
    <glyph glyph-name="seven.otab" horiz-adv-x="558" 
d="M500 508l-242 -655v-53h-136l291 600h-297l-56 -56v164h440z" />
    <glyph glyph-name="eight.otab" horiz-adv-x="558" 
d="M180 373q-50 24 -80 67.5t-30 95.5q0 77 60 131t149 54t149 -54t60 -131q0 -51 -30 -95.5t-80 -67.5q61 -25 98 -75t37 -109q0 -84 -67.5 -143t-166.5 -59t-166.5 59t-67.5 143q0 59 37 109t98 75zM279 678q-41 0 -65.5 -41t-24.5 -101t24.5 -101.5t65.5 -41.5t65 41
t24 102t-24 101.5t-65 40.5zM279 350q-51 0 -83 -47t-32 -114t32 -113t83 -46t82.5 46t31.5 113t-31.5 114t-82.5 47z" />
    <glyph glyph-name="nine.otab" horiz-adv-x="558" 
d="M234 73q-82 0 -138.5 59.5t-56.5 151.5q0 110 70 173.5t160 63.5q117 0 181 -78t64 -205q0 -76 -26.5 -153t-73.5 -142t-120 -107t-158 -44l-12 45q205 13 257 298q-56 -62 -147 -62zM157 297q0 -33 3.5 -58t14 -53t35 -43.5t61.5 -15.5q46 0 84 38t38 110q0 91 -30 147
t-94 56q-52 0 -82 -48.5t-30 -132.5z" />
    <glyph glyph-name="zero.ltab" horiz-adv-x="558" 
d="M50 354q0 56 7 107t24.5 99t43 83t65 56.5t89.5 21.5t89.5 -21.5t65 -56.5t43 -83t24.5 -99t7 -107t-7 -107t-24.5 -99t-43 -83t-65 -56.5t-89.5 -21.5t-89.5 21.5t-65 56.5t-43 83t-24.5 99t-7 107zM279 30q37 0 59.5 28.5t35.5 101t13 194.5t-13 194.5t-35.5 101
t-59.5 28.5t-59.5 -28.5t-35.5 -101t-13 -194.5t13 -194.5t35.5 -101t59.5 -28.5z" />
    <glyph glyph-name="one.ltab" horiz-adv-x="558" 
d="M389 0h-220l56 56v556l-54 54l162 54v-664z" />
    <glyph glyph-name="two.ltab" horiz-adv-x="558" 
d="M52 0v54l226 290q82 104 82 199q0 53 -26.5 79.5t-70.5 26.5q-39 0 -85.5 -32.5t-80.5 -74.5l-35 31q119 149 235 149q81 0 128.5 -43.5t47.5 -118.5q0 -89 -114 -220l-209 -237h274l56 56v-159h-428z" />
    <glyph glyph-name="three.ltab" horiz-adv-x="558" 
d="M150 352v38q89 28 136.5 71t47.5 98q0 48 -25.5 75t-73.5 27q-53 0 -144 -68l-30 30q105 98 205 98q85 0 133.5 -39.5t48.5 -107.5q0 -58 -44 -113t-107 -73q73 -13 123.5 -55.5t50.5 -114.5q0 -76 -58.5 -131t-143 -79t-180.5 -24h-26v53h26q113 0 187 51t74 130
q0 63 -56.5 98.5t-143.5 35.5z" />
    <glyph glyph-name="four.ltab" horiz-adv-x="558" 
d="M471 0h-220l56 56v140h-280v31l356 487h32v-460h95v-58h-95v-140zM307 254v274l-200 -274h200z" />
    <glyph glyph-name="five.ltab" horiz-adv-x="558" 
d="M154 400q57 18 110 18q102 0 162.5 -46.5t60.5 -125.5q0 -64 -37.5 -117t-95.5 -84.5t-121 -48t-119 -16.5h-29v53h29q43 0 86 12t81 35t62 62t24 87q0 46 -35.5 76t-95.5 30q-39 0 -74 -5.5t-51 -11.5l-16 -5v395h391l-54 -108h-278v-200z" />
    <glyph glyph-name="six.ltab" horiz-adv-x="558" 
d="M324 435q82 0 138.5 -59.5t56.5 -151.5q0 -110 -70 -173.5t-160 -63.5q-117 0 -181 78t-64 205q0 103 44 206t133 177.5t201 77.5l12 -45q-90 -6 -159 -79t-98 -234q56 62 147 62zM401 211q0 33 -3.5 58t-14 53t-35 43.5t-61.5 15.5q-46 0 -84 -38t-38 -110
q0 -91 30 -147t94 -56q52 0 82 48.5t30 132.5z" />
    <glyph glyph-name="seven.ltab" horiz-adv-x="558" 
d="M510 708l-242 -655v-53h-136l291 600h-297l-56 -56v164h440z" />
    <glyph glyph-name="eight.ltab" horiz-adv-x="558" 
d="M180 373q-50 24 -80 67.5t-30 95.5q0 77 60 131t149 54t149 -54t60 -131q0 -51 -30 -95.5t-80 -67.5q61 -25 98 -75t37 -109q0 -84 -67.5 -143t-166.5 -59t-166.5 59t-67.5 143q0 59 37 109t98 75zM279 678q-41 0 -65.5 -41t-24.5 -101t24.5 -101.5t65.5 -41.5t65 41
t24 102t-24 101.5t-65 40.5zM279 350q-51 0 -83 -47t-32 -114t32 -113t83 -46t82.5 46t31.5 113t-31.5 114t-82.5 47z" />
    <glyph glyph-name="nine.ltab" horiz-adv-x="558" 
d="M234 273q-82 0 -138.5 59.5t-56.5 151.5q0 110 70 173.5t160 63.5q117 0 181 -78t64 -205q0 -103 -44 -206t-133 -177.5t-201 -77.5l-12 45q90 6 159 79t98 234q-56 -62 -147 -62zM157 497q0 -33 3.5 -58t14 -53t35 -43.5t61.5 -15.5q46 0 84 38t38 110q0 91 -30 147
t-94 56q-52 0 -82 -48.5t-30 -132.5z" />
    <glyph glyph-name="zero.nfra" horiz-adv-x="374" 
d="M329 510q0 -84 -35.5 -145.5t-106.5 -61.5t-106.5 61.5t-35.5 145.5t35.5 145.5t106.5 61.5t106.5 -61.5t35.5 -145.5zM253 510q0 81 -14 125t-52 44t-52 -44t-14 -125q0 -82 14 -125.5t52 -43.5t52 43.5t14 125.5z" />
    <glyph glyph-name="one.nfra" horiz-adv-x="270" 
d="M209 311h-151l40 40v299l-36 35l107 31v-365z" />
    <glyph glyph-name="two.nfra" horiz-adv-x="350" 
d="M309 311h-280v38l153 174q47 53 47 89q0 24 -16 39.5t-43 15.5q-49 0 -109 -67l-25 22q31 42 72 68t80 26q49 0 81.5 -24.5t32.5 -67.5q0 -52 -59 -109l-147 -142h173l40 40v-102z" />
    <glyph glyph-name="three.nfra" horiz-adv-x="330" 
d="M289 437q0 -58 -64 -99.5t-180 -41.5h-18v38h18q78 0 122.5 24.5t44.5 68.5q0 28 -26 44.5t-67 18.5q-2 0 -20.5 0.5t-21.5 0.5v28q59 9 92.5 39t33.5 63q0 21 -15 35.5t-42 14.5q-45 0 -97 -42l-23 25q62 60 136 60q49 0 81.5 -23t32.5 -65q0 -30 -24.5 -57.5
t-57.5 -42.5q43 -10 69 -34t26 -55z" />
    <glyph glyph-name="four.nfra" horiz-adv-x="354" 
d="M158 311l40 40v70h-177v21l225 272h23v-253h46v-40h-46v-70l40 -40h-151zM198 601l-116 -140h116v140z" />
    <glyph glyph-name="five.nfra" horiz-adv-x="348" 
d="M305 441q0 -65 -72 -105t-167 -40h-17v37h17q71 0 116 26.5t45 69.5q0 60 -81 60q-20 0 -42.5 -4t-35.5 -8l-13 -4v235h247l-31 -67h-178v-112q36 12 83 12q52 0 90.5 -25.5t38.5 -74.5z" />
    <glyph glyph-name="six.nfra" horiz-adv-x="358" 
d="M327 436q0 -56 -42.5 -93.5t-98.5 -37.5q-67 0 -109 42.5t-42 119.5q0 95 68 170t175 80l11 -28q-69 -7 -114 -53.5t-56 -105.5q35 32 83 32q55 0 90 -36.5t35 -89.5zM109 458q0 -54 19.5 -87t57.5 -33q29 0 46 27t17 66q0 92 -70 92q-19 0 -40 -11.5t-29 -30.5
q-1 -14 -1 -23z" />
    <glyph glyph-name="seven.nfra" horiz-adv-x="314" 
d="M298 708l-138 -362v-35h-94l165 330h-152l-41 -41v108h260z" />
    <glyph glyph-name="eight.nfra" horiz-adv-x="374" 
d="M334 421q0 -49 -43 -83t-104 -34t-103.5 34t-42.5 83q0 32 19.5 58.5t53.5 41.5q-59 33 -59 88q0 44 39 75.5t93 31.5q55 0 93.5 -31.5t38.5 -75.5q0 -56 -58 -88q33 -14 53 -41t20 -59zM245 609q0 31 -16.5 52.5t-40.5 21.5q-25 0 -41 -21t-16 -53q0 -30 16.5 -51
t40.5 -21t40.5 21.5t16.5 50.5zM258 421q0 35 -20.5 59t-50.5 24t-50.5 -24t-20.5 -59t20.5 -59.5t50.5 -24.5t50.5 24.5t20.5 59.5z" />
    <glyph glyph-name="nine.nfra" horiz-adv-x="358" 
d="M323 552q0 -95 -67.5 -170.5t-174.5 -80.5l-11 28q68 6 113 53.5t57 106.5q-35 -32 -84 -32q-54 0 -89.5 36.5t-35.5 89.5q0 56 42.5 93.5t99.5 37.5q67 0 108.5 -42.5t41.5 -119.5zM249 561q0 54 -19.5 87t-56.5 33q-29 0 -46.5 -27t-17.5 -66q0 -21 4 -39t21 -35.5
t45 -17.5q20 0 40.5 11.5t28.5 30.5q1 14 1 23z" />
    <glyph glyph-name="zero.dfra" horiz-adv-x="374" 
d="M329 199q0 -84 -35.5 -145.5t-106.5 -61.5t-106.5 61.5t-35.5 145.5t35.5 145.5t106.5 61.5t106.5 -61.5t35.5 -145.5zM253 199q0 81 -14 125t-52 44t-52 -44t-14 -125q0 -82 14 -125.5t52 -43.5t52 43.5t14 125.5z" />
    <glyph glyph-name="one.dfra" horiz-adv-x="270" 
d="M209 0h-151l40 40v299l-36 35l107 31v-365z" />
    <glyph glyph-name="two.dfra" horiz-adv-x="350" 
d="M309 0h-280v38l153 174q47 53 47 89q0 24 -16 39.5t-43 15.5q-49 0 -109 -67l-25 22q31 42 72 68t80 26q49 0 81.5 -24.5t32.5 -67.5q0 -52 -59 -109l-147 -142h173l40 40v-102z" />
    <glyph glyph-name="three.dfra" horiz-adv-x="330" 
d="M289 126q0 -58 -64 -99.5t-180 -41.5h-18v38h18q78 0 122.5 24.5t44.5 68.5q0 28 -26 44.5t-67 18.5q-2 0 -20.5 0.5t-21.5 0.5v28q59 9 92.5 39t33.5 63q0 21 -15 35.5t-42 14.5q-45 0 -97 -42l-23 25q62 60 136 60q49 0 81.5 -23t32.5 -65q0 -30 -24.5 -57.5
t-57.5 -42.5q43 -10 69 -34t26 -55z" />
    <glyph glyph-name="four.dfra" horiz-adv-x="354" 
d="M158 0l40 40v70h-177v21l225 272h23v-253h46v-40h-46v-70l40 -40h-151zM198 290l-116 -140h116v140z" />
    <glyph glyph-name="five.dfra" horiz-adv-x="348" 
d="M305 130q0 -65 -72 -105t-167 -40h-17v37h17q71 0 116 26.5t45 69.5q0 60 -81 60q-20 0 -42.5 -4t-35.5 -8l-13 -4v235h247l-31 -67h-178v-112q36 12 83 12q52 0 90.5 -25.5t38.5 -74.5z" />
    <glyph glyph-name="six.dfra" horiz-adv-x="358" 
d="M327 125q0 -56 -42.5 -93.5t-98.5 -37.5q-67 0 -109 42.5t-42 119.5q0 95 68 170t175 80l11 -28q-69 -7 -114 -53.5t-56 -105.5q35 32 83 32q55 0 90 -36.5t35 -89.5zM109 147q0 -54 19.5 -87t57.5 -33q29 0 46 27t17 66q0 92 -70 92q-19 0 -40 -11.5t-29 -30.5
q-1 -14 -1 -23z" />
    <glyph glyph-name="seven.dfra" horiz-adv-x="314" 
d="M298 397l-138 -362v-35h-94l165 330h-152l-41 -41v108h260z" />
    <glyph glyph-name="eight.dfra" horiz-adv-x="374" 
d="M334 110q0 -49 -43 -83t-104 -34t-103.5 34t-42.5 83q0 32 19.5 58.5t53.5 41.5q-59 33 -59 88q0 44 39 75.5t93 31.5q55 0 93.5 -31.5t38.5 -75.5q0 -56 -58 -88q33 -14 53 -41t20 -59zM245 298q0 31 -16.5 52.5t-40.5 21.5q-25 0 -41 -21t-16 -53q0 -30 16.5 -51
t40.5 -21t40.5 21.5t16.5 50.5zM258 110q0 35 -20.5 59t-50.5 24t-50.5 -24t-20.5 -59t20.5 -59.5t50.5 -24.5t50.5 24.5t20.5 59.5z" />
    <glyph glyph-name="nine.dfra" horiz-adv-x="358" 
d="M323 241q0 -95 -67.5 -170.5t-174.5 -80.5l-11 28q68 6 113 53.5t57 106.5q-35 -32 -84 -32q-54 0 -89.5 36.5t-35.5 89.5q0 56 42.5 93.5t99.5 37.5q67 0 108.5 -42.5t41.5 -119.5zM249 250q0 54 -19.5 87t-56.5 33q-29 0 -46.5 -27t-17.5 -66q0 -21 4 -39t21 -35.5
t45 -17.5q20 0 40.5 11.5t28.5 30.5q1 14 1 23z" />
    <glyph glyph-name="N.alt" horiz-adv-x="665" 
d="M635 708l-61 -61v-655h-32l-378 587v-518l61 -61h-190l61 61v586l-61 61h177l294 -461v400l-61 61h190z" />
    <glyph glyph-name="Ntilde.alt" horiz-adv-x="665" 
d="M474 865q-10 -40 -35.5 -67t-61.5 -27q-28 0 -62 25.5t-48 25.5q-29 0 -43 -47h-28q11 40 36.5 67t61.5 27q35 0 66 -25.5t44 -25.5q15 0 27 14.5t16 32.5h27zM635 708l-61 -61v-655h-32l-378 587v-518l61 -61h-190l61 61v586l-61 61h177l294 -461v400l-61 61h190z" />
    <glyph glyph-name="g.alt" horiz-adv-x="568" 
d="M493 27q0 -75 -37 -128.5t-88 -76t-107 -22.5q-101 0 -194 80l39 45q75 -62 155 -62q54 0 89 31.5t35 102.5v79q-55 -79 -152 -79q-85 0 -139 68t-54 189q0 115 59.5 191t143.5 76q106 0 159 -77l91 77v-494zM161 254q0 -196 113 -196q33 0 63 22t48 60v238
q-18 38 -48 60t-63 22q-113 0 -113 -206z" />
    <glyph glyph-name="ampersand.alt" horiz-adv-x="600" 
d="M575 393l-56 -56v-294q-96 -55 -224 -55q-103 0 -179 53t-76 148q0 70 40 121.5t104 70.5q-46 23 -72.5 68.5t-26.5 97.5q0 69 59 120.5t161 51.5q92 0 179 -42v-132l-97 97q-29 29 -82 29q-48 0 -76.5 -35.5t-28.5 -89.5t29.5 -99t89.5 -54v-33q-65 0 -112.5 -51
t-47.5 -116t41 -108.5t102 -43.5q63 0 109 43v309h164z" />
    <glyph glyph-name="ordfeminine.caps" horiz-adv-x="446" 
d="M15 317l48 47l137 343h49l134 -342l48 -48h-179l44 44l-23 62h-133l-23 -62l44 -44h-146zM255 469l-49 132l-49 -132h98z" />
    <glyph glyph-name="ordmasculine.caps" horiz-adv-x="514" 
d="M448 508q0 -81 -53 -142.5t-138 -61.5t-138.5 61.5t-53.5 142.5t53.5 142.5t138.5 61.5t138 -61.5t53 -142.5zM352 508q0 65 -22 111.5t-73 46.5q-52 0 -74.5 -46.5t-22.5 -111.5t22.5 -111.5t74.5 -46.5q51 0 73 46.5t22 111.5z" />
    <glyph glyph-name="questiondown.caps" horiz-adv-x="480" 
d="M330 666q0 -23 -16 -39t-38 -16t-38.5 16.5t-16.5 38.5t16.5 38.5t38.5 16.5t38 -16t16 -39zM29 181q0 78 72 146l161 152v54h43v-136l-83 -79q-40 -38 -57.5 -71t-17.5 -78q0 -58 39 -89t91 -31q35 0 56 8l73 88l71 -120l-140 -26q-52 -9 -86 -9q-116 0 -169 56t-53 135
z" />
    <glyph glyph-name="exclamdown.caps" horiz-adv-x="290" 
d="M90 666q0 22 16 38.5t39 16.5q22 0 38 -16t16 -39t-16 -39t-38 -16q-23 0 -39 16.5t-16 38.5zM81 -10l35 543h58l35 -543h-128z" />
    <glyph glyph-name="at.caps" horiz-adv-x="826" 
d="M765 426q0 -107 -67.5 -191.5t-140.5 -84.5q-29 0 -48.5 16t-26.5 38q-18 -24 -50 -41t-57 -17q-69 0 -101 59.5t-17 147.5q14 85 75 145t132 60q35 0 71 -18l69 19l-54 -302q-11 -62 32 -62q46 0 93.5 69t47.5 160q0 113 -74 179.5t-178 66.5q-137 0 -232.5 -101.5
t-95.5 -236.5q0 -136 80.5 -219t206.5 -83q119 0 236 72l14 -23q-127 -91 -259 -91q-150 0 -254 98t-104 242q0 161 115 276t276 115q133 0 222 -81.5t89 -211.5zM517 494q-21 21 -57 21q-43 0 -76 -48.5t-44 -115.5q-13 -60 0 -106t54 -46q29 0 55.5 27.5t32.5 66.5z" />
    <glyph glyph-name="dotlessi.small" horiz-adv-x="292" 
d="M36 536h220l-59 -59v-418l59 -59h-220l59 59v418z" />
    <glyph glyph-name="germandbls.small" horiz-adv-x="846" 
d="M190 -6q-28 0 -50 3l-132 21l71 116l67 -83q24 -10 51 -10q49 0 73.5 27t24.5 50q0 28 -13 46t-43 36l-117 68q-83 48 -83 126q0 70 53.5 109t122.5 39q31 0 53 -4l127 -20l-72 -108l-60 73q-21 8 -43 8q-38 0 -62 -21t-24 -46q0 -41 61 -77l106 -62q87 -51 87 -129
q0 -62 -51.5 -112t-146.5 -50zM613 -6q-27 0 -50 3l-132 21l71 116l67 -83q24 -10 51 -10q49 0 73.5 27t24.5 50q0 28 -13 46t-43 36l-117 68q-83 48 -83 126q0 70 53.5 109t122.5 39q31 0 53 -4l127 -20l-72 -108l-60 73q-21 8 -43 8q-38 0 -62 -21t-24 -46q0 -41 61 -77
l106 -62q87 -51 87 -129q0 -62 -51.5 -112t-146.5 -50z" />
    <glyph glyph-name="fi.small" horiz-adv-x="731" 
d="M28 0l59 59v418l-59 59h392v-126l-71 71h-160v-167h114l54 54v-163l-54 54h-114v-200l59 -59h-220zM475 536h220l-59 -59v-418l59 -59h-220l59 59v418z" />
    <glyph glyph-name="fl.small" horiz-adv-x="858" 
d="M28 0l59 59v418l-59 59h392v-126l-71 71h-160v-167h114l54 54v-163l-54 54h-114v-200l59 -59h-220zM838 126v-126h-371l59 59v418l-59 59h220l-59 -59v-422h139z" />
    <glyph glyph-name="zero.small" horiz-adv-x="514" 
d="M257 548q52 0 91.5 -24t62.5 -65t34.5 -89.5t11.5 -101.5t-11.5 -101.5t-34.5 -89.5t-62.5 -65t-91.5 -24t-91.5 24t-62.5 65t-34 89.5t-11 101.5t11 101.5t34 89.5t62.5 65t91.5 24zM341 268q0 129 -20.5 181t-63.5 52t-63 -52t-20 -181t20 -180.5t63 -51.5t63.5 51.5
t20.5 180.5z" />
    <glyph glyph-name="one.small" horiz-adv-x="302" 
d="M41 0l59 59v398l-51 48l153 46v-492l59 -59h-220z" />
    <glyph glyph-name="two.small" horiz-adv-x="454" 
d="M38 51l183 216q66 78 66 137q0 76 -69 76q-57 0 -131 -82l-40 33q109 118 199 118q70 0 109.5 -34.5t39.5 -93.5q0 -65 -97 -167l-155 -162h200l57 58v-150h-362v51z" />
    <glyph glyph-name="three.small" horiz-adv-x="426" 
d="M101 302q73 20 112 51t39 68q0 32 -18.5 50t-51.5 18q-52 0 -130 -57l-28 40q94 77 179 77q73 0 115 -32t42 -85q0 -39 -29.5 -77.5t-74.5 -58.5q54 -12 88.5 -43t34.5 -81q0 -58 -49 -101.5t-120.5 -63.5t-151.5 -20h-29v55h29q89 0 148 37t59 93q0 43 -46.5 65.5
t-117.5 22.5v42z" />
    <glyph glyph-name="four.small" horiz-adv-x="462" 
d="M189 0l59 59v82h-230v31l296 367h35v-340h62v-58h-62v-82l59 -59h-219zM248 373l-140 -174h140v174z" />
    <glyph glyph-name="five.small" horiz-adv-x="439" 
d="M208 321q86 0 138.5 -37t52.5 -98q0 -49 -32 -90t-80.5 -65t-101.5 -37t-100 -13h-31v55h31q74 0 137 36t63 101q0 32 -25.5 52t-70.5 20q-31 0 -63 -4.5t-48 -9.5l-16 -5v310h342l-53 -95h-225v-131q47 11 82 11z" />
    <glyph glyph-name="six.small" horiz-adv-x="499" 
d="M454 174q0 -85 -60 -134.5t-136 -49.5q-99 0 -153.5 60t-54.5 158q0 57 22 117t62 111.5t102.5 85t136.5 35.5l14 -47q-164 -13 -209 -206q43 34 109 34q69 0 118 -46.5t49 -117.5zM256 283q-35 0 -63.5 -26.5t-28.5 -76.5q0 -142 94 -142q39 0 62 34t23 92
q0 119 -87 119z" />
    <glyph glyph-name="seven.small" horiz-adv-x="401" 
d="M199 47v-47h-132l227 441h-203l-57 -51v146h355z" />
    <glyph glyph-name="eight.small" horiz-adv-x="507" 
d="M71 403q0 60 53 102.5t130 42.5q76 0 129.5 -42.5t53.5 -102.5q0 -36 -21.5 -68t-57.5 -52q46 -21 73 -58t27 -79q0 -64 -59.5 -111t-144.5 -47t-144 47t-59 111q0 42 26.5 79t71.5 58q-36 19 -57 51t-21 69zM184 403q0 -41 19.5 -69.5t50.5 -28.5t50.5 28.5t19.5 69.5
q0 40 -19.5 69t-50.5 29t-50.5 -29t-19.5 -69zM163 146q0 -47 25.5 -78.5t65.5 -31.5q39 0 64.5 32t25.5 78t-25.5 79t-64.5 33q-40 0 -65.5 -33t-25.5 -79z" />
    <glyph glyph-name="nine.small" horiz-adv-x="499" 
d="M46 363q0 85 59.5 134.5t135.5 49.5q100 0 154.5 -60t54.5 -158q0 -78 -37 -155.5t-113 -134.5t-173 -59l-13 48q161 9 207 205q-42 -33 -108 -33q-70 0 -118.5 46t-48.5 117zM243 255q36 0 64.5 26t28.5 76q0 64 -23 103.5t-72 39.5q-39 0 -61 -34t-22 -93
q0 -23 2.5 -40t10 -37t26 -30.5t46.5 -10.5z" />
    <glyph glyph-name="onequarter.small" horiz-adv-x="759" 
d="M521 543l-303 -543h-50l303 543h50zM519 0l41 40v57h-168v21l216 272h24v-253h45v-40h-45v-57l41 -40h-154zM560 276l-111 -139h111v139zM52 162l41 41v278l-37 37l109 34v-349l41 -41h-154z" />
    <glyph glyph-name="onehalf.small" horiz-adv-x="769" 
d="M52 162l41 41v278l-37 37l109 34v-349l41 -41h-154zM521 543l-303 -543h-50l303 543h50zM441 36l139 151q48 51 48 100q0 54 -54 54q-22 0 -49.5 -18t-48.5 -42l-28 22q77 86 146 86q51 0 80.5 -25t29.5 -68q0 -52 -69 -117l-122 -114h156l39 38v-103h-267v36z" />
    <glyph glyph-name="threequarters.small" horiz-adv-x="789" 
d="M93 370q54 15 79 35t25 50q0 50 -61 50q-11 0 -24.5 -5t-23 -10.5t-21.5 -12.5t-15 -9l-23 21q67 57 129 57q54 0 84 -21t30 -59q0 -29 -22.5 -56t-56.5 -42q92 -19 92 -88q0 -41 -35.5 -71.5t-87.5 -45t-110 -14.5h-19v37h19q65 0 110 27.5t45 66.5q0 33 -31.5 49
t-82.5 16v25zM561 543l-303 -543h-50l303 543h50zM559 0l41 40v57h-168v21l216 272h24v-253h45v-40h-45v-57l41 -40h-154zM600 276l-111 -139h111v139z" />
    <glyph glyph-name="fraction.small" horiz-adv-x="380" 
d="M351 545l-256 -554h-66l256 554h66z" />
    <glyph glyph-name="periodcentered.small" horiz-adv-x="249" 
d="M184 298q0 -25 -17.5 -42.5t-42.5 -17.5t-42 17.5t-17 42.5t17 42.5t42 17.5t42.5 -17.5t17.5 -42.5z" />
    <glyph glyph-name="at.small" horiz-adv-x="673" 
d="M611 313q0 -86 -53.5 -153t-111.5 -67q-41 0 -59 36q-41 -39 -80 -39q-56 0 -82 48.5t-13 120.5q11 66 59.5 114.5t103.5 48.5q27 0 55 -14l59 17l-42 -243q-6 -39 18 -39q32 0 67 51t35 117q0 83 -55 133t-132 50q-101 0 -172 -76t-71 -178q0 -101 59.5 -163t153.5 -62
q88 0 181 58l18 -30q-106 -75 -206 -75q-117 0 -198.5 78t-81.5 192q0 126 90 217.5t215 91.5q104 0 173.5 -65t69.5 -169zM408 361q-11 13 -36 13q-31 0 -54 -35.5t-31 -84.5q-10 -42 -2 -75t36 -33q20 0 39 19t23 47z" />
    <glyph glyph-name="Nsmall.alt" horiz-adv-x="577" 
d="M209 0h-181l59 59v418l-59 59h162l240 -333v275l-58 58h180l-58 -58v-484h-38l-305 412v-348z" />
    <glyph glyph-name="Ntildesmall.alt" horiz-adv-x="577" 
d="M447 690q-10 -40 -35.5 -67t-61.5 -27q-28 0 -62 25.5t-48 25.5q-29 0 -43 -47h-28q11 40 36.5 67t61.5 27q35 0 66 -25.5t44 -25.5q15 0 27 14.5t16 32.5h27zM209 0h-181l59 59v418l-59 59h162l240 -333v275l-58 58h180l-58 -58v-484h-38l-305 412v-348z" />
    <glyph glyph-name="ampersand.altsmall" horiz-adv-x="528" 
d="M286 302v-36q-55 -3 -94.5 -35.5t-39.5 -79.5t33 -76.5t83 -29.5q52 0 83 30v224h161l-58 -58v-203q-75 -44 -186 -44q-89 0 -158.5 40t-69.5 112q0 50 30.5 87.5t79.5 55.5q-73 40 -73 114q0 61 49.5 100t141.5 39q93 0 157 -34v-120l-72 72q-34 34 -85 34
q-35 0 -58.5 -26t-23.5 -65q0 -40 29 -69.5t71 -31.5z" />
    <glyph glyph-name="dollar.allsmall" horiz-adv-x="443" 
d="M256 601v-114q13 0 17 -4l114 -25l-73 -84l-52 52q-15 17 -45 17q-25 0 -41 -14t-16 -33q0 -34 48 -59l100 -54q75 -41 75 -107q0 -54 -33 -88t-94 -44v-112h-62v111l-20 3l-130 29l76 89l56 -58q18 -17 54 -17q27 0 45.5 15.5t18.5 43.5q0 32 -46 56l-105 54
q-37 19 -56.5 49t-19.5 59q0 52 36.5 85t90.5 39v111h62z" />
    <glyph glyph-name="cent.allsmall" horiz-adv-x="463" 
d="M410 121l-5 -5q-42 -42 -111 -51v-131h-60v130q-78 7 -128 66t-50 136q0 76 50 136t128 67v130h60v-131q67 -3 112 -33v-120l-72 72q-32 32 -77 32q-48 0 -66 -40t-18 -109q1 -154 111 -154q49 0 87 34l3 4z" />
    <glyph glyph-name="Euro.allsmall" horiz-adv-x="547" 
d="M208 297q-1 -10 -1 -30q0 -19 1 -29h214v-52h-207q12 -61 44.5 -100t85.5 -39q43 0 80 33l76 76v-131q-55 -33 -156 -33q-92 0 -159 55t-91 139h-62v52h51q-1 10 -1 29q0 5 0.5 15t0.5 15h-51v52h62q25 83 92.5 138t157.5 55q93 0 156 -34v-130l-78 78q-35 31 -78 31
q-55 0 -87 -38t-44 -100h208v-52h-214z" />
    <glyph glyph-name="sterling.allsmall" horiz-adv-x="450" 
d="M404 0h-372l60 59v187h-64l64 64v85q0 59 39.5 100t97.5 41h141l-86 -99l-55 50q-35 -15 -35 -48v-127h122v-56h-122v-201h139l71 71v-126z" />
    <glyph glyph-name="yen.allsmall" horiz-adv-x="534" 
d="M220 252h-164v52h131l-110 171l-61 61h228l-56 -56l106 -171l103 170l-57 57h188l-60 -60l-108 -172h131v-52h-163l-3 -5v-54h166v-52h-166v-82l59 -59h-220l59 59v82h-167v52h167v55z" />
    <glyph glyph-name="florin.allsmall" horiz-adv-x="370" 
d="M385 536l-71 -101l-57 55q-41 -16 -41 -57v-121h83v-55h-83v-255q0 -65 -41 -109.5t-101 -44.5h-128l70 101l57 -54q42 15 42 56v296h-64l64 64v72q0 64 41 108.5t101 44.5h128z" />
    <glyph glyph-name="currency.allsmall" horiz-adv-x="547" 
d="M208 297q-1 -10 -1 -30q0 -19 1 -29h214v-52h-207q12 -61 44.5 -100t85.5 -39q43 0 80 33l76 76v-131q-55 -33 -156 -33q-92 0 -159 55t-91 139h-62v52h51q-1 10 -1 29q0 5 0.5 15t0.5 15h-51v52h62q25 83 92.5 138t157.5 55q93 0 156 -34v-130l-78 78q-35 31 -78 31
q-55 0 -87 -38t-44 -100h208v-52h-214z" />
    <glyph glyph-name="percent.allsmall" horiz-adv-x="576" 
d="M486 536v-79l-344 -426v-36h-48v87l326 405h-159q20 -28 20 -60q0 -43 -34.5 -75.5t-86.5 -32.5t-86.5 32.5t-34.5 75.5q0 44 34.5 76.5t86.5 32.5h326zM535 101q0 -43 -34.5 -75.5t-86.5 -32.5t-86.5 32.5t-34.5 75.5q0 44 34.5 76.5t86.5 32.5t86.5 -32.5t34.5 -76.5z
M160 502q-47 0 -47 -75t47 -75q45 0 45 75t-45 75zM414 176q-47 0 -47 -75t47 -75q45 0 45 75t-45 75z" />
    <glyph glyph-name="perthousand.allsmall" horiz-adv-x="850" 
d="M486 536v-79l-344 -426v-36h-48v87l326 405h-159q20 -28 20 -60q0 -43 -34.5 -75.5t-86.5 -32.5t-86.5 32.5t-34.5 75.5q0 44 34.5 76.5t86.5 32.5h326zM819 101q0 -43 -34.5 -75.5t-86.5 -32.5t-86.5 32.5t-34.5 75.5q0 44 34.5 76.5t86.5 32.5t86.5 -32.5t34.5 -76.5z
M535 101q0 -43 -34.5 -75.5t-86.5 -32.5t-86.5 32.5t-34.5 75.5q0 44 34.5 76.5t86.5 32.5t86.5 -32.5t34.5 -76.5zM698 176q-47 0 -47 -75t47 -75q45 0 45 75t-45 75zM414 176q-47 0 -47 -75t47 -75q45 0 45 75t-45 75zM160 502q-47 0 -47 -75t47 -75q45 0 45 75t-45 75z
" />
    <glyph glyph-name="less.allsmall" horiz-adv-x="350" 
d="M277 93l-205 211l205 211v-65l-107 -146l107 -146v-65z" />
    <glyph glyph-name="greater.allsmall" horiz-adv-x="350" 
d="M278 304l-205 -211v65l107 146l-107 146v65z" />
    <glyph glyph-name="degree.allsmall" horiz-adv-x="295" 
d="M261 435q0 -46 -33.5 -79.5t-79.5 -33.5q-47 0 -80.5 33t-33.5 80q0 46 33.5 80t80.5 34q46 0 79.5 -34t33.5 -80zM207 435q0 24 -18 41.5t-41 17.5q-25 0 -42 -17.5t-17 -41.5t17.5 -42t41.5 -18q23 0 41 18t18 42z" />
    <glyph glyph-name="ordfeminine.allsmall" horiz-adv-x="429" 
d="M14 168l46 44l130 326h47l127 -325l45 -45h-170l42 41l-22 59h-126l-22 -59l42 -41h-139zM242 312l-46 125l-47 -125h93z" />
    <glyph glyph-name="ordmasculine.allsmall" horiz-adv-x="488" 
d="M426 351q0 -77 -50.5 -135.5t-131.5 -58.5t-131.5 58.5t-50.5 135.5t50.5 135.5t131.5 58.5t131.5 -58.5t50.5 -135.5zM334 351q0 62 -21 106t-69 44q-49 0 -70.5 -44t-21.5 -106t21.5 -106t70.5 -44q48 0 69 44t21 106z" />
    <glyph glyph-name="colon.allsmall" horiz-adv-x="249" 
d="M184 390q0 -25 -17.5 -42.5t-42.5 -17.5t-42 17.5t-17 42.5t17 42.5t42 17.5t42.5 -17.5t17.5 -42.5zM184 50q0 -25 -17.5 -42.5t-42.5 -17.5t-42 17.5t-17 42.5t17 42.5t42 17.5t42.5 -17.5t17.5 -42.5z" />
    <glyph glyph-name="semicolon.allsmall" horiz-adv-x="249" 
d="M175 25l-105 -198v218q0 23 15.5 39t38.5 16q29 0 46 -25.5t5 -49.5zM184 390q0 -25 -17.5 -42.5t-42.5 -17.5t-42 17.5t-17 42.5t17 42.5t42 17.5t42.5 -17.5t17.5 -42.5z" />
    <glyph glyph-name="question.allsmall" horiz-adv-x="468" 
d="M416 407q0 -72 -68 -128l-124 -101v-25h-52v87l75 63q31 26 45.5 48.5t14.5 50.5q0 35 -29.5 58.5t-74.5 23.5q-30 0 -50 -10l-63 -61l-70 101l132 20q50 8 69 8q93 0 144 -37t51 -98zM202 102q23 0 39.5 -16t16.5 -39t-16.5 -39t-39.5 -16q-22 0 -38 16t-16 39t15.5 39
t38.5 16z" />
    <glyph glyph-name="questiondown.allsmall" horiz-adv-x="468" 
d="M320 490q0 -23 -16 -39t-39 -16t-39 16t-16 39t16 39t39 16t39 -16t16 -39zM447 23l-131 -20q-46 -7 -70 -7q-93 0 -144 37t-51 98q0 69 69 127l123 102v24h52v-87l-74 -63q-31 -26 -45.5 -48t-14.5 -50q0 -36 29.5 -59.5t74.5 -23.5q26 0 49 10l63 61z" />
    <glyph glyph-name="exclam.allsmall" horiz-adv-x="298" 
d="M209 543l-26 -390h-68l-26 390h120zM148 102q23 0 39.5 -16t16.5 -39t-16.5 -39t-39.5 -16q-22 0 -38 16t-16 39t15.5 39t38.5 16z" />
    <glyph glyph-name="exclamdown.allsmall" horiz-adv-x="298" 
d="M148 435q-23 0 -39.5 16t-16.5 39t16.5 39t39.5 16q22 0 38 -16t16 -39t-15.5 -39t-38.5 -16zM87 -1l26 385h68l26 -385h-120z" />
    <glyph glyph-name="bullet.allsmall" horiz-adv-x="348" 
d="M278 302q0 -43 -30.5 -73.5t-73.5 -30.5t-73.5 30.5t-30.5 73.5t30.5 73.5t73.5 30.5t73.5 -30.5t30.5 -73.5z" />
    <glyph glyph-name="asterisk.allsmall" horiz-adv-x="412" 
d="M182 415l-19 124h86l-19 -124l98 78l43 -74l-117 -46l117 -46l-43 -74l-98 78l19 -124h-86l19 124l-98 -78l-43 74l117 46l-117 46l43 74z" />
    <glyph glyph-name="dagger.allsmall" horiz-adv-x="389" 
d="M298 541l-65 -65v-140h70l60 61v-192l-60 61h-70v-415h-77v415h-69l-62 -61v192l62 -61h69v140l-64 65h206z" />
    <glyph glyph-name="daggerdbl.allsmall" horiz-adv-x="389" 
d="M363 -5l-60 61h-70v-205h-77v205h-69l-61 -61v192l61 -61h69v167h-69l-61 -61v193l61 -61h69v112l-64 65h206l-65 -65v-112h70l60 61v-193l-60 61h-70v-167h70l60 61v-192z" />
    <glyph glyph-name="quotesingle.allsmall" horiz-adv-x="237" 
d="M178 492l-54 -208l-53 208q-6 24 11 44.5t42 20.5t42.5 -20.5t11.5 -44.5z" />
    <glyph glyph-name="quotedbl.allsmall" horiz-adv-x="407" 
d="M348 490l-54 -208l-53 208q-6 25 10.5 46t42.5 21t43.5 -21t10.5 -46zM178 492l-54 -208l-53 208q-6 24 11 44.5t42 20.5t42.5 -20.5t11.5 -44.5z" />
    <glyph glyph-name="quoteleft.allsmall" horiz-adv-x="237" 
d="M176 559v-218q0 -22 -15.5 -37t-38.5 -15q-30 0 -46.5 24.5t-4.5 47.5z" />
    <glyph glyph-name="quoteright.allsmall" horiz-adv-x="237" 
d="M178 482l-105 -198v218q0 23 15.5 39t38.5 16q29 0 46 -26t5 -49z" />
    <glyph glyph-name="quotedblleft.allsmall" horiz-adv-x="407" 
d="M346 562v-218q0 -23 -15.5 -39t-38.5 -16q-29 0 -46 26t-5 49zM176 559v-218q0 -22 -15.5 -37t-38.5 -15q-30 0 -46.5 24.5t-4.5 47.5z" />
    <glyph glyph-name="quotedblright.allsmall" horiz-adv-x="407" 
d="M348 485l-105 -198v218q0 22 15.5 37t38.5 15q30 0 46.5 -24.5t4.5 -47.5zM178 482l-105 -198v218q0 23 15.5 39t38.5 16q29 0 46 -26t5 -49z" />
    <glyph glyph-name="parenleft.allsmall" horiz-adv-x="299" 
d="M281 -83l-21 -26q-203 136 -203 371q0 234 203 370l21 -26q-131 -142 -131 -344q0 -203 131 -345z" />
    <glyph glyph-name="parenright.allsmall" horiz-adv-x="299" 
d="M19 -83q131 142 131 345q0 202 -131 344l21 26q203 -136 203 -370q0 -235 -203 -371z" />
    <glyph glyph-name="bracketleft.allsmall" horiz-adv-x="247" 
d="M212 -98h-151v719h151v-35h-65v-649h65v-35z" />
    <glyph glyph-name="bracketright.allsmall" horiz-adv-x="247" 
d="M35 -98v35h65v649h-65v35h151v-719h-151z" />
    <glyph glyph-name="braceleft.allsmall" horiz-adv-x="312" 
d="M290 -91l-18 -22q-86 65 -110 120.5t-24 130.5q0 3 4 43l-107 82l107 79q-4 40 -4 43q0 37 3.5 61t15.5 57t40.5 65.5t74.5 67.5l18 -22q-37 -38 -49.5 -87t-13.5 -127l1 -65l-82 -73l82 -74q-1 -47 -1 -52q0 -85 12.5 -136.5t50.5 -90.5z" />
    <glyph glyph-name="braceright.allsmall" horiz-adv-x="312" 
d="M23 -91q38 39 50.5 90.5t12.5 136.5l-1 52l82 74l-82 73q1 56 1 65q-1 78 -13.5 127t-49.5 87l18 22q86 -65 110 -120.5t24 -130.5q0 -3 -4 -43l107 -79l-107 -82q4 -40 4 -43q0 -37 -3.5 -61t-15.5 -57t-40.5 -65.5t-74.5 -67.5z" />
    <glyph glyph-name="slash.allsmall" horiz-adv-x="380" 
d="M351 545l-256 -554h-66l256 554h66z" />
    <glyph glyph-name="backslash.allsmall" horiz-adv-x="380" 
d="M350 -10h-66l-255 556h65z" />
    <glyph glyph-name="bar.allsmall" horiz-adv-x="314" 
d="M190 -77h-64v664h64v-664z" />
    <glyph glyph-name="brokenbar.allsmall" horiz-adv-x="314" 
d="M190 317h-64v270h64v-270zM190 -77h-64v270h64v-270z" />
    <glyph glyph-name="ampersand.allsmall" horiz-adv-x="573" 
d="M409 149q17 40 17 101l-55 55h162l-54 -54v-2q0 -86 -31 -144l40 -47l65 -58h-142l-28 32q-57 -38 -141 -38t-140 41t-56 112q0 103 112 149q-51 68 -51 121q0 62 48.5 94t121.5 32q70 0 150 -34v-121l-87 81q-27 24 -62 24q-32 0 -51 -17.5t-19 -51.5q0 -41 53 -103z
M193 253q-45 -42 -45 -102q0 -44 33 -73.5t81 -29.5q49 0 86 25z" />
    <glyph glyph-name="section.allsmall" horiz-adv-x="445" 
d="M401 521l-65 -93l-61 59q-22 8 -37 8q-36 0 -57.5 -16t-21.5 -47q0 -36 63 -72l93 -55q81 -46 81 -118q0 -77 -69 -115q47 -40 47 -92q0 -51 -40.5 -92.5t-119.5 -41.5q-27 0 -39 3l-127 21l66 93l61 -59q20 -8 36 -8q36 0 57.5 16t21.5 47q0 36 -62 72l-94 55
q-81 47 -81 118q0 77 69 115q-46 41 -46 92t40 92.5t119 41.5q21 0 39 -3zM319 164q0 21 -15.5 37t-52.5 37l-85 50q-36 -18 -36 -61q0 -21 15.5 -37t52.5 -37l85 -50q36 18 36 61z" />
    <glyph glyph-name="paragraph.allsmall" horiz-adv-x="511" 
d="M462 -149h-128v632h-72v-632h-128l64 64v300q-67 1 -114 48t-47 112t49 112t118 47h258l-64 -64v-555z" />
    <glyph glyph-name="numbersign.allsmall" horiz-adv-x="462" 
d="M411 413l-20 -79h-58l-24 -129h61l-21 -78h-56l-27 -131h-49l27 131h-89l-25 -131h-50l25 131h-62l21 78h57l25 129h-61l20 79h57l26 129h50l-27 -129h88l27 129h50l-27 -129h62zM283 334h-88l-25 -129h90z" />
    <glyph glyph-name="copyright.allsmall" horiz-adv-x="694" 
d="M642 272q0 -122 -86.5 -208.5t-208.5 -86.5q-121 0 -208 86.5t-87 208.5q0 121 87 207.5t208 86.5q122 0 208.5 -86.5t86.5 -207.5zM603 272q0 106 -75 180.5t-181 74.5t-181 -74.5t-75 -180.5t75 -181t181 -75t181 75t75 181zM452 122q-46 -22 -97 -22q-71 0 -118 52.5
t-47 119.5q0 68 47.5 120t122.5 52q44 0 92 -21v-93l-54 54q-17 19 -43 19q-45 0 -64 -38t-19 -93q0 -53 20 -92t63 -39q27 0 43 18l54 53v-90z" />
    <glyph glyph-name="registered.allsmall" horiz-adv-x="556" 
d="M526 298q0 -103 -73 -175.5t-175 -72.5q-103 0 -175.5 72.5t-72.5 175.5q0 102 72.5 175t175.5 73q102 0 175 -73t73 -175zM491 298q0 88 -62.5 150.5t-150.5 62.5q-89 0 -151.5 -62t-62.5 -151t62.5 -151.5t151.5 -62.5t151 62.5t62 151.5zM420 162h-74l-72 123h-29v-92
l31 -31h-116l32 31v213l-32 30h113q45 0 76.5 -20t31.5 -56q1 -22 -15 -39.5t-40 -25.5l62 -100zM271 407h-26v-92h26q22 0 36.5 13.5t14.5 32.5t-14 32.5t-37 13.5z" />
    <glyph glyph-name="trademark.allsmall" horiz-adv-x="780" 
d="M739 232h-153l42 43v168l-96 -158l-99 159v-169l42 -43h-133l43 43v216l-43 43h114l88 -140l89 140h106l-43 -43v-216zM295 440l-50 51h-41v-216l42 -43h-154l43 43v216h-42l-50 -51v94h252v-94z" />
    <glyph glyph-name="mu.allsmall" horiz-adv-x="570" 
d="M82 478l-58 58h218l-58 -58v-314q0 -50 31.5 -83t86.5 -33q53 0 84.5 33t31.5 83v314l-58 58h186l-58 -58v-314q0 -78 -58 -126.5t-145 -48.5q-57 0 -101 36v-115l59 -59h-220l59 59v568z" />
    <glyph glyph-name="partialdiff.allsmall" horiz-adv-x="499" 
d="M44 174q0 71 49 117.5t118 46.5q66 0 109 -34q-45 193 -209 206l14 47q74 -2 136.5 -35.5t102.5 -85t62 -111.5t22 -117q0 -98 -54.5 -158t-153.5 -60q-76 0 -136 49.5t-60 134.5zM242 283q-87 0 -87 -119q0 -58 23 -92t62 -34q94 0 94 142q0 50 -28.5 76.5t-63.5 26.5z
" />
    <glyph glyph-name="asuperior" horiz-adv-x="329" 
d="M320 311h-113v45l-41 -29q-31 -23 -67 -23q-32 0 -52 23t-20 61q0 44 37 72.5t88 28.5h55v37q0 19 -13 31.5t-33 12.5q-26 0 -45 -17l-63 -57v84q46 26 112 26q47 0 80 -22.5t33 -59.5v-173zM207 392v63h-40q-31 0 -49.5 -16.5t-18.5 -46.5q0 -19 8.5 -30t22.5 -11
q17 0 36 12z" />
    <glyph glyph-name="bsuperior" horiz-adv-x="356" 
d="M328 455q0 -61 -35 -106t-92 -45q-54 0 -92 41l-61 -47v368l-37 38l109 35v-169q34 36 81 36q57 0 92 -45t35 -106zM245 455q0 109 -61 109q-40 0 -64 -41v-136q24 -41 64 -41q61 0 61 109z" />
    <glyph glyph-name="csuperior" horiz-adv-x="304" 
d="M280 348q-45 -44 -111 -44q-61 0 -101 44t-40 107q0 62 39.5 106.5t98.5 44.5q56 0 111 -26v-84l-62 56q-20 18 -45 18q-19 0 -31.5 -9t-18 -27t-7.5 -35t-2 -41q0 -115 79 -115q37 0 66 29z" />
    <glyph glyph-name="dsuperior" horiz-adv-x="358" 
d="M349 311h-113v29q-34 -36 -81 -36q-57 0 -92 45t-35 106t35 106t92 45q47 0 81 -36v96l-38 38l109 35v-386zM236 386v136q-26 42 -65 42q-60 0 -60 -109t60 -109q41 0 65 40z" />
    <glyph glyph-name="esuperior" horiz-adv-x="331" 
d="M300 361q-55 -57 -128 -57q-67 0 -105.5 43.5t-38.5 106.5q0 62 39 107t106 45q66 0 102.5 -43.5t18.5 -107.5h-184q0 -112 81 -112q51 0 84 42zM225 507q0 63 -52 63q-55 0 -63 -79h112q3 12 3 16z" />
    <glyph glyph-name="fsuperior" horiz-adv-x="223" 
d="M264 732l-60 -71l-40 37q-27 -10 -27 -36v-64h57v-35h-57v-210l42 -42h-156l42 42v196h-48l48 46v33q0 43 29 73.5t70 30.5h100z" />
    <glyph glyph-name="gsuperior" horiz-adv-x="313" 
d="M307 598l-47 -44q15 -21 15 -44q0 -40 -39 -64.5t-88 -24.5q-4 0 -8 0.5t-6 0.5v-44q16 2 26 2q57 1 94.5 -22t37.5 -65q0 -44 -43 -68t-104 -24q-31 0 -65 7l-81 16l70 60l37 -40q20 -5 39 -5q36 0 60.5 11t24.5 30q0 36 -69 38q-43 0 -83 -9v126q-24 10 -40 29.5
t-16 45.5q0 40 38.5 64t87.5 24h159zM202 510q0 23 -15.5 40.5t-38.5 17.5t-38 -17.5t-15 -40.5q0 -24 15 -41.5t38 -17.5t38.5 18t15.5 41z" />
    <glyph glyph-name="isuperior" horiz-adv-x="193" 
d="M99 712q15 0 25.5 -11t10.5 -26t-10.5 -25.5t-25.5 -10.5t-26 10.5t-11 25.5t11 26t26 11zM176 311h-155l42 42v178l-37 38l109 39v-255z" />
    <glyph glyph-name="ksuperior" horiz-adv-x="345" 
d="M351 311h-126v32l-101 96v-86l42 -42h-155l42 42v312l-38 37l109 37v-276l113 104l-36 31h128l-144 -131z" />
    <glyph glyph-name="lsuperior" horiz-adv-x="192" 
d="M174 311h-155l42 42v312l-38 37l109 37v-386z" />
    <glyph glyph-name="msuperior" horiz-adv-x="508" 
d="M499 311h-113v212q0 33 -23 33q-16 0 -44 -26l-28 -26v-151l42 -42h-113v212q0 33 -23 33q-16 0 -44 -26l-28 -26v-151l42 -42h-155l41 42v178l-38 38l110 39v-62l19 19q41 41 79 41q58 0 67 -60l20 19q44 41 80 41q67 0 67 -81v-172z" />
    <glyph glyph-name="osuperior" horiz-adv-x="364" 
d="M336 455q0 -62 -44.5 -106.5t-110.5 -44.5q-65 0 -109 44.5t-44 106.5t44 106.5t109 44.5q66 0 110.5 -44.5t44.5 -106.5zM253 455q0 117 -72 117q-70 0 -70 -117t70 -117q72 0 72 117z" />
    <glyph glyph-name="psuperior" horiz-adv-x="358" 
d="M330 455q0 -61 -35 -106t-92 -45q-48 0 -81 36v-97l42 -42h-155l42 42v288l-38 37l109 38v-36q34 36 81 36q57 0 92 -45t35 -106zM248 455q0 109 -62 109q-40 0 -64 -41v-136q24 -41 64 -41q62 0 62 109z" />
    <glyph glyph-name="qsuperior" horiz-adv-x="354" 
d="M349 201h-155l42 42v97q-33 -36 -81 -36q-57 0 -92 45t-35 106t35 106t92 45t91 -42l61 48v-369zM236 386v136q-26 42 -65 42q-60 0 -60 -109t60 -109q41 0 65 40z" />
    <glyph glyph-name="rsuperior" horiz-adv-x="263" 
d="M244 494l-71 64l-48 -42v-163l42 -42h-155l41 42v178l-37 38l109 39v-49l15 15q32 32 73 32q15 0 31 -6v-106z" />
    <glyph glyph-name="ssuperior" horiz-adv-x="272" 
d="M250 579l-47 -55l-31 32q-16 16 -37 16q-41 0 -41 -31q0 -20 28 -35l59 -30q64 -34 64 -81q0 -39 -31.5 -65t-79.5 -26q-26 0 -54 8l-69 20l44 59l36 -38q15 -15 45 -15q20 0 33.5 9.5t13.5 26.5q0 22 -36 39l-62 31q-55 28 -55 77q0 41 31.5 63t71.5 22q28 0 57 -9z" />
    <glyph glyph-name="tsuperior" horiz-adv-x="233" 
d="M140 678v-80h77v-35h-77v-202q4 -14 9 -14q23 -3 47 25l20 -20q-24 -47 -75 -47q-32 0 -52.5 19t-20.5 50v181h-61z" />
    <glyph glyph-name="usuperior" horiz-adv-x="354" 
d="M345 311h-114v50l-18 -18q-41 -39 -85 -39q-37 0 -57.5 21.5t-20.5 58.5v148l-37 37l109 39v-217q0 -38 29 -38q23 0 52 26l28 26v127l-37 37l109 39v-256z" />
    <glyph glyph-name="vsuperior" horiz-adv-x="327" 
d="M336 598l-44 -41l-108 -246h-39l-107 246l-44 41h163l-40 -39l63 -154l65 154l-40 39h131z" />
    <glyph glyph-name="zsuperior" horiz-adv-x="276" 
d="M261 598l-153 -251h85l56 56v-92h-236l154 252h-76l-56 -57v92h226z" />
    <glyph glyph-name="orn.001" 
d="M355 485l55 252l55 -252l218 139l-139 -218l252 -55l-252 -55l139 -218l-218 139l-55 -252l-55 252l-218 -139l139 218l-252 55l252 55l-139 218z" />
    <glyph glyph-name="orn.002" 
d="M358 477l-5 35q-1 11 -5 32.5t-6.5 36.5t-3 32.5t4.5 27.5q8 16 24.5 40t29.5 40l13 16q53 -63 67 -96q5 -10 4.5 -27.5t-3 -32.5t-6.5 -36.5t-5 -32.5l-5 -35l22 28q3 5 23 34t33.5 44t27.5 20q17 7 45.5 12t48.5 7l21 2q-7 -82 -21 -115q-5 -14 -20 -27.5t-44 -33.5
t-34 -23q-25 -20 -29 -22l36 5q11 1 32.5 5t36.5 6.5t32.5 3t27.5 -4.5q16 -8 40 -24.5t40 -29.5l16 -13q-63 -53 -96 -67q-10 -5 -27.5 -4.5t-32.5 3t-36.5 6.5t-32.5 5l-35 5l28 -22q5 -3 34 -23t44 -33.5t20 -27.5q7 -17 12 -45.5t7 -49.5l2 -20q-82 7 -115 21
q-14 5 -27.5 20t-33.5 44t-23 34l-22 28l1 -9q1 -8 3 -17l1 -9q1 -11 5 -32.5t6.5 -36.5t3 -32.5t-4.5 -27.5q-8 -16 -24.5 -40t-29.5 -40l-13 -16q-53 63 -67 96q-5 10 -4.5 27.5t3 32.5t6.5 36.5t5 32.5l5 35l-22 -28q-3 -5 -23 -34t-33.5 -44t-27.5 -20q-17 -7 -45.5 -12
t-48.5 -7l-21 -2q7 82 21 115q5 14 20 27.5t44 33.5t34 23l28 22l-35 -5q-11 -1 -32.5 -5t-36.5 -6.5t-32.5 -3t-27.5 4.5q-16 8 -40 24.5t-40 29.5l-16 13q63 53 96 67q10 5 27.5 4.5t32.5 -3t36.5 -6.5t32.5 -5l35 -5l-28 22q-5 3 -34 23t-44 33.5t-20 27.5
q-7 17 -12 45.5t-7 49.5l-2 20q82 -7 115 -21q14 -5 27.5 -20t33.5 -44t23 -34z" />
    <glyph glyph-name="orn.003" 
d="M356 482l-2 36q0 7 -2 36.5t-2.5 43t0 39.5t4 40t10 30t18.5 23t28 7t28 -7t18.5 -23t10 -30t4 -40t0 -39.5t-2.5 -43t-2 -36.5l-2 -35l24 26q6 6 24.5 27.5t28.5 31.5t28.5 28t31 25.5t28 14t29 3.5t25.5 -15t15 -25.5t-3.5 -29t-14 -28t-25.5 -31t-28 -28.5
t-31.5 -28.5t-27.5 -24.5l-27 -24l36 2q7 0 36.5 2t43 2.5t39.5 0t40 -4t30 -10t23 -18.5t7 -28t-7 -28t-23 -18.5t-30 -10t-40 -4t-39.5 0t-43 2.5t-36.5 2l-35 2l26 -24q6 -6 27.5 -24.5t31.5 -28.5t28 -28.5t25.5 -31t14 -28t3.5 -29t-15 -25.5t-25.5 -15t-29 3.5t-28 14
t-31 25.5t-28.5 28t-28.5 31.5t-24.5 27.5l-24 26l2 -35q0 -7 2 -36.5t2.5 -43t0 -39.5t-4 -40t-10 -30t-18.5 -23t-28 -7t-28 7t-18.5 23t-10 30t-4 40t0 39.5t2.5 43t2 36.5l2 35l-24 -26q-6 -6 -24.5 -27.5t-28.5 -31.5t-28.5 -28t-31 -25.5t-28 -14t-29 -3.5t-25.5 15
t-15 25.5t3.5 29t14 28t25.5 31t28 28.5t31.5 28.5t27.5 24.5l26 24l-35 -2q-7 0 -36.5 -2t-43 -2.5t-39.5 0t-40 4t-30 10t-23 18.5t-7 28t7 28t23 18.5t30 10t40 4t39.5 0t43 -2.5t36.5 -2l35 -2l-26 24q-6 6 -27.5 24.5t-31.5 28.5t-28 28.5t-25.5 31t-14 28t-3.5 29
t15 25.5t25.5 15t29 -3.5t28 -14t31 -25.5t28.5 -28t28.5 -31.5t24.5 -27.5z" />
    <glyph glyph-name="orn.004" 
d="M340 518l70 219l70 -218l203 105l-106 -203l219 -70l-218 -70l105 -203l-203 105l-70 -218l-70 218l-203 -105l105 203l-218 70l218 70l-105 203z" />
    <glyph glyph-name="orn.005" 
d="M340 520q-11 89 3 121q8 16 24.5 40t29.5 40l13 16q53 -63 67 -96q14 -32 3 -121q58 72 88 83q17 7 45.5 12t48.5 7l21 2q-7 -82 -21 -115q-11 -30 -83 -88q89 11 121 -3q16 -8 40 -24.5t40 -29.5l16 -13q-63 -53 -96 -67q-32 -14 -121 -3q72 -58 83 -88q7 -17 12 -45.5
t7 -49.5l2 -20q-82 7 -115 21q-30 11 -88 83q11 -89 -3 -121q-8 -16 -24.5 -40t-29.5 -40l-13 -16q-53 63 -67 96q-14 32 -3 121q-58 -72 -88 -83q-17 -7 -45.5 -12t-48.5 -7l-21 -2q7 82 21 115q11 30 83 88q-89 -11 -121 3q-16 8 -40 24.5t-40 29.5l-16 13q63 53 96 67
q32 14 121 3q-72 58 -83 88q-7 17 -12 45.5t-7 49.5l-2 20q82 -7 115 -21q30 -11 88 -83z" />
    <glyph glyph-name="orn.006" 
d="M340 520q-3 30 -1 67.5t6 70.5t21 56t44 23t44 -22.5t21 -56t6 -71t-1 -67.5q76 80 113 103q57 34 90 1q15 -15 16 -35t-11 -42t-27.5 -42t-37.5 -42t-37 -36q-5 -4 -7 -6q30 3 67.5 1t70.5 -6t56 -21t23 -44t-22.5 -44t-56 -21t-71 -6t-67.5 1q80 -76 103 -113
q34 -57 1 -90q-15 -15 -35 -16t-42 11t-42 27.5t-42 37.5t-36 37q-4 5 -6 7q3 -30 1 -67.5t-6 -70.5t-21 -56t-44 -23t-44 22.5t-21 55.5t-6 70.5t1 67.5q-73 -76 -108 -98q-61 -39 -95 -5q-15 15 -16 35t11 42t27.5 42t37.5 42t37 36q5 4 7 6q-30 -3 -67.5 -1t-70.5 6
t-56 21t-23 44t22.5 44t55.5 21t70.5 6t67.5 -1q-76 73 -98 108q-39 61 -5 95q15 15 35 16t42 -11t42 -27.5t42 -37.5t36 -37q4 -5 6 -7z" />
    <glyph glyph-name="orn.007" 
d="M328 550l82 187l82 -187l191 74l-74 -191l187 -82l-187 -82l74 -191l-191 74l-82 -187l-82 187l-191 -74l74 191l-187 82l187 82l-74 191z" />
    <glyph glyph-name="orn.008" 
d="M327 551q0 56 16 90q8 16 24.5 40t29.5 40l13 16q53 -63 67 -96q16 -34 16 -90q38 38 75 52q17 7 45.5 12t48.5 7l21 2q-7 -82 -21 -115q-14 -37 -52 -75q56 0 90 -16q16 -8 40 -24.5t40 -29.5l16 -13q-63 -53 -96 -67q-34 -16 -90 -16q38 -38 52 -75q7 -17 12 -45.5
t7 -49.5l2 -20q-82 7 -115 21q-37 14 -75 52q0 -56 -16 -90q-8 -16 -24.5 -40t-29.5 -40l-13 -16q-53 63 -67 96q-16 34 -16 90q-38 -38 -75 -52q-17 -7 -45.5 -12t-48.5 -7l-21 -2q7 82 21 115q14 37 52 75q-56 0 -90 16q-16 8 -40 24.5t-40 29.5l-16 13q63 53 96 67
q34 16 90 16q-38 38 -52 75q-7 17 -12 45.5t-7 49.5l-2 20q82 -7 115 -21q37 -14 75 -52z" />
    <glyph glyph-name="orn.009" 
d="M327 551q0 36 2 62t9.5 58t25.5 49t46 17t46 -18t25.5 -50.5t9.5 -57.5t2 -60q20 20 35 33.5t38 30.5t41.5 23.5t39 4t36.5 -18.5t18 -37t-5 -39.5t-23.5 -42t-30 -38t-32.5 -33.5q36 0 62 -2t58 -9.5t49 -25.5t17 -46t-18 -46t-50.5 -25.5t-57.5 -9.5t-60 -2
q20 -20 33.5 -35t30.5 -38t23.5 -41.5t4 -39t-18.5 -36.5t-37 -18t-39.5 5t-42 23.5t-38 30t-33.5 32.5q0 -36 -2 -62t-9.5 -58t-25.5 -49t-46 -17t-46 18t-25.5 50.5t-9.5 57.5t-2 60q-20 -20 -35 -33.5t-38 -30.5t-41.5 -23.5t-39 -4t-36.5 18.5t-18 37t5 39.5t23.5 42
t30 38t32.5 33.5q-36 0 -62 2t-58 9.5t-49 25.5t-17 46t18 46t50.5 25.5t57.5 9.5t60 2q-20 20 -33.5 35t-30.5 38t-23.5 41.5t-4 39t18.5 36.5t37 18t39.5 -5t42 -23.5t38 -30t33.5 -32.5z" />
    <glyph glyph-name="orn.010" 
d="M327 551q0 29 1 48.5t5.5 48t12.5 46t24.5 30.5t39.5 13q28 0 46.5 -18t25.5 -51t9 -57.5t2 -59.5q23 23 70.5 41t83.5 25l36 7q-3 -16 -8.5 -41t-24.5 -76.5t-40 -72.5q29 0 48.5 -1t48 -5.5t46 -12.5t30.5 -24.5t13 -39.5q0 -28 -18 -46.5t-51 -25.5t-57.5 -9t-59.5 -2
q23 -23 41 -70.5t25 -83.5l7 -36q-16 3 -41 8.5t-76.5 24.5t-72.5 40q0 -29 -1 -48.5t-5.5 -48t-12.5 -46t-24.5 -30.5t-39.5 -13q-28 0 -46.5 18t-25.5 51t-9 57.5t-2 59.5q-23 -23 -70.5 -41t-83.5 -25l-36 -7q3 16 8.5 41t24.5 76.5t40 72.5q-29 0 -48.5 1t-48 5.5
t-46 12.5t-30.5 24.5t-13 39.5q0 28 18 46.5t51 25.5t57.5 9t59.5 2q-23 23 -41 70.5t-25 83.5l-7 36q16 -3 41 -8.5t76.5 -24.5t72.5 -40z" />
    <glyph glyph-name="orn.011" 
d="M327 551q0 33 20.5 79.5t41.5 76.5l21 30q9 -13 23 -34.5t37 -71t23 -80.5q20 20 34 33t38 30.5t42 24t39 4t37 -18.5t18 -37.5t-5 -40t-24.5 -42t-30 -37.5t-31.5 -33q33 0 79.5 -21t76.5 -41l30 -21q-13 -9 -34.5 -23t-71 -37t-80.5 -23q20 -20 33 -34t30.5 -38t24 -42
t4 -39t-18.5 -37t-37.5 -18t-40 5t-42 24.5t-37.5 30t-33 31.5q0 -33 -20.5 -79.5t-41.5 -76.5l-21 -30q-9 13 -23 34.5t-37 71t-23 80.5q-20 -20 -34 -33t-38 -30.5t-42 -24t-39 -4t-37 18.5t-18 37.5t5 40t24.5 42t30 37.5t31.5 33q-33 0 -79.5 21t-76.5 41l-30 21
q13 9 34.5 23t71 37t80.5 23q-20 20 -33 34t-30.5 38t-24 42t-4 39t18.5 37t37.5 18t40 -5t42 -24.5t37.5 -30t33 -31.5z" />
    <glyph glyph-name="orn.012" 
d="M328 550l82 187l82 -187l191 74l-74 -191l187 -82l-187 -82l74 -191l-191 74l-82 -187l-82 187l-191 -74l74 191l-187 82l187 82l-74 191zM448 444l-38 86l-38 -86l-89 34l33 -89l-85 -38l85 -38l-33 -89l89 33l38 -85l38 85l89 -33l-34 89l86 38l-86 38l34 89z" />
    <glyph glyph-name="orn.013" 
d="M327 551q0 56 16 90q8 16 24.5 40t29.5 40l13 16q53 -63 67 -96q16 -34 16 -90q38 38 75 52q17 7 45.5 12t48.5 7l21 2q-7 -82 -21 -115q-14 -37 -52 -75q56 0 90 -16q16 -8 40 -24.5t40 -29.5l16 -13q-63 -53 -96 -67q-34 -16 -90 -16q38 -38 52 -75q7 -17 12 -45.5
t7 -49.5l2 -20q-82 7 -115 21q-37 14 -75 52q0 -56 -16 -90q-8 -16 -24.5 -40t-29.5 -40l-13 -16q-53 63 -67 96q-16 34 -16 90q-38 -38 -75 -52q-17 -7 -45.5 -12t-48.5 -7l-21 -2q7 82 21 115q14 37 52 75q-56 0 -90 16q-16 8 -40 24.5t-40 29.5l-16 13q63 53 96 67
q34 16 90 16q-38 38 -52 75q-7 17 -12 45.5t-7 49.5l-2 20q82 -7 115 -21q37 -14 75 -52zM372 444q-22 20 -35 24l-53 9q3 -36 9 -53q4 -13 24 -35q-26 0 -41 -7q-8 -4 -19 -11.5t-19 -13.5l-7 -6q28 -23 45 -31q15 -7 41 -7q-20 -22 -24 -35l-9 -53q36 3 53 9q13 4 35 24
q0 -26 7 -41q4 -8 11.5 -19t13.5 -18l6 -8q23 28 31 45q7 15 7 41q22 -20 35 -24l53 -9q-3 36 -9 53q-4 13 -24 35q26 0 41 7q8 4 19 11.5t19 13.5l7 6q-28 23 -45 31q-15 7 -41 7q20 22 24 35l9 53q-36 -3 -53 -9q-13 -4 -35 -24q0 26 -7 41q-4 8 -11.5 19t-13.5 18l-6 8
q-23 -28 -31 -45q-7 -15 -7 -41z" />
    <glyph glyph-name="orn.014" 
d="M327 551q0 36 2 62t9.5 58t25.5 49t46 17t46 -18t25.5 -50.5t9.5 -57.5t2 -60q20 20 35 33.5t38 30.5t41.5 23.5t39 4t36.5 -18.5t18 -37t-5 -39.5t-23.5 -42t-30 -38t-32.5 -33.5q36 0 62 -2t58 -9.5t49 -25.5t17 -46t-18 -46t-50.5 -25.5t-57.5 -9.5t-60 -2
q20 -20 33.5 -35t30.5 -38t23.5 -41.5t4 -39t-18.5 -36.5t-37 -18t-39.5 5t-42 23.5t-38 30t-33.5 32.5q0 -36 -2 -62t-9.5 -58t-25.5 -49t-46 -17t-46 18t-25.5 50.5t-9.5 57.5t-2 60q-20 -20 -35 -33.5t-38 -30.5t-41.5 -23.5t-39 -4t-36.5 18.5t-18 37t5 39.5t23.5 42
t30 38t32.5 33.5q-36 0 -62 2t-58 9.5t-49 25.5t-17 46t18 46t50.5 25.5t57.5 9.5t60 2q-20 20 -33.5 35t-30.5 38t-23.5 41.5t-4 39t18.5 36.5t37 18t39.5 -5t42 -23.5t38 -30t33.5 -32.5zM458 467q0 108 -48 108t-48 -108q-77 77 -110 42q-35 -33 42 -110q-108 0 -108 -48
t108 -48q-77 -77 -42 -110q33 -35 110 42q0 -108 48 -108t48 108q77 -77 110 -42q35 33 -42 110q108 0 108 48t-108 48q77 77 42 110q-33 35 -110 -42z" />
    <glyph glyph-name="orn.015" 
d="M327 551q0 29 1 48.5t5.5 48t12.5 46t24.5 30.5t39.5 13q28 0 46.5 -18t25.5 -51t9 -57.5t2 -59.5q23 23 70.5 41t83.5 25l36 7q-3 -16 -8.5 -41t-24.5 -76.5t-40 -72.5q29 0 48.5 -1t48 -5.5t46 -12.5t30.5 -24.5t13 -39.5q0 -28 -18 -46.5t-51 -25.5t-57.5 -9t-59.5 -2
q23 -23 41 -70.5t25 -83.5l7 -36q-16 3 -41 8.5t-76.5 24.5t-72.5 40q0 -29 -1 -48.5t-5.5 -48t-12.5 -46t-24.5 -30.5t-39.5 -13q-28 0 -46.5 18t-25.5 51t-9 57.5t-2 59.5q-23 -23 -70.5 -41t-83.5 -25l-36 -7q3 16 8.5 41t24.5 76.5t40 72.5q-29 0 -48.5 1t-48 5.5
t-46 12.5t-30.5 24.5t-13 39.5q0 28 18 46.5t51 25.5t57.5 9t59.5 2q-23 23 -41 70.5t-25 83.5l-7 36q16 -3 41 -8.5t76.5 -24.5t72.5 -40zM362 467q-12 12 -39.5 22.5t-48.5 14.5l-22 5q15 -83 42 -110q-108 0 -108 -48t108 -48q-12 -12 -22.5 -39.5t-15.5 -49.5l-4 -21
q83 15 110 42q0 -108 48 -108t48 108q12 -12 39.5 -22.5t48.5 -14.5l22 -5q-15 83 -42 110q108 0 108 48t-108 48q12 12 22.5 39.5t15.5 49.5l4 21q-83 -15 -110 -42q0 108 -48 108t-48 -108z" />
    <glyph glyph-name="orn.016" 
d="M327 551q0 33 20.5 79.5t41.5 76.5l21 30q9 -13 23 -34.5t37 -71t23 -80.5q20 20 34 33t38 30.5t42 24t39 4t37 -18.5t18 -37.5t-5 -40t-24.5 -42t-30 -37.5t-31.5 -33q33 0 79.5 -21t76.5 -41l30 -21q-13 -9 -34.5 -23t-71 -37t-80.5 -23q20 -20 33 -34t30.5 -38t24 -42
t4 -39t-18.5 -37t-37.5 -18t-40 5t-42 24.5t-37.5 30t-33 31.5q0 -33 -20.5 -79.5t-41.5 -76.5l-21 -30q-9 13 -23 34.5t-37 71t-23 80.5q-20 -20 -34 -33t-38 -30.5t-42 -24t-39 -4t-37 18.5t-18 37.5t5 40t24.5 42t30 37.5t31.5 33q-33 0 -79.5 21t-76.5 41l-30 21
q13 9 34.5 23t71 37t80.5 23q-20 20 -33 34t-30.5 38t-24 42t-4 39t18.5 37t37.5 18t40 -5t42 -24.5t37.5 -30t33 -31.5zM362 467q-76 76 -110 42t42 -110q-18 0 -45 -12t-45 -24l-18 -12q70 -48 108 -48q-76 -76 -42 -110t110 42q0 -18 12 -45t24 -45l12 -18q48 70 48 108
q76 -76 110 -42t-42 110q18 0 45 12t45 24l18 12q-70 48 -108 48q76 76 42 110t-110 -42q0 18 -12 45t-24 45l-12 18q-48 -70 -48 -108z" />
    <glyph glyph-name="orn.017" 
d="M328 550l82 187l82 -187l191 74l-74 -191l187 -82l-187 -82l74 -191l-191 74l-82 -187l-82 187l-191 -74l74 191l-187 82l187 82l-74 191zM457 465l-47 109l-47 -109l-111 44l44 -111l-109 -47l109 -47l-44 -111l110 44l48 -109l47 109l111 -44l-44 110l109 48l-109 47
l44 111zM489 351l-80 -80l-80 80l80 80z" />
    <glyph glyph-name="orn.018" 
d="M327 551q0 56 16 90q8 16 24.5 40t29.5 40l13 16q53 -63 67 -96q16 -34 16 -90q38 38 75 52q17 7 45.5 12t48.5 7l21 2q-7 -82 -21 -115q-14 -37 -52 -75q56 0 90 -16q16 -8 40 -24.5t40 -29.5l16 -13q-63 -53 -96 -67q-34 -16 -90 -16q38 -38 52 -75q7 -17 12 -45.5
t7 -49.5l2 -20q-82 7 -115 21q-37 14 -75 52q0 -56 -16 -90q-8 -16 -24.5 -40t-29.5 -40l-13 -16q-53 63 -67 96q-16 34 -16 90q-38 -38 -75 -52q-17 -7 -45.5 -12t-48.5 -7l-21 -2q7 82 21 115q14 37 52 75q-56 0 -90 16q-16 8 -40 24.5t-40 29.5l-16 13q63 53 96 67
q34 16 90 16q-38 38 -52 75q-7 17 -12 45.5t-7 49.5l-2 20q82 -7 115 -21q37 -14 75 -52zM362 467q-22 22 -43 30q-10 4 -26.5 7t-28.5 4l-12 1q4 -45 12 -67q8 -21 30 -43q-33 0 -51 -9q-10 -4 -24 -14t-23 -18l-10 -7q35 -29 57 -39q18 -9 51 -9q-22 -22 -30 -43
q-4 -10 -7 -26.5t-4 -28.5l-1 -12q45 4 67 12q21 8 43 30q0 -33 9 -51q4 -10 14 -24t17 -24l8 -9q29 35 39 57q9 18 9 51q22 -22 43 -30q10 -4 26.5 -7t28.5 -4l12 -1q-4 45 -12 67q-8 21 -30 43q33 0 51 9q10 4 24 14t23 18l10 7q-35 29 -57 39q-18 9 -51 9q22 22 30 43
q4 10 7 26.5t4 28.5l1 12q-45 -4 -67 -12q-21 -8 -43 -30q0 33 -9 51q-4 10 -14 24t-17 24l-8 9q-29 -35 -39 -57q-9 -18 -9 -51zM490 351q0 -33 -23.5 -56.5t-56.5 -23.5t-56.5 23.5t-23.5 56.5t23.5 56.5t56.5 23.5t56.5 -23.5t23.5 -56.5z" />
    <glyph glyph-name="orn.019" 
d="M327 551q0 36 2 62t9.5 58t25.5 49t46 17t46 -18t25.5 -50.5t9.5 -57.5t2 -60q20 20 35 33.5t38 30.5t41.5 23.5t39 4t36.5 -18.5t18 -37t-5 -39.5t-23.5 -42t-30 -38t-32.5 -33.5q36 0 62 -2t58 -9.5t49 -25.5t17 -46t-18 -46t-50.5 -25.5t-57.5 -9.5t-60 -2
q20 -20 33.5 -35t30.5 -38t23.5 -41.5t4 -39t-18.5 -36.5t-37 -18t-39.5 5t-42 23.5t-38 30t-33.5 32.5q0 -36 -2 -62t-9.5 -58t-25.5 -49t-46 -17t-46 18t-25.5 50.5t-9.5 57.5t-2 60q-20 -20 -35 -33.5t-38 -30.5t-41.5 -23.5t-39 -4t-36.5 18.5t-18 37t5 39.5t23.5 42
t30 38t32.5 33.5q-36 0 -62 2t-58 9.5t-49 25.5t-17 46t18 46t50.5 25.5t57.5 9.5t60 2q-20 20 -33.5 35t-30.5 38t-23.5 41.5t-4 39t18.5 36.5t37 18t39.5 -5t42 -23.5t38 -30t33.5 -32.5zM458 467q0 108 -48 108t-48 -108q-77 77 -110 42q-35 -33 42 -110q-108 0 -108 -48
t108 -48q-77 -77 -42 -110q33 -35 110 42q0 -108 48 -108t48 108q77 -77 110 -42q35 33 -42 110q108 0 108 48t-108 48q77 77 42 110q-33 35 -110 -42zM490 351q0 -33 -23.5 -56.5t-56.5 -23.5t-56.5 23.5t-23.5 56.5t23.5 56.5t56.5 23.5t56.5 -23.5t23.5 -56.5z" />
    <glyph glyph-name="orn.020" 
d="M327 551q0 29 1 48.5t5.5 48t12.5 46t24.5 30.5t39.5 13q28 0 46.5 -18t25.5 -51t9 -57.5t2 -59.5q23 23 70.5 41t83.5 25l36 7q-3 -16 -8.5 -41t-24.5 -76.5t-40 -72.5q29 0 48.5 -1t48 -5.5t46 -12.5t30.5 -24.5t13 -39.5q0 -28 -18 -46.5t-51 -25.5t-57.5 -9t-59.5 -2
q23 -23 41 -70.5t25 -83.5l7 -36q-16 3 -41 8.5t-76.5 24.5t-72.5 40q0 -29 -1 -48.5t-5.5 -48t-12.5 -46t-24.5 -30.5t-39.5 -13q-28 0 -46.5 18t-25.5 51t-9 57.5t-2 59.5q-23 -23 -70.5 -41t-83.5 -25l-36 -7q3 16 8.5 41t24.5 76.5t40 72.5q-29 0 -48.5 1t-48 5.5
t-46 12.5t-30.5 24.5t-13 39.5q0 28 18 46.5t51 25.5t57.5 9t59.5 2q-23 23 -41 70.5t-25 83.5l-7 36q16 -3 41 -8.5t76.5 -24.5t72.5 -40zM362 467q-12 12 -39.5 22.5t-48.5 14.5l-22 5q15 -83 42 -110q-108 0 -108 -48t108 -48q-12 -12 -22.5 -39.5t-15.5 -49.5l-4 -21
q83 15 110 42q0 -108 48 -108t48 108q12 -12 39.5 -22.5t48.5 -14.5l22 -5q-15 83 -42 110q108 0 108 48t-108 48q12 12 22.5 39.5t15.5 49.5l4 21q-83 -15 -110 -42q0 108 -48 108t-48 -108zM490 351q0 -33 -23.5 -56.5t-56.5 -23.5t-56.5 23.5t-23.5 56.5t23.5 56.5
t56.5 23.5t56.5 -23.5t23.5 -56.5z" />
    <glyph glyph-name="orn.021" 
d="M327 551q0 33 20.5 79.5t41.5 76.5l21 30q9 -13 23 -34.5t37 -71t23 -80.5q20 20 34 33t38 30.5t42 24t39 4t37 -18.5t18 -37.5t-5 -40t-24.5 -42t-30 -37.5t-31.5 -33q33 0 79.5 -21t76.5 -41l30 -21q-13 -9 -34.5 -23t-71 -37t-80.5 -23q20 -20 33 -34t30.5 -38t24 -42
t4 -39t-18.5 -37t-37.5 -18t-40 5t-42 24.5t-37.5 30t-33 31.5q0 -33 -20.5 -79.5t-41.5 -76.5l-21 -30q-9 13 -23 34.5t-37 71t-23 80.5q-20 -20 -34 -33t-38 -30.5t-42 -24t-39 -4t-37 18.5t-18 37.5t5 40t24.5 42t30 37.5t31.5 33q-33 0 -79.5 21t-76.5 41l-30 21
q13 9 34.5 23t71 37t80.5 23q-20 20 -33 34t-30.5 38t-24 42t-4 39t18.5 37t37.5 18t40 -5t42 -24.5t37.5 -30t33 -31.5zM362 467q-76 76 -110 42t42 -110q-18 0 -45 -12t-45 -24l-18 -12q70 -48 108 -48q-76 -76 -42 -110t110 42q0 -18 12 -45t24 -45l12 -18q48 70 48 108
q76 -76 110 -42t-42 110q18 0 45 12t45 24l18 12q-70 48 -108 48q76 76 42 110t-110 -42q0 18 -12 45t-24 45l-12 18q-48 -70 -48 -108zM490 351q0 -33 -23.5 -56.5t-56.5 -23.5t-56.5 23.5t-23.5 56.5t23.5 56.5t56.5 23.5t56.5 -23.5t23.5 -56.5z" />
    <glyph glyph-name="orn.022" 
d="M331 556l79 181l79 -181l-79 -81zM499 552l184 72l-72 -184l-113 -1zM209 440l-72 184l184 -72l1 -113zM615 430l181 -79l-181 -79l-81 79zM489 351l-80 -80l-80 80l80 80zM205 272l-181 79l181 79l81 -79zM611 262l72 -184l-184 72l-1 113zM321 150l-184 -72l72 184
l113 1zM489 146l-79 -181l-79 181l79 81z" />
    <glyph glyph-name="orn.023" 
d="M493 564q-35 -17 -55 -35q-13 -12 -28 -44q-13 30 -28 44q-20 18 -55 35q2 46 16 77q8 16 24.5 40t29.5 40l13 16q53 -63 67 -96q14 -31 16 -77zM619 443q-43 13 -63 14q-15 1 -51 -11q12 32 11 51q-1 20 -14 63q33 31 66 43q17 7 45.5 12t48.5 7l21 2q-7 -82 -21 -115
q-12 -33 -43 -66zM318 560q-13 -43 -14 -63q-1 -15 11 -51q-32 12 -51 11q-20 -1 -63 -14q-31 33 -43 66q-7 17 -12 45.5t-7 49.5l-2 20q82 -7 115 -21q33 -12 66 -43zM623 268q-17 35 -35 55q-12 13 -44 28q30 13 44 28q18 20 35 55q46 -2 77 -16q16 -8 40 -24.5t40 -29.5
l16 -13q-63 -53 -96 -67q-31 -14 -77 -16zM490 351q0 -33 -23.5 -56.5t-56.5 -23.5t-56.5 23.5t-23.5 56.5t23.5 56.5t56.5 23.5t56.5 -23.5t23.5 -56.5zM197 434q17 -35 35 -55q12 -13 44 -28q-30 -13 -44 -28q-18 -20 -35 -55q-46 2 -77 16q-16 8 -40 24.5t-40 29.5
l-16 13q63 53 96 67q31 14 77 16zM502 142q13 43 14 63q1 15 -11 51q32 -12 51 -11q20 1 63 14q31 -33 43 -66q7 -17 12 -45.5t7 -49.5l2 -20q-82 7 -115 21q-33 12 -66 43zM201 259q43 -13 63 -14q15 -1 51 11q-12 -32 -11 -51q1 -20 14 -63q-33 -31 -66 -43
q-17 -7 -45.5 -12t-48.5 -7l-21 -2q7 82 21 115q12 33 43 66zM327 138q35 17 55 35q13 12 28 44q13 -30 28 -44q20 -18 55 -35q-2 -46 -16 -77q-8 -16 -24.5 -40t-29.5 -40l-13 -16q-53 63 -67 96q-14 31 -16 77z" />
    <glyph glyph-name="orn.024" 
d="M493 572q-18 3 -36 -12.5t-27 -33t-20 -42.5q-9 20 -15 32t-17 28t-24 23t-27 5q2 165 83 165q78 0 83 -165zM625 449q-25 36 -121 -4q38 98 4 121q118 115 175 58q56 -56 -58 -175zM312 566q-36 -25 4 -121q-98 38 -121 4q-115 118 -58 175q56 56 175 -58zM631 268
q3 18 -12.5 36t-33 27t-42.5 20q20 9 32 15t28 17t23 24t5 27q165 -2 165 -83q0 -78 -165 -83zM490 351q0 -33 -23.5 -56.5t-56.5 -23.5t-56.5 23.5t-23.5 56.5t23.5 56.5t56.5 23.5t56.5 -23.5t23.5 -56.5zM189 434q-3 -18 12.5 -36t33 -27t42.5 -20q-20 -9 -32 -15
t-28 -17t-23 -24t-5 -27q-165 2 -165 83q0 78 165 83zM508 136q36 25 -4 121q98 -38 121 -4q115 -118 58 -175q-56 -56 -175 58zM195 253q25 -36 121 4q-38 -98 -4 -121q-118 -115 -175 -58q-56 56 58 175zM327 130q18 -3 36 12.5t27 33t20 42.5q9 -20 15 -32t17 -28t24 -23
t27 -5q-2 -165 -83 -165q-78 0 -83 165z" />
    <glyph glyph-name="orn.025" 
d="M341 580l69 157l69 -157l-69 -68zM523 562l160 62l-62 -160l-97 1zM199 464l-62 160l160 -62l-1 -97zM639 420l157 -69l-157 -69l-68 69zM474 414l84 -2l-58 -62l58 -61l-85 -2l-2 -84l-62 58l-61 -58l-2 85l-84 2l58 62l-58 61l85 2l2 84l62 -58l61 58zM181 282l-157 69
l157 69l68 -69zM621 238l62 -160l-160 62l1 97zM297 140l-160 -62l62 160l97 -1zM479 122l-69 -157l-69 157l69 68z" />
    <glyph glyph-name="orn.026" 
d="M489 599q-29 -17 -44 -31q-19 -18 -35 -56q-15 37 -35 56q-15 14 -44 31q3 21 12 42q8 16 24.5 40t29.5 40l13 16q53 -63 67 -96q9 -19 12 -42zM641 471q-32 8 -53 9q-28 0 -64 -15q15 37 15 64q-1 21 -9 53q16 13 38 21q17 7 45.5 12t48.5 7l21 2q-7 -82 -21 -115
q-7 -19 -21 -38zM290 582q-8 -32 -9 -53q0 -28 15 -64q-38 15 -64 15q-21 -1 -53 -9q-13 16 -21 38q-7 17 -12 45.5t-7 49.5l-2 20q82 -7 115 -21q19 -7 38 -21zM658 272q-17 29 -31 44q-18 19 -56 35q37 15 56 35q14 15 31 44q21 -3 42 -12q16 -8 40 -24.5t40 -29.5l16 -13
q-63 -53 -96 -67q-20 -9 -42 -12zM410 451q9 21 22 34q6 6 17.5 14t20.5 13l8 4q11 -35 11 -55q0 -17 -8 -39q22 8 39 8q9 0 22.5 -2.5t23.5 -5.5l9 -2q-17 -33 -31 -47q-13 -13 -34 -22q21 -9 34 -22q6 -6 14 -17.5t12 -19.5l5 -9q-35 -11 -55 -11q-17 0 -39 8q8 -22 8 -39
q0 -9 -2.5 -22.5t-4.5 -22.5l-3 -10q-33 17 -47 31q-13 13 -22 34q-9 -21 -22 -34q-6 -6 -17.5 -14t-20.5 -13l-8 -4q-11 35 -11 55q0 17 8 39q-22 -8 -39 -8q-9 0 -22.5 2.5t-23.5 5.5l-9 2q17 33 31 47q13 13 34 22q-21 9 -34 22q-6 6 -14 17.5t-12 19.5l-5 9q35 11 55 11
q17 0 39 -8q-8 22 -8 39q0 9 2.5 22.5t4.5 22.5l3 10q33 -17 47 -31q13 -13 22 -34zM162 430q17 -29 31 -44q18 -19 56 -35q-37 -15 -56 -35q-14 -15 -31 -44q-21 3 -42 12q-16 8 -40 24.5t-40 29.5l-16 13q63 53 96 67q20 9 42 12zM530 120q8 32 9 53q0 28 -15 64
q38 -15 64 -15q21 1 53 9q13 -16 21 -38q7 -17 12 -45.5t7 -49.5l2 -20q-82 7 -115 21q-19 7 -38 21zM179 231q32 -8 53 -9q28 0 64 15q-15 -37 -15 -64q1 -21 9 -53q-16 -13 -38 -21q-17 -7 -45.5 -12t-48.5 -7l-21 -2q7 82 21 115q7 19 21 38zM331 103q29 17 44 31
q19 18 35 56q15 -37 35 -56q15 -14 44 -31q-3 -21 -12 -42q-8 -16 -24.5 -40t-29.5 -40l-13 -16q-53 63 -67 96q-9 19 -12 42z" />
    <glyph glyph-name="orn.027" 
d="M490 621q-42 -10 -80 -106q-37 96 -80 106q12 116 80 116t80 -116zM657 485q-36 23 -131 -18q42 94 18 131q90 75 139 26q48 -48 -26 -139zM276 598q-23 -36 18 -131q-94 42 -131 18q-75 90 -26 139q48 48 139 -26zM680 271q-10 42 -106 80q96 37 106 80q116 -12 116 -80
t-116 -80zM140 431q10 -42 106 -80q-96 -37 -106 -80q-116 12 -116 80t116 80zM481 422q22 9 34.5 13t32.5 2t27 -18q5 -13 1 -23t-15.5 -18.5t-23.5 -14.5t-24 -11q-2 -1 -3 -1q80 -33 65 -69q-15 -35 -94 -2q9 -22 13 -34.5t2 -32.5t-18 -27q-13 -5 -23 -1t-18.5 15.5
t-14.5 23.5t-11 24q-1 2 -1 3q-33 -80 -69 -65q-35 15 -2 94q-22 -9 -34.5 -13t-32.5 -2t-27 18q-5 13 -1 23t15.5 18.5t23.5 14.5t24 11q1 0 1.5 0.5t1.5 0.5q-80 33 -65 69q15 35 94 2q-9 22 -13 34.5t-2 32.5t18 27q13 5 23 1t18.5 -15.5t14.5 -23.5t11 -24
q0 -1 0.5 -1.5t0.5 -1.5q33 80 69 65q35 -15 2 -94zM544 104q23 36 -18 131q94 -42 131 -18q75 -90 26 -139q-48 -48 -139 26zM163 217q36 -23 131 18q-42 -94 -18 -131q-90 -75 -139 -26q-48 48 26 139zM330 81q42 10 80 106q37 -96 80 -106q-12 -116 -80 -116t-80 116z
" />
    <glyph glyph-name="orn.028" 
d="M341 580l69 157l69 -157l-69 -68zM523 562l160 62l-62 -160l-97 1zM199 464l-62 160l160 -62l-1 -97zM639 420l157 -69l-157 -69l-68 69zM481 421l94 -2l-66 -69l66 -68l-95 -2l-2 -94l-69 66l-68 -66l-2 95l-94 2l66 69l-66 68l95 2l2 94l69 -66l68 66zM181 282l-157 69
l157 69l68 -69zM621 238l62 -160l-160 62l1 97zM297 140l-160 -62l62 160l97 -1zM479 122l-69 -157l-69 157l69 68zM489 351l-80 80l-80 -80l80 -80z" />
    <glyph glyph-name="orn.029" 
d="M489 599q-29 -17 -44 -31q-19 -18 -35 -56q-15 37 -35 56q-15 14 -44 31q3 21 12 42q8 16 24.5 40t29.5 40l13 16q53 -63 67 -96q9 -19 12 -42zM641 471q-32 8 -53 9q-28 0 -64 -15q15 37 15 64q-1 21 -9 53q16 13 38 21q17 7 45.5 12t48.5 7l21 2q-7 -82 -21 -115
q-7 -19 -21 -38zM290 582q-8 -32 -9 -53q0 -28 15 -64q-38 15 -64 15q-21 -1 -53 -9q-13 16 -21 38q-7 17 -12 45.5t-7 49.5l-2 20q82 -7 115 -21q19 -7 38 -21zM658 272q-17 29 -31 44q-18 19 -56 35q37 15 56 35q14 15 31 44q21 -3 42 -12q16 -8 40 -24.5t40 -29.5l16 -13
q-63 -53 -96 -67q-20 -9 -42 -12zM410 451q9 21 22 34q6 6 17.5 14t20.5 13l8 4q11 -35 11 -55q0 -17 -8 -39q22 8 39 8q9 0 22.5 -2.5t23.5 -5.5l9 -2q-17 -33 -31 -47q-13 -13 -34 -22q21 -9 34 -22q6 -6 14 -17.5t12 -19.5l5 -9q-35 -11 -55 -11q-17 0 -39 8q8 -22 8 -39
q0 -9 -2.5 -22.5t-4.5 -22.5l-3 -10q-33 17 -47 31q-13 13 -22 34q-9 -21 -22 -34q-6 -6 -17.5 -14t-20.5 -13l-8 -4q-11 35 -11 55q0 17 8 39q-22 -8 -39 -8q-9 0 -22.5 2.5t-23.5 5.5l-9 2q17 33 31 47q13 13 34 22q-21 9 -34 22q-6 6 -14 17.5t-12 19.5l-5 9q35 11 55 11
q17 0 39 -8q-8 22 -8 39q0 9 2.5 22.5t4.5 22.5l3 10q33 -17 47 -31q13 -13 22 -34zM162 430q17 -29 31 -44q18 -19 56 -35q-37 -15 -56 -35q-14 -15 -31 -44q-21 3 -42 12q-16 8 -40 24.5t-40 29.5l-16 13q63 53 96 67q20 9 42 12zM530 120q8 32 9 53q0 28 -15 64
q38 -15 64 -15q21 1 53 9q13 -16 21 -38q7 -17 12 -45.5t7 -49.5l2 -20q-82 7 -115 21q-19 7 -38 21zM179 231q32 -8 53 -9q28 0 64 15q-15 -37 -15 -64q1 -21 9 -53q-16 -13 -38 -21q-17 -7 -45.5 -12t-48.5 -7l-21 -2q7 82 21 115q7 19 21 38zM331 103q29 17 44 31
q19 18 35 56q15 -37 35 -56q15 -14 44 -31q-3 -21 -12 -42q-8 -16 -24.5 -40t-29.5 -40l-13 -16q-53 63 -67 96q-9 19 -12 42zM475 351q0 27 -19 46t-46 19t-46 -19t-19 -46t19 -46t46 -19t46 19t19 46z" />
    <glyph glyph-name="orn.030" 
d="M490 621q-42 -10 -80 -106q-37 96 -80 106q12 116 80 116t80 -116zM657 485q-36 23 -131 -18q42 94 18 131q90 75 139 26q48 -48 -26 -139zM276 598q-23 -36 18 -131q-94 42 -131 18q-75 90 -26 139q48 48 139 -26zM680 271q-10 42 -106 80q96 37 106 80q116 -12 116 -80
t-116 -80zM140 431q10 -42 106 -80q-96 -37 -106 -80q-116 12 -116 80t116 80zM481 422q22 9 34.5 13t32.5 2t27 -18q5 -13 1 -23t-15.5 -18.5t-23.5 -14.5t-24 -11q-2 -1 -3 -1q80 -33 65 -69q-15 -35 -94 -2q9 -22 13 -34.5t2 -32.5t-18 -27q-13 -5 -23 -1t-18.5 15.5
t-14.5 23.5t-11 24q-1 2 -1 3q-33 -80 -69 -65q-35 15 -2 94q-22 -9 -34.5 -13t-32.5 -2t-27 18q-5 13 -1 23t15.5 18.5t23.5 14.5t24 11q1 0 1.5 0.5t1.5 0.5q-80 33 -65 69q15 35 94 2q-9 22 -13 34.5t-2 32.5t18 27q13 5 23 1t18.5 -15.5t14.5 -23.5t11 -24
q0 -1 0.5 -1.5t0.5 -1.5q33 80 69 65q35 -15 2 -94zM544 104q23 36 -18 131q94 -42 131 -18q75 -90 26 -139q-48 -48 -139 26zM163 217q36 -23 131 18q-42 -94 -18 -131q-90 -75 -139 -26q-48 48 26 139zM330 81q42 10 80 106q37 -96 80 -106q-12 -116 -80 -116t-80 116z
M475 351q0 27 -19 46t-46 19t-46 -19t-19 -46t19 -46t46 -19t46 19t19 46z" />
    <glyph glyph-name="orn.031" horiz-adv-x="835" 
d="M745 353l-217 -307l-38 25l58 195l-468 75v25l468 75l-58 195l38 25z" />
    <glyph glyph-name="orn.032" horiz-adv-x="835" 
d="M320 661l38 -25l-58 -195l468 -75v-25l-468 -75l58 -195l-38 -25l-217 307z" />
    <glyph glyph-name="orn.033" horiz-adv-x="710" 
d="M54 243l25 37l195 -57l75 467h25l75 -467l195 57l25 -37l-308 -218z" />
    <glyph glyph-name="orn.034" horiz-adv-x="710" 
d="M54 463l307 217l308 -217l-25 -38l-195 58l-75 -468h-25l-75 468l-195 -58z" />
    <glyph glyph-name="orn.035" horiz-adv-x="700" 
d="M612 325l-174 -246l-30 20l46 156l-374 60v20l374 60l-46 156l30 20z" />
    <glyph glyph-name="orn.036" horiz-adv-x="700" 
d="M272 571l30 -20l-46 -156l374 -60v-20l-374 -60l46 -156l-30 -20l-174 246z" />
    <glyph glyph-name="orn.037" horiz-adv-x="600" 
d="M59 182l20 30l156 -46l60 374h20l60 -374l156 46l20 -30l-246 -174z" />
    <glyph glyph-name="orn.038" horiz-adv-x="600" 
d="M59 358l246 174l246 -174l-20 -30l-156 46l-60 -374h-20l-60 374l-156 -46z" />
    <glyph glyph-name="orn.039" horiz-adv-x="600" 
d="M363 463v195h65v-195h-65zM325 655v-195q-2 0 -4.5 -1t-9.5 -9t-12 -20t-9.5 -38.5t-4.5 -61.5q0 -38 4 -66t10 -41.5t12 -21.5t10 -9l4 -2v-195q-45 0 -81.5 54.5t-55 130.5t-18.5 150q0 72 18.5 145.5t55 126.5t81.5 53zM363 -8v195h65v-195h-65z" />
    <glyph glyph-name="orn.040" horiz-adv-x="800" 
d="M351 372l-90 -40l-80 55q-36 25 -55.5 46t-19.5 49q0 31 22 53t53 22t53 -22t22 -53q0 -40 -35 -60zM651 472l50 -30l-480 -270q35 -20 35 -60q0 -31 -22 -53t-53 -22t-53 22t-22 53q0 56 65 85l85 40l15 65zM476 282l225 -115l-30 -25l-265 100zM181 517
q-14 0 -24.5 -10.5t-10.5 -24.5t10.5 -24.5t24.5 -10.5t24.5 10.5t10.5 24.5t-10.5 24.5t-24.5 10.5zM181 147q-14 0 -24.5 -10.5t-10.5 -24.5t10.5 -24.5t24.5 -10.5t24.5 10.5t10.5 24.5t-10.5 24.5t-24.5 10.5z" />
    <glyph glyph-name="orn.041" horiz-adv-x="800" 
d="M705 534v-455h-610v455h610zM166 493l194 -194q1 -1 5.5 -6t6 -6t6 -4.5t7 -5t7 -2.5t8.5 -1t8.5 1t7 2.5t7 5t6 4.5t6 6t5.5 6l194 194h-468zM505 304l159 -159v318zM295 304l-159 159v-318zM634 120l-159 159l-32 -32q-18 -18 -43 -18t-43 18l-32 32l-159 -159h468z
" />
    <glyph glyph-name="orn.042" horiz-adv-x="800" 
d="M365 315l-260 130l50 50l310 -75l140 140q11 10 25 10t25 -10t11 -25t-11 -25l-140 -140l75 -310l-50 -50l-130 260l-105 -106l11 -79l-41 -41l-45 91l-90 45l40 40l80 -10z" />
    </font>
</defs>
</svg>
